<svg width="247" height="291" viewBox="0 0 247 291" fill="none" xmlns="http://www.w3.org/2000/svg">
<path d="M140.265 246.728C196.072 238.198 241.425 184.939 233.186 125.744C226.157 75.26 182.305 35.9719 129.72 32.2618C125.913 31.9915 122.064 31.912 118.173 32.0234C88.8381 32.8757 62.7732 44.722 43.4956 62.644C24.3088 80.4784 11.8468 104.337 9.5739 129.365C3.52968 195.958 70.8533 257.338 140.265 246.728Z" fill="#FFF6F0"/>
<path d="M192.639 243.668C205.69 241.975 222.237 237.529 228.883 224.989C230.464 222.006 232.05 216.211 228.059 214.029C224.412 212.034 219.695 214.142 216.984 216.737C214.991 218.646 213.435 222.906 211.195 224.253C207.917 226.224 206.153 220.847 206.222 218.625C206.376 213.661 212.425 211.629 216.445 210.551C223.118 208.762 230.888 207.226 230.47 199.638C230.051 192.05 222.72 187.495 217.079 190.815C212.432 193.552 213.086 199.391 209.911 202.898C207.09 206.011 206.108 200.958 206.295 198.481C206.705 193.101 211.391 189.209 214.84 185.603C218.74 181.526 223.048 173.325 218.891 167.935C216.5 164.833 210.424 164.106 206.833 164.629C189.254 167.191 200.911 190.152 197.714 192.714C194.518 195.276 191.494 190.791 191.502 183.973C191.51 177.154 190.476 172.125 183.426 174.307C176.376 176.489 175.034 194.3 183.085 201.149C191.135 207.999 182.579 215.462 180.418 210.556C178.858 207.014 177.486 197.739 172.977 196.722C165.464 195.029 165.575 210.515 167.738 214.119C170.768 219.171 177.62 220.268 181.45 224.627C182.562 225.893 185.072 229.03 184.101 230.88C182.741 233.462 178.946 230.7 177.552 229.502C174.419 226.812 170.08 217.671 165.662 223.744C160.209 231.234 169.327 242.344 192.639 243.668Z" fill="#FAB88F"/>
<g style="mix-blend-mode:soft-light" opacity="0.8">
<path d="M194.52 242.552C194.213 242.552 193.962 242.197 193.957 241.887C193.952 241.618 193.589 214.563 205.272 182.444C205.322 182.3 205.425 182.181 205.56 182.113C205.695 182.045 205.851 182.033 205.995 182.079C206.064 182.103 206.128 182.141 206.182 182.191C206.237 182.24 206.281 182.3 206.312 182.367C206.343 182.434 206.361 182.506 206.364 182.58C206.367 182.654 206.356 182.728 206.33 182.797C194.72 214.713 195.082 241.601 195.082 241.868C195.088 242.183 194.841 242.548 194.528 242.548L194.52 242.552Z" fill="#B34F12"/>
</g>
<path d="M203.024 241.443C202.586 238.675 197.341 237.885 195.231 237.482C194.005 237.248 192.258 237.008 191.631 235.729C190.969 234.387 191.974 233.349 193.264 233.111C195.573 232.686 198.056 234.166 200.202 234.84C202.507 235.563 204.898 235.904 207.184 234.905C209.006 234.108 210.873 232.215 211.269 230.224C212.366 224.709 206.894 225.027 203.329 225.802C201.598 226.178 198.196 226.461 197.891 223.993C197.57 221.367 200.876 220.043 202.921 219.964C205.593 219.862 208.224 220.451 210.875 220.649C213.265 220.824 216.097 220.561 216.759 217.785C217.271 215.64 216.074 213.175 214.348 211.903C210.355 208.961 205.091 213.977 200.827 213.967C199.32 213.967 196.832 212.847 196.415 211.209C195.992 209.544 198.134 208.424 199.307 207.816C202.788 206.018 218.775 203.714 213.046 196.746C211.605 194.993 208.82 193.518 206.572 193.456C202.331 193.339 197.566 196.244 194.3 198.751C189.158 202.693 184.665 208.117 181.745 213.93C175.294 226.777 178.419 235.391 178.419 235.391C180.289 238.504 183.184 241.742 186.373 243.496C190.12 245.558 195.924 246.463 200 244.861C201.311 244.346 203.295 243.155 203.024 241.443Z" fill="#BF65A7"/>
<g style="mix-blend-mode:multiply" opacity="0.7">
<path d="M145.986 43.0798L145.289 52.4C145.262 52.7539 145.305 53.1096 145.415 53.4467C145.525 53.7838 145.7 54.0956 145.93 54.3641C146.16 54.6326 146.44 54.8526 146.755 55.0112C147.069 55.1699 147.412 55.2642 147.763 55.2886L153.135 55.6698C153.365 58.1544 153.815 60.6134 154.477 63.0178L149.648 65.3695C149.007 65.6812 148.514 66.2372 148.278 66.9155C148.042 67.5939 148.082 68.339 148.39 68.9872L152.412 77.4146C152.723 78.0631 153.276 78.5608 153.949 78.7984C154.623 79.0361 155.363 78.9942 156.006 78.6821L160.827 76.3474C162.281 78.3901 163.909 80.3005 165.694 82.0564L162.678 86.4931C162.479 86.788 162.338 87.1197 162.266 87.4694C162.193 87.8191 162.19 88.1797 162.256 88.5307C162.321 88.8818 162.455 89.2162 162.649 89.5149C162.844 89.8136 163.094 90.0707 163.387 90.2714L171.111 95.5863C171.704 95.996 172.433 96.152 173.14 96.0203C173.847 95.8885 174.473 95.4797 174.882 94.8832L177.888 90.4733C180.189 91.5198 182.577 92.3592 185.024 92.9816L184.623 98.3338C184.572 99.0597 184.808 99.7764 185.28 100.327C185.751 100.878 186.419 101.217 187.138 101.272L196.556 102.022C196.913 102.052 197.272 102.011 197.613 101.901C197.953 101.791 198.269 101.615 198.542 101.381C198.815 101.147 199.04 100.862 199.203 100.54C199.367 100.219 199.466 99.8681 199.494 99.5081L199.896 94.138C202.429 93.9013 204.937 93.44 207.389 92.7593L209.733 97.617C210.055 98.2767 210.621 98.7823 211.309 99.0249C211.997 99.2676 212.752 99.228 213.411 98.9145L222.008 94.8289C222.334 94.6767 222.626 94.4603 222.868 94.1926C223.11 93.9248 223.297 93.6109 223.417 93.2694C223.538 92.9279 223.589 92.5655 223.569 92.2036C223.549 91.8417 223.457 91.4875 223.3 91.1618L220.925 86.258C222.998 84.7762 224.938 83.1142 226.723 81.2909L231.268 84.3725C231.877 84.7831 232.62 84.9377 233.34 84.8034C234.061 84.6691 234.701 84.2564 235.124 83.6532L240.535 75.787C240.741 75.4883 240.885 75.1511 240.96 74.7953C241.034 74.4394 241.037 74.0721 240.969 73.715C240.901 73.3579 240.762 73.0182 240.562 72.716C240.361 72.4137 240.103 72.1551 239.802 71.9552L235.222 68.8736C236.266 66.5568 237.102 64.1503 237.721 61.6829L243.288 62.0779C244.824 62.1874 246.163 61.0431 246.277 59.5226L246.992 50.0142C247.106 48.4937 245.953 47.1759 244.416 47.0713L238.803 46.6893C238.548 44.1769 238.071 41.6927 237.375 39.2667L242.445 36.8103C243.832 36.1388 244.413 34.4861 243.744 33.1205L239.566 24.5869C238.899 23.2237 237.236 22.6657 235.854 23.3404L230.746 25.83C229.261 23.8103 227.604 21.9255 225.793 20.1972L228.985 15.5148C229.191 15.218 229.335 14.8826 229.41 14.5284C229.484 14.1742 229.488 13.8084 229.42 13.4529C229.352 13.0973 229.213 12.7592 229.013 12.4587C228.813 12.1581 228.555 11.9012 228.255 11.7033L220.361 6.47024C219.748 6.07025 219.004 5.92737 218.288 6.07199C217.572 6.21661 216.94 6.63731 216.527 7.24469L213.34 11.9279C211.048 10.9371 208.675 10.1502 206.247 9.57617L206.669 3.96034C206.695 3.60173 206.65 3.24148 206.536 2.90076C206.422 2.56005 206.242 2.24575 206.006 1.97633C205.77 1.70691 205.483 1.48781 205.162 1.33191C204.841 1.17601 204.492 1.08646 204.136 1.0685L194.705 0.506511C193.982 0.462667 193.271 0.705874 192.724 1.18414C192.177 1.6624 191.837 2.33777 191.776 3.06587L191.355 8.66143C188.879 8.93514 186.431 9.42351 184.039 10.1211L181.621 5.12892C180.969 3.78437 179.346 3.23941 177.994 3.9125L169.557 8.10349C168.211 8.77253 167.644 10.4025 168.291 11.7438L170.693 16.7206C168.685 18.1887 166.806 19.8274 165.075 21.6188L160.521 18.551C159.924 18.154 159.196 18.0109 158.494 18.1525C157.793 18.2941 157.176 18.7092 156.776 19.3076L151.534 27.0927C151.335 27.3854 151.195 27.7151 151.122 28.0628C151.049 28.4104 151.046 28.7691 151.111 29.1182C151.177 29.4673 151.31 29.7998 151.504 30.0966C151.697 30.3934 151.947 30.6486 152.239 30.8474L156.731 33.8909C155.712 36.1617 154.892 38.5184 154.28 40.934L148.864 40.565C148.153 40.5178 147.453 40.7553 146.914 41.226C146.375 41.6967 146.042 42.3628 145.986 43.0798ZM223.326 53.2685C222.177 68.5533 208.808 80.0096 193.55 78.8645C178.382 77.7252 167.076 64.5513 168.212 49.4327C169.348 34.3142 182.513 22.8425 197.688 23.8156C212.96 24.7953 224.476 37.9837 223.326 53.2685Z" fill="#FAB88F"/>
</g>
<path d="M105.526 42.337L86.5156 235.334C86.2319 238.208 88.1923 240.721 90.879 240.919L183.515 248.751C189.161 248.95 192.209 245.88 192.513 242.839L213.111 38.5523C213.42 35.4837 210.599 32.7678 204.895 32.8846L111 36.8785C108.273 36.9823 105.812 39.4387 105.526 42.337Z" fill="url(#paint0_linear_479_12234)"/>
<path d="M101.316 42.0914L82.2265 236.083C81.9421 238.971 83.9137 241.498 86.6076 241.697L182.644 248.803C185.643 249.025 188.354 246.705 188.663 243.648L209.351 38.2767C209.662 35.1951 207.417 32.7623 204.37 32.879L106.812 36.6062C104.073 36.7083 101.603 39.1777 101.316 42.0914Z" fill="#26264F"/>
<path d="M103.338 52.795L85.631 232.597C85.3651 235.296 87.2073 237.652 89.7285 237.833L180.057 244.314C182.845 244.513 185.367 242.349 185.653 239.502L204.751 49.8091C205.04 46.9383 202.955 44.6636 200.126 44.7545L108.476 47.699C105.915 47.7809 103.606 50.0743 103.338 52.795Z" fill="#EFECEE"/>
<path d="M151.922 40.904C151.818 41.942 152.544 42.7554 153.544 42.7213C154.544 42.6873 155.44 41.8171 155.544 40.7751C155.647 39.733 154.92 38.9212 153.919 38.9577C152.917 38.9942 152.025 39.8652 151.922 40.904Z" fill="white"/>
<g style="mix-blend-mode:soft-light" opacity="0.3">
<path d="M160.813 135.595C170.357 107.131 153.742 92.7902 163.153 66.4213C168.275 52.0797 178.518 41.3905 189.79 33.4359L204.371 32.8756C207.417 32.7596 209.663 35.1884 209.352 38.2733L188.661 243.648C188.353 246.705 185.641 249.024 182.643 248.803L99.7285 242.668C99.9888 221.224 105.386 205.963 111.389 195.113C127.885 165.304 150.93 165.07 160.813 135.595Z" fill="white"/>
</g>
<path d="M74.9376 55.982C80.1283 55.982 84.3362 51.7348 84.3362 46.4955C84.3362 41.2563 80.1283 37.009 74.9376 37.009C69.7469 37.009 65.5391 41.2563 65.5391 46.4955C65.5391 51.7348 69.7469 55.982 74.9376 55.982Z" fill="#DFA6D0"/>
<path d="M82.2689 63.4145C83.9449 63.4145 85.3035 62.0432 85.3035 60.3515C85.3035 58.6599 83.9449 57.2886 82.2689 57.2886C80.593 57.2886 79.2344 58.6599 79.2344 60.3515C79.2344 62.0432 80.593 63.4145 82.2689 63.4145Z" fill="#BF65A7"/>
<path d="M97.9533 175.763L99.8284 152.686C100.126 150.521 101.504 149.117 103.469 149.158L185.332 149.747C187.714 149.802 189.614 151.441 189.29 154.069L186.186 179.22C185.914 181.423 184.209 183.036 182.21 182.978L99.8492 179.594C98.6259 179.559 97.9685 179.327 97.8909 177.977L97.9533 175.763Z" fill="#FFF5FC"/>
<path d="M120.774 165.53C121.214 159.981 118.66 155.248 115.07 154.959C111.479 154.669 108.213 158.931 107.773 164.48C107.333 170.028 109.887 174.761 113.477 175.051C117.067 175.341 120.334 171.078 120.774 165.53Z" fill="#DFA6D0"/>
<path d="M176.032 165.346L128.579 163.769C127.819 163.744 127.213 163.018 127.227 162.155L127.253 160.777C127.269 159.915 127.905 159.23 128.665 159.255L176.118 160.832C176.878 160.857 177.484 161.583 177.47 162.446L177.445 163.824C177.428 164.686 176.792 165.371 176.032 165.346Z" fill="#DFA6D0"/>
<path d="M146.767 173.969L123.612 173.197C123.075 173.179 122.648 172.666 122.656 172.056L122.7 169.761C122.712 169.151 123.161 168.667 123.698 168.685L146.853 169.454C147.39 169.472 147.817 169.985 147.809 170.595L147.765 172.891C147.753 173.503 147.304 173.987 146.767 173.969Z" fill="#DFA6D0"/>
<path d="M100.524 131.648L102.399 108.57C102.696 106.405 104.074 105.002 106.039 105.042L187.903 105.632C190.284 105.686 192.185 107.325 191.861 109.953L188.756 135.104C188.484 137.308 186.78 138.921 184.78 138.863L102.419 135.479C101.196 135.443 100.539 135.211 100.461 133.862L100.524 131.648Z" fill="#FFF5FC"/>
<path d="M123.344 121.414C123.784 115.866 121.23 111.133 117.64 110.843C114.05 110.553 110.783 114.816 110.343 120.364C109.903 125.912 112.457 130.645 116.047 130.935C119.638 131.225 122.905 126.962 123.344 121.414Z" fill="#DFA6D0"/>
<path d="M178.602 121.23L131.149 119.653C130.389 119.628 129.783 118.902 129.797 118.04L129.824 116.661C129.84 115.799 130.475 115.114 131.235 115.14L178.688 116.716C179.448 116.741 180.054 117.467 180.041 118.33L180.015 119.708C179.998 120.571 179.362 121.256 178.602 121.23Z" fill="#DFA6D0"/>
<path d="M149.337 129.854L126.183 129.082C125.645 129.064 125.219 128.55 125.227 127.941L125.27 125.646C125.282 125.036 125.731 124.552 126.269 124.569L149.423 125.338C149.96 125.356 150.387 125.869 150.379 126.479L150.336 128.775C150.323 129.387 149.874 129.871 149.337 129.854Z" fill="#DFA6D0"/>
<path d="M94.2561 218.176L96.1311 195.098C96.4287 192.934 97.8064 191.53 99.7714 191.57L181.635 192.16C184.016 192.215 185.917 193.853 185.593 196.481L182.488 221.633C182.217 223.836 180.512 225.449 178.512 225.391L96.1519 222.007C94.9286 221.971 94.2712 221.74 94.1937 220.39L94.2561 218.176Z" fill="#FFF5FC"/>
<path d="M117.077 207.942C117.516 202.394 114.963 197.661 111.372 197.371C107.782 197.081 104.515 201.344 104.076 206.892C103.636 212.441 106.19 217.173 109.78 217.463C113.37 217.753 116.637 213.491 117.077 207.942Z" fill="#DFA6D0"/>
<path d="M172.335 207.758L124.882 206.182C124.122 206.157 123.516 205.431 123.53 204.568L123.556 203.189C123.572 202.327 124.208 201.643 124.968 201.668L172.421 203.245C173.181 203.27 173.787 203.995 173.773 204.858L173.747 206.237C173.73 207.099 173.095 207.784 172.335 207.758Z" fill="#DFA6D0"/>
<path d="M143.069 216.382L119.915 215.61C119.378 215.592 118.951 215.079 118.959 214.469L119.002 212.174C119.015 211.564 119.464 211.08 120.001 211.098L143.155 211.866C143.693 211.884 144.119 212.398 144.111 213.007L144.068 215.303C144.056 215.915 143.607 216.4 143.069 216.382Z" fill="#DFA6D0"/>
<path d="M80.0797 98.6827C79.1426 98.6831 78.2165 98.4774 77.3661 98.0801C76.5156 97.6828 75.761 97.1032 75.1549 96.3818C74.5487 95.6604 74.1055 94.8144 73.856 93.9026C73.6065 92.9908 73.5567 92.0351 73.7101 91.1019L76.833 72.1873C77.0843 70.6662 77.8619 69.2843 79.0276 68.2875C80.1934 67.2907 81.6716 66.7435 83.1994 66.7434H194.3C195.262 66.7435 196.212 66.9605 197.08 67.3785C197.948 67.7966 198.712 68.4051 199.317 69.1596C199.922 69.9141 200.352 70.7955 200.577 71.7394C200.801 72.6833 200.813 73.6659 200.613 74.6153L196.622 93.5299C196.314 94.9892 195.519 96.2976 194.37 97.2362C193.221 98.1749 191.787 98.6869 190.309 98.6867L80.0797 98.6827Z" fill="#722E60"/>
<path d="M178.532 75.717H108.814C107.938 75.717 107.229 76.4334 107.229 77.317V78.2999C107.229 79.1836 107.938 79.8999 108.814 79.8999H178.532C179.408 79.8999 180.117 79.1836 180.117 78.2999V77.317C180.117 76.4334 179.408 75.717 178.532 75.717Z" fill="#DFA6D0"/>
<path d="M145.107 87.3707H107.962C107.317 87.3707 106.795 87.8979 106.795 88.5482V90.3761C106.795 91.0264 107.317 91.5536 107.962 91.5536H145.107C145.752 91.5536 146.274 91.0264 146.274 90.3761V88.5482C146.274 87.8979 145.752 87.3707 145.107 87.3707Z" fill="#DFA6D0"/>
<path d="M96.2221 84.0882C96.5111 78.2274 93.1967 73.298 88.819 73.078C84.4413 72.858 80.6582 77.4308 80.3691 83.2916C80.08 89.1524 83.3945 94.0819 87.7722 94.3019C92.1499 94.5218 95.933 89.949 96.2221 84.0882Z" fill="#DFA6D0"/>
<path d="M85.4717 85.8735L84.4901 85.8633L87.4081 78.1608L88.3746 78.1708L91.1348 85.9323L90.1532 85.9221L87.9091 79.3893L87.8487 79.3887L85.4717 85.8735ZM85.865 82.8569L89.8216 82.898L89.8131 83.7286L85.8565 83.6875L85.865 82.8569Z" fill="#722E60"/>
<path d="M69.0801 278.751C106.681 278.751 137.162 273.197 137.162 266.346C137.162 259.495 106.681 253.941 69.0801 253.941C31.4794 253.941 0.998047 259.495 0.998047 266.346C0.998047 273.197 31.4794 278.751 69.0801 278.751Z" fill="#EFECEE"/>
<path d="M70.0247 161.29C70.0247 161.29 73.428 175.158 71.4331 188.587C69.4382 202.016 67.9124 245.794 70.0247 261.864C70.0247 261.864 65.2041 265.496 58.3982 263.624C58.3982 263.624 55.8746 231.898 57.1071 216.709C58.3395 201.52 54.2035 181.983 53.7849 179.452C53.3663 176.921 51.0163 168.555 51.4855 163.932L70.0247 161.29Z" fill="url(#paint1_linear_479_12234)"/>
<path d="M54.6507 178.241C54.6507 178.241 44.4953 211.37 44.0799 213.535C43.7248 215.39 37.634 256.773 37.5167 262.717C37.5167 262.717 30.4754 266.018 27.5413 262.717C27.5413 262.717 26.8985 234.026 30.9446 219.919C34.9907 205.811 33.2914 189.47 34.5826 181.047C35.8737 172.625 37.9859 162.882 37.9859 162.882L54.6507 166.184V178.241Z" fill="url(#paint2_linear_479_12234)"/>
<path d="M53.3701 184.955L49.5449 208.067C49.5449 208.067 40.2741 210.048 29.2422 206.086C29.2422 206.086 33.8218 175.818 36.4008 163.6L54.6499 166.187L53.3701 184.955Z" fill="url(#paint3_linear_479_12234)"/>
<path d="M72.2106 162.886C72.2106 162.886 74.5839 191.999 73.5129 206.748C73.5129 206.748 63.1157 210.6 53.3709 208.949L52.2324 165.709L72.2106 162.886Z" fill="url(#paint4_linear_479_12234)"/>
<path d="M36.5412 140.818L28.5391 139.828L29.5835 151.453C29.7402 153.195 30.677 154.793 32.1617 155.85L39.8048 161.29L36.5412 140.818Z" fill="url(#paint5_linear_479_12234)"/>
<path d="M33.3767 110.041C33.3767 110.041 28.5063 115.516 27.2706 126.596C26.0349 137.675 24.9824 139.06 24.9824 139.06C24.9824 139.06 30.968 142.752 38.2728 141.214L33.3767 110.041Z" fill="url(#paint6_linear_479_12234)"/>
<path d="M58.2063 106.241C56.4267 101.771 57.2606 97.7265 57.2606 97.7265L54.2389 96.5369L50.2595 99.7296L47.0185 98.2382L46.3066 106.877L53.5737 106.406C56.4998 107.689 59.0451 108.348 58.2063 106.241Z" fill="url(#paint7_linear_479_12234)"/>
<path d="M61.6769 86.8735C61.6769 86.8735 64.656 103.023 54.1865 97.9754C52.9532 97.3802 46.1016 92.5275 46.1016 92.5275L49.1851 82.942C49.1851 82.942 58.4551 80.8725 59.7543 82.1311C61.0534 83.3897 61.6769 86.8735 61.6769 86.8735Z" fill="url(#paint8_linear_479_12234)"/>
<path d="M48.7007 100.086C56.0119 102.569 57.5465 92.8283 57.5465 92.8283C57.5465 92.8283 53.972 91.7238 55.3595 88.1743C56.7471 84.6248 58.8079 86.9125 58.8079 86.9125C58.8079 86.9125 67.2013 74.9347 56.6073 75.0929C56.6073 75.0929 53.2425 69.4657 50.6619 70.9384C48.4661 72.1913 46.7965 73.6575 44.2529 74.3444C42.2877 74.8739 41.6634 74.569 40.0333 75.8041C38.3846 77.0546 36.9416 79.5709 36.6195 81.5724C36.3471 83.2591 36.8251 85.1292 37.1819 86.7827C38.3742 92.3677 42.8356 98.0955 48.7007 100.086Z" fill="#1D446B"/>
<path d="M43.0909 106.037L44.0888 102.405C44.0888 102.405 51.5269 101.69 58.3698 103.066L60.1663 106.591C60.1663 106.591 68.2054 108.242 70.7579 109.645C70.7579 109.645 71.256 153.149 73.4896 165.256C73.4896 165.256 52.7176 170.869 35.349 165.256C35.349 165.256 35.0847 143.56 33.9695 131.177C32.8544 118.795 33.383 110.044 33.383 110.044L43.0909 106.037Z" fill="url(#paint9_linear_479_12234)"/>
<path d="M27.5949 250.676C27.4254 257.624 27.5395 262.717 27.5395 262.717C30.4736 266.018 37.5149 262.717 37.5149 262.717C37.5479 261.057 38.046 256.635 38.7546 251.087C33.6368 249.778 29.8671 250.139 27.5949 250.676Z" fill="white"/>
<path d="M69.2354 251.292C63.8958 249.797 59.9389 250.096 57.5391 250.632C57.9609 258.135 58.3971 263.624 58.3971 263.624C65.2038 265.496 70.0236 261.864 70.0236 261.864C69.6564 259.074 69.4001 255.448 69.2354 251.292Z" fill="white"/>
<path d="M81.3635 268.096C73.9261 267.188 73.7935 263.061 71.7697 261.284C69.7459 259.507 69.5249 260.83 65.9159 262.522C63.2099 263.791 59.8098 263.157 58.2833 262.761C58.0504 262.699 57.8034 262.721 57.5853 262.824C57.3672 262.927 57.1917 263.104 57.0894 263.324C54.7072 268.77 57.4702 272.263 57.4702 272.263H82.9487C83.1672 269.169 81.3635 268.096 81.3635 268.096Z" fill="#295A89"/>
<path d="M57.4668 272.268H82.9492C82.9927 271.726 82.9657 271.181 82.8689 270.646H56.6328C57.0144 271.685 57.4668 272.268 57.4668 272.268Z" fill="white"/>
<path d="M49.8178 268.096C42.3805 267.188 42.2487 263.061 40.224 261.284C38.1994 259.507 37.9793 260.83 34.371 262.522C31.7197 263.766 28.7052 262.751 27.2952 262.125C27.0664 262.023 26.8083 262.009 26.5703 262.087C26.3322 262.165 26.1309 262.328 26.0049 262.546C22.8466 268.368 25.9246 272.263 25.9246 272.263H51.4022C51.6223 269.169 49.8178 268.096 49.8178 268.096Z" fill="#295A89"/>
<path d="M25.9192 272.268H51.4001C51.4436 271.726 51.4166 271.181 51.3197 270.646H25.082C25.4629 271.684 25.9192 272.268 25.9192 272.268Z" fill="white"/>
<path d="M97.4543 125.836C97.4543 125.836 99.9192 128.532 99.4789 130.679C99.0386 132.825 96.1929 135.22 96.1929 135.22L95.1074 129.249L97.4543 125.836Z" fill="url(#paint10_linear_479_12234)"/>
<path d="M96.1338 129.622L100.06 121.25C100.292 120.763 100.1 120.202 99.6119 119.936C98.2846 119.213 95.6068 117.845 93.0896 117.104C92.5545 116.946 91.9793 117.196 91.7543 117.678L84.2663 133.758C84.0381 134.244 84.2446 134.818 84.7484 135.074C85.9021 135.664 87.9565 136.645 89.4324 136.95L91.592 137.416C91.592 137.416 96.1796 133.424 96.1338 129.622Z" fill="#1D446B"/>
<path d="M70.7574 109.642C70.7574 109.642 77.3584 112.036 79.2947 123.098C81.2309 134.16 84.1353 141.258 84.1353 141.258C84.1353 141.258 87.1619 154.004 82.6394 155.125C76.6546 156.611 72.7812 152.483 70.0528 141.339C67.3243 130.195 67.4127 129.122 65.564 124.747C63.7153 120.372 61.6031 111.045 70.7574 109.642Z" fill="url(#paint11_linear_479_12234)"/>
<path d="M96.8983 128.931C96.45 127.861 96.4267 125.755 96.454 124.569C96.4644 124.107 95.9012 123.823 95.5043 124.096C94.6792 124.661 94.1972 125.837 94.1972 128.162C94.1972 131.299 93.2579 132.895 90.9111 134.436C88.5643 135.977 88.5008 137.738 88.5008 137.738L79.6992 144.507L84.0161 154.194C84.0161 154.194 94.2582 138.126 96.2531 136.97C98.2481 135.814 97.5443 130.472 96.8983 128.931Z" fill="url(#paint12_linear_479_12234)"/>
<path d="M70.7577 109.642C70.7577 109.642 75.3638 109.339 78.8258 117.925C78.8258 117.925 81.9945 125.574 83.1643 132.178C83.1643 132.178 78.5848 140.02 68.202 141.585C68.202 141.585 61.9208 125.197 63.1677 115.837C63.4698 113.566 64.8549 111.56 67.0009 110.463C68.194 109.857 69.5775 109.392 70.7577 109.642Z" fill="url(#paint13_linear_479_12234)"/>
<defs>
<linearGradient id="paint0_linear_479_12234" x1="215.121" y1="140.46" x2="84.5976" y2="143.046" gradientUnits="userSpaceOnUse">
<stop stop-color="#444B8C"/>
<stop offset="1" stop-color="#26264F"/>
</linearGradient>
<linearGradient id="paint1_linear_479_12234" x1="58.3428" y1="267.733" x2="61.0095" y2="207.955" gradientUnits="userSpaceOnUse">
<stop stop-color="#F9B29A"/>
<stop offset="0.3" stop-color="#F8B097"/>
<stop offset="0.52" stop-color="#F6A88D"/>
<stop offset="0.73" stop-color="#F19B7D"/>
<stop offset="0.92" stop-color="#EB8966"/>
<stop offset="1" stop-color="#E8805A"/>
</linearGradient>
<linearGradient id="paint2_linear_479_12234" x1="38.7982" y1="266.958" x2="41.4649" y2="207.181" gradientUnits="userSpaceOnUse">
<stop stop-color="#F9B29A"/>
<stop offset="0.3" stop-color="#F8B097"/>
<stop offset="0.52" stop-color="#F6A88D"/>
<stop offset="0.73" stop-color="#F19B7D"/>
<stop offset="0.92" stop-color="#EB8966"/>
<stop offset="1" stop-color="#E8805A"/>
</linearGradient>
<linearGradient id="paint3_linear_479_12234" x1="41.8488" y1="206.372" x2="42.0715" y2="160.806" gradientUnits="userSpaceOnUse">
<stop stop-color="#1D446B"/>
<stop offset="0.36" stop-color="#194067"/>
<stop offset="0.74" stop-color="#0C355A"/>
<stop offset="1" stop-color="#002A4D"/>
</linearGradient>
<linearGradient id="paint4_linear_479_12234" x1="62.8932" y1="206.468" x2="63.1158" y2="160.896" gradientUnits="userSpaceOnUse">
<stop stop-color="#1D446B"/>
<stop offset="0.36" stop-color="#194067"/>
<stop offset="0.74" stop-color="#0C355A"/>
<stop offset="1" stop-color="#002A4D"/>
</linearGradient>
<linearGradient id="paint5_linear_479_12234" x1="33.9205" y1="159.859" x2="34.3641" y2="143.751" gradientUnits="userSpaceOnUse">
<stop stop-color="#F9B29A"/>
<stop offset="0.3" stop-color="#F8B097"/>
<stop offset="0.52" stop-color="#F6A88D"/>
<stop offset="0.73" stop-color="#F19B7D"/>
<stop offset="0.92" stop-color="#EB8966"/>
<stop offset="1" stop-color="#E8805A"/>
</linearGradient>
<linearGradient id="paint6_linear_479_12234" x1="27.6354" y1="112.098" x2="30.7512" y2="133.548" gradientUnits="userSpaceOnUse">
<stop stop-color="#F8CF66"/>
<stop offset="1" stop-color="#FF7C1A"/>
</linearGradient>
<linearGradient id="paint7_linear_479_12234" x1="48.5538" y1="86.3651" x2="50.561" y2="96.0867" gradientUnits="userSpaceOnUse">
<stop stop-color="#F9B29A"/>
<stop offset="0.3" stop-color="#F8B097"/>
<stop offset="0.52" stop-color="#F6A88D"/>
<stop offset="0.73" stop-color="#F19B7D"/>
<stop offset="0.92" stop-color="#EB8966"/>
<stop offset="1" stop-color="#E8805A"/>
</linearGradient>
<linearGradient id="paint8_linear_479_12234" x1="46.0983" y1="90.3387" x2="62.0682" y2="90.3387" gradientUnits="userSpaceOnUse">
<stop stop-color="#F9B29A"/>
<stop offset="0.3" stop-color="#F8B097"/>
<stop offset="0.52" stop-color="#F6A88D"/>
<stop offset="0.73" stop-color="#F19B7D"/>
<stop offset="0.92" stop-color="#EB8966"/>
<stop offset="1" stop-color="#E8805A"/>
</linearGradient>
<linearGradient id="paint9_linear_479_12234" x1="50.7147" y1="99.5754" x2="54.9339" y2="166.686" gradientUnits="userSpaceOnUse">
<stop stop-color="#F8CF66"/>
<stop offset="1" stop-color="#FF7C1A"/>
</linearGradient>
<linearGradient id="paint10_linear_479_12234" x1="100.809" y1="120.638" x2="98.3065" y2="127.195" gradientUnits="userSpaceOnUse">
<stop stop-color="#F9B29A"/>
<stop offset="0.3" stop-color="#F8B097"/>
<stop offset="0.52" stop-color="#F6A88D"/>
<stop offset="0.73" stop-color="#F19B7D"/>
<stop offset="0.92" stop-color="#EB8966"/>
<stop offset="1" stop-color="#E8805A"/>
</linearGradient>
<linearGradient id="paint11_linear_479_12234" x1="102.498" y1="124.983" x2="69.1115" y2="134.321" gradientUnits="userSpaceOnUse">
<stop stop-color="#F9B29A"/>
<stop offset="0.3" stop-color="#F8B097"/>
<stop offset="0.52" stop-color="#F6A88D"/>
<stop offset="0.73" stop-color="#F19B7D"/>
<stop offset="0.92" stop-color="#EB8966"/>
<stop offset="1" stop-color="#E8805A"/>
</linearGradient>
<linearGradient id="paint12_linear_479_12234" x1="105.915" y1="134.522" x2="72.0156" y2="144.004" gradientUnits="userSpaceOnUse">
<stop stop-color="#F9B29A"/>
<stop offset="0.3" stop-color="#F8B097"/>
<stop offset="0.52" stop-color="#F6A88D"/>
<stop offset="0.73" stop-color="#F19B7D"/>
<stop offset="0.92" stop-color="#EB8966"/>
<stop offset="1" stop-color="#E8805A"/>
</linearGradient>
<linearGradient id="paint13_linear_479_12234" x1="76.5931" y1="108.354" x2="70.089" y2="137.437" gradientUnits="userSpaceOnUse">
<stop stop-color="#F8CF66"/>
<stop offset="1" stop-color="#FF7C1A"/>
</linearGradient>
</defs>
</svg>
