<svg width="38" height="38" viewBox="0 0 38 38" fill="none" xmlns="http://www.w3.org/2000/svg">
<g id="fi_4213445" clip-path="url(#clip0_276_3437)">
<g id="Group">
<path id="Vector" d="M2.53267 1.11343C2.53267 0.75786 2.58908 0.415352 2.69241 0.0936279C1.15112 0.456773 0 1.84262 0 3.49325V29.6713C0 28.0899 1.05937 26.7315 2.53267 26.3122V1.11343Z" fill="white"/>
<path id="Vector_2" d="M17.877 28.405H3.49338C1.81357 28.4712 1.81365 30.8716 3.49338 30.9377H18.0948C17.8787 30.1188 17.801 29.2528 17.877 28.405Z" fill="white"/>
<path id="Vector_3" d="M24.9196 19.0913C25.6218 18.6258 26.4002 18.2841 27.2151 18.0778V1.11349C27.2151 0.498546 26.7166 0 26.1016 0H5.87313C5.25819 0 4.75964 0.498546 4.75964 1.11349V26.178H18.4221C18.6043 25.7392 18.8275 25.3173 19.0908 24.9199C19.3803 23.4921 20.0901 22.1635 21.1267 21.1269C22.1632 20.0904 23.4918 19.3808 24.9196 19.0913ZM13.0127 4.75964H18.8795C20.3569 4.81851 20.3558 6.92834 18.8795 6.98662H13.0127C11.5353 6.92783 11.5364 4.81791 13.0127 4.75964ZM9.43666 13.0126C9.43666 12.3976 9.93521 11.8991 10.5502 11.8991H21.342C22.8194 11.958 22.8183 14.0678 21.342 14.1261H10.5502C9.93521 14.1261 9.43666 13.6276 9.43666 13.0126ZM18.8795 18.8858H13.0127C11.5353 18.8269 11.5364 16.7171 13.0127 16.6588H18.8795C20.3569 16.7176 20.3558 18.8274 18.8795 18.8858Z" fill="white"/>
<path id="Vector_4" d="M36.8776 25.7954C36.7433 24.628 36.2195 23.5402 35.3809 22.7016C34.5423 21.863 33.4546 21.3391 32.2872 21.2052C30.4624 19.7086 27.6199 19.7087 25.7951 21.2052C23.4467 21.4372 21.4366 23.4473 21.2047 25.7956C19.7083 27.6202 19.7083 30.4627 21.2047 32.2873C21.339 33.4547 21.8629 34.5425 22.7014 35.3811C23.54 36.2198 24.6278 36.7437 25.7951 36.8776C27.62 38.3742 30.4624 38.3741 32.2873 36.8776C33.4547 36.7435 34.5423 36.2197 35.3811 35.381C36.2198 34.5423 36.7437 33.4545 36.8777 32.2871C38.3741 30.4624 38.3741 27.62 36.8776 25.7954ZM26.0661 24.9531C26.6807 24.9531 27.1796 25.4521 27.1796 26.0666C27.1193 27.5439 25.013 27.5435 24.9526 26.0666C24.9526 25.452 25.452 24.9531 26.0661 24.9531ZM32.0157 33.1296C31.4016 33.1296 30.9022 32.6307 30.9022 32.0161C30.9628 30.5388 33.0691 30.5393 33.1292 32.0161C33.1292 32.6307 32.6303 33.1296 32.0157 33.1296ZM32.8031 26.8539L26.8535 32.8035C26.4187 33.2384 25.7136 33.2383 25.2789 32.8035C24.844 32.3686 24.844 31.6637 25.2789 31.2288L31.2284 25.2792C31.6631 24.8444 32.3682 24.8444 32.8031 25.2792C33.2379 25.714 33.2379 26.4191 32.8031 26.8539Z" fill="white"/>
</g>
</g>
<defs>
<clipPath id="clip0_276_3437">
<rect width="38" height="38" fill="white"/>
</clipPath>
</defs>
</svg>
