<svg width="200" height="59" viewBox="0 0 200 59" fill="none" xmlns="http://www.w3.org/2000/svg">
<path d="M71.8147 33.6283C71.8384 34.7202 72.1233 35.5153 72.6692 36.0138C73.2389 36.4885 74.0459 36.7259 75.0903 36.7259C77.2978 36.7259 79.2679 36.6547 81.0007 36.5123L81.9976 36.4055L82.0688 39.9303C79.3392 40.5949 76.8706 40.9273 74.6631 40.9273C71.9808 40.9273 70.0345 40.2152 68.8239 38.791C67.6133 37.3668 67.008 35.0525 67.008 31.8481C67.008 25.4629 69.6309 22.2704 74.8767 22.2704C80.0512 22.2704 82.6385 24.9526 82.6385 30.317L82.2825 33.6283H71.8147ZM77.9387 29.9966C77.9387 28.5724 77.7132 27.5874 77.2622 27.0414C76.8112 26.4717 76.016 26.1869 74.8767 26.1869C73.7611 26.1869 72.9659 26.4836 72.4912 27.077C72.0402 27.6467 71.8028 28.6199 71.7791 29.9966H77.9387ZM101.18 15.5767V40.5H96.4448V39.7523C94.7833 40.5356 93.3472 40.9273 92.1366 40.9273C89.5494 40.9273 87.7454 40.1796 86.7247 38.6842C85.7041 37.1888 85.1937 34.827 85.1937 31.5988C85.1937 28.3469 85.799 25.9851 87.0096 24.5135C88.2439 23.0181 90.0953 22.2704 92.5639 22.2704C93.3235 22.2704 94.3797 22.3891 95.7327 22.6264L96.4092 22.7688V15.5767H101.18ZM95.9107 36.2274L96.4092 36.1206V26.7566C95.1037 26.5192 93.9406 26.4005 92.9199 26.4005C90.9973 26.4005 90.036 28.1096 90.036 31.5276C90.036 33.3791 90.2496 34.6964 90.6768 35.4797C91.1041 36.263 91.8043 36.6547 92.7775 36.6547C93.7745 36.6547 94.8189 36.5123 95.9107 36.2274ZM116.092 22.6976H120.864V40.5H116.128V39.5031C114.419 40.4525 112.936 40.9273 111.678 40.9273C109.209 40.9273 107.547 40.2508 106.693 38.8978C105.838 37.5211 105.411 35.2305 105.411 32.0261V22.6976H110.182V32.0973C110.182 33.8538 110.325 35.0525 110.609 35.6934C110.894 36.3342 111.583 36.6547 112.674 36.6547C113.719 36.6547 114.704 36.4885 115.63 36.1562L116.092 36.0138V22.6976Z" fill="#722E60"/>
<path d="M130.895 26.7566V40.5H126.124V26.7566H124.201V22.6976H126.124V21.9143C126.124 19.3508 126.503 17.5824 127.263 16.6092C128.022 15.636 129.375 15.1494 131.322 15.1494C132.176 15.1494 133.28 15.2681 134.633 15.5055L135.381 15.6123L135.31 19.4932C134.265 19.4457 133.387 19.422 132.675 19.422C131.963 19.422 131.488 19.6119 131.251 19.9917C131.013 20.3715 130.895 21.0242 130.895 21.9499V22.6976H135.203V26.7566H130.895ZM137.995 40.5V22.6976H142.766V40.5H137.995ZM137.995 20.4189V15.5767H142.766V20.4189H137.995ZM151.945 40.5H147.174V22.6976H151.91V23.6946C153.524 22.7451 155.007 22.2704 156.36 22.2704C158.734 22.2704 160.372 22.9706 161.274 24.3711C162.176 25.7715 162.627 27.9315 162.627 30.8511V40.5H157.856V30.9935C157.856 29.4744 157.678 28.3588 157.322 27.6467C156.966 26.9109 156.254 26.5429 155.185 26.5429C154.212 26.5429 153.275 26.7091 152.373 27.0414L151.945 27.1838V40.5ZM181.986 15.5767V40.5H177.251V39.7523C175.589 40.5356 174.153 40.9273 172.943 40.9273C170.355 40.9273 168.551 40.1796 167.531 38.6842C166.51 37.1888 166 34.827 166 31.5988C166 28.3469 166.605 25.9851 167.816 24.5135C169.05 23.0181 170.901 22.2704 173.37 22.2704C174.129 22.2704 175.186 22.3891 176.539 22.6264L177.215 22.7688V15.5767H181.986ZM176.717 36.2274L177.215 36.1206V26.7566C175.91 26.5192 174.747 26.4005 173.726 26.4005C171.803 26.4005 170.842 28.1096 170.842 31.5276C170.842 33.3791 171.056 34.6964 171.483 35.4797C171.91 36.263 172.61 36.6547 173.584 36.6547C174.58 36.6547 175.625 36.5123 176.717 36.2274ZM186.395 40.5V22.6976H191.131V24.5847C193.124 23.3979 195.023 22.6264 196.827 22.2704V27.077C194.905 27.4805 193.255 27.8959 191.878 28.3232L191.166 28.5724V40.5H186.395Z" fill="#D96A27"/>
<path d="M76.489 49.2206L74.5888 52.8537V55.0553H73.827V52.8537L71.9184 49.2206H72.7639L74.2037 52.1756L75.6436 49.2206H76.489ZM79.9378 55.1139C79.3965 55.1139 78.9026 54.9883 78.4561 54.7372C78.0097 54.4805 77.6553 54.1261 77.393 53.6741C77.1363 53.2164 77.0079 52.703 77.0079 52.1338C77.0079 51.5645 77.1363 51.0539 77.393 50.6019C77.6553 50.1442 78.0097 49.7898 78.4561 49.5387C78.9026 49.282 79.3965 49.1536 79.9378 49.1536C80.4847 49.1536 80.9814 49.282 81.4279 49.5387C81.8743 49.7898 82.2259 50.1414 82.4826 50.5935C82.7394 51.0455 82.8677 51.559 82.8677 52.1338C82.8677 52.7086 82.7394 53.222 82.4826 53.6741C82.2259 54.1261 81.8743 54.4805 81.4279 54.7372C80.9814 54.9883 80.4847 55.1139 79.9378 55.1139ZM79.9378 54.4526C80.3452 54.4526 80.7108 54.3577 81.0344 54.168C81.3637 53.9782 81.6204 53.7075 81.8046 53.356C81.9943 53.0044 82.0892 52.597 82.0892 52.1338C82.0892 51.665 81.9943 51.2576 81.8046 50.9116C81.6204 50.56 81.3665 50.2893 81.0428 50.0996C80.7191 49.9098 80.3508 49.815 79.9378 49.815C79.5248 49.815 79.1565 49.9098 78.8328 50.0996C78.5091 50.2893 78.2524 50.56 78.0627 50.9116C77.8785 51.2576 77.7864 51.665 77.7864 52.1338C77.7864 52.597 77.8785 53.0044 78.0627 53.356C78.2524 53.7075 78.5091 53.9782 78.8328 54.168C79.1621 54.3577 79.5304 54.4526 79.9378 54.4526ZM84.6184 49.2206V52.9123C84.6184 53.4313 84.744 53.8164 84.9951 54.0675C85.2518 54.3186 85.6062 54.4442 86.0582 54.4442C86.5047 54.4442 86.8535 54.3186 87.1046 54.0675C87.3613 53.8164 87.4897 53.4313 87.4897 52.9123V49.2206H88.2515V52.9039C88.2515 53.3894 88.1538 53.7996 87.9585 54.1345C87.7632 54.4637 87.4981 54.7093 87.1632 54.8711C86.834 55.033 86.4628 55.1139 86.0499 55.1139C85.6369 55.1139 85.263 55.033 84.9281 54.8711C84.5989 54.7093 84.3366 54.4637 84.1412 54.1345C83.9515 53.7996 83.8566 53.3894 83.8566 52.9039V49.2206H84.6184ZM92.5945 55.0553L91.2049 52.6695H90.284V55.0553H89.5223V49.2206H91.4058C91.8466 49.2206 92.2178 49.296 92.5191 49.4466C92.8261 49.5973 93.0549 49.801 93.2056 50.0577C93.3562 50.3144 93.4316 50.6074 93.4316 50.9367C93.4316 51.3385 93.3144 51.6929 93.08 51.9998C92.8512 52.3068 92.5052 52.5105 92.042 52.6109L93.5069 55.0553H92.5945ZM90.284 52.0584H91.4058C91.8187 52.0584 92.1285 51.958 92.335 51.7571C92.5414 51.5506 92.6447 51.2771 92.6447 50.9367C92.6447 50.5907 92.5414 50.3228 92.335 50.1331C92.1341 49.9433 91.8243 49.8484 91.4058 49.8484H90.284V52.0584ZM100.748 50.9283C100.748 51.4139 100.581 51.8185 100.246 52.1421C99.9164 52.4602 99.4114 52.6193 98.7305 52.6193H97.6088V55.0553H96.847V49.2206H98.7305C99.389 49.2206 99.8885 49.3797 100.229 49.6978C100.575 50.0159 100.748 50.4261 100.748 50.9283ZM98.7305 51.9915C99.1546 51.9915 99.4672 51.8994 99.6681 51.7152C99.869 51.531 99.9694 51.2688 99.9694 50.9283C99.9694 50.2084 99.5565 49.8484 98.7305 49.8484H97.6088V51.9915H98.7305ZM105.144 53.7578H102.599L102.13 55.0553H101.326L103.436 49.2541H104.315L106.416 55.0553H105.612L105.144 53.7578ZM104.926 53.1383L103.871 50.1917L102.816 53.1383H104.926ZM110.927 49.2206V49.8401H109.336V55.0553H108.574V49.8401H106.975V49.2206H110.927ZM116.36 49.2206V55.0553H115.598V52.41H112.626V55.0553H111.864V49.2206H112.626V51.7822H115.598V49.2206H116.36ZM124.994 49.2206L123.303 55.0553H122.449L121.093 50.3591L119.686 55.0553L118.841 55.0637L117.208 49.2206H118.02L119.293 54.168L120.699 49.2206H121.553L122.892 54.1512L124.173 49.2206H124.994ZM129.276 53.7578H126.731L126.262 55.0553H125.459L127.568 49.2541H128.447L130.549 55.0553H129.745L129.276 53.7578ZM129.058 53.1383L128.004 50.1917L126.949 53.1383H129.058ZM135.553 49.2206L133.653 52.8537V55.0553H132.891V52.8537L130.982 49.2206H131.828L133.268 52.1756L134.708 49.2206H135.553ZM142.179 49.2206V49.8401H140.589V55.0553H139.827V49.8401H138.228V49.2206H142.179ZM145.762 55.1139C145.221 55.1139 144.727 54.9883 144.281 54.7372C143.834 54.4805 143.48 54.1261 143.218 53.6741C142.961 53.2164 142.833 52.703 142.833 52.1338C142.833 51.5645 142.961 51.0539 143.218 50.6019C143.48 50.1442 143.834 49.7898 144.281 49.5387C144.727 49.282 145.221 49.1536 145.762 49.1536C146.309 49.1536 146.806 49.282 147.253 49.5387C147.699 49.7898 148.051 50.1414 148.307 50.5935C148.564 51.0455 148.692 51.559 148.692 52.1338C148.692 52.7086 148.564 53.222 148.307 53.6741C148.051 54.1261 147.699 54.4805 147.253 54.7372C146.806 54.9883 146.309 55.1139 145.762 55.1139ZM145.762 54.4526C146.17 54.4526 146.535 54.3577 146.859 54.168C147.188 53.9782 147.445 53.7075 147.629 53.356C147.819 53.0044 147.914 52.597 147.914 52.1338C147.914 51.665 147.819 51.2576 147.629 50.9116C147.445 50.56 147.191 50.2893 146.867 50.0996C146.544 49.9098 146.175 49.815 145.762 49.815C145.349 49.815 144.981 49.9098 144.657 50.0996C144.334 50.2893 144.077 50.56 143.887 50.9116C143.703 51.2576 143.611 51.665 143.611 52.1338C143.611 52.597 143.703 53.0044 143.887 53.356C144.077 53.7075 144.334 53.9782 144.657 54.168C144.987 54.3577 145.355 54.4526 145.762 54.4526ZM152.692 49.8401V51.7906H154.818V52.4184H152.692V54.4275H155.069V55.0553H151.93V49.2122H155.069V49.8401H152.692ZM158.607 52.1421L160.399 55.0553H159.537L158.139 52.7783L156.808 55.0553H155.962L157.745 52.1421L155.954 49.2206H156.808L158.214 51.5059L159.553 49.2206H160.407L158.607 52.1421ZM161.136 52.1338C161.136 51.5645 161.265 51.0539 161.521 50.6019C161.778 50.1442 162.127 49.7871 162.568 49.5303C163.014 49.2736 163.508 49.1453 164.049 49.1453C164.686 49.1453 165.241 49.2987 165.715 49.6057C166.19 49.9126 166.536 50.3479 166.753 50.9116H165.841C165.679 50.56 165.445 50.2893 165.138 50.0996C164.836 49.9098 164.474 49.815 164.049 49.815C163.642 49.815 163.276 49.9098 162.953 50.0996C162.629 50.2893 162.375 50.56 162.191 50.9116C162.007 51.2576 161.915 51.665 161.915 52.1338C161.915 52.597 162.007 53.0044 162.191 53.356C162.375 53.702 162.629 53.9698 162.953 54.1596C163.276 54.3493 163.642 54.4442 164.049 54.4442C164.474 54.4442 164.836 54.3521 165.138 54.168C165.445 53.9782 165.679 53.7075 165.841 53.356H166.753C166.536 53.914 166.19 54.3465 165.715 54.6535C165.241 54.9548 164.686 55.1055 164.049 55.1055C163.508 55.1055 163.014 54.98 162.568 54.7288C162.127 54.4721 161.778 54.1177 161.521 53.6657C161.265 53.2136 161.136 52.703 161.136 52.1338ZM168.649 49.8401V51.7906H170.775V52.4184H168.649V54.4275H171.026V55.0553H167.887V49.2122H171.026V49.8401H168.649ZM172.941 54.4358H174.983V55.0553H172.179V49.2206H172.941V54.4358ZM176.554 54.4358H178.597V55.0553H175.792V49.2206H176.554V54.4358ZM180.168 49.8401V51.7906H182.294V52.4184H180.168V54.4275H182.545V55.0553H179.406V49.2122H182.545V49.8401H180.168ZM188.285 55.0553H187.523L184.459 50.4093V55.0553H183.698V49.2122H184.459L187.523 53.8499V49.2122H188.285V55.0553ZM189.299 52.1338C189.299 51.5645 189.427 51.0539 189.684 50.6019C189.941 50.1442 190.29 49.7871 190.73 49.5303C191.177 49.2736 191.671 49.1453 192.212 49.1453C192.848 49.1453 193.404 49.2987 193.878 49.6057C194.352 49.9126 194.698 50.3479 194.916 50.9116H194.004C193.842 50.56 193.607 50.2893 193.3 50.0996C192.999 49.9098 192.636 49.815 192.212 49.815C191.805 49.815 191.439 49.9098 191.115 50.0996C190.792 50.2893 190.538 50.56 190.354 50.9116C190.17 51.2576 190.077 51.665 190.077 52.1338C190.077 52.597 190.17 53.0044 190.354 53.356C190.538 53.702 190.792 53.9698 191.115 54.1596C191.439 54.3493 191.805 54.4442 192.212 54.4442C192.636 54.4442 192.999 54.3521 193.3 54.168C193.607 53.9782 193.842 53.7075 194.004 53.356H194.916C194.698 53.914 194.352 54.3465 193.878 54.6535C193.404 54.9548 192.848 55.1055 192.212 55.1055C191.671 55.1055 191.177 54.98 190.73 54.7288C190.29 54.4721 189.941 54.1177 189.684 53.6657C189.427 53.2136 189.299 52.703 189.299 52.1338ZM196.812 49.8401V51.7906H198.938V52.4184H196.812V54.4275H199.189V55.0553H196.05V49.2122H199.189V49.8401H196.812Z" fill="#929292"/>
<path d="M11.9056 24.0233C11.9707 24.0895 13.0662 25.2095 13.824 26.0258C13.1736 25.2788 12.5256 24.6117 11.9056 24.0233Z" fill="url(#paint0_linear_284_4053)"/>
<path d="M17.841 32.0783C17.0462 30.4386 16.1297 28.9832 15.1785 27.7069C15.4339 28.3943 15.669 29.0071 15.669 29.7894C15.669 33.4578 12.6951 36.4323 9.02607 36.4323C7.92876 36.4323 6.8935 36.1662 5.98116 35.6948C3.84382 34.5909 2.38312 32.3605 2.38312 29.7894C2.38312 26.1209 5.35702 23.1464 9.02607 23.1464C10.1007 23.1464 11.0023 23.5659 11.9003 24.0188C9.48433 21.7263 7.50093 20.6266 7.50093 20.6266C3.22863 21.4423 -6.10352e-05 25.1972 -6.10352e-05 29.707C-6.10352e-05 34.8129 4.13918 38.9515 9.24446 38.9515C13.3676 38.9515 16.8606 36.2521 18.0522 32.524L17.8404 32.0777L17.841 32.0783Z" fill="url(#paint1_linear_284_4053)"/>
<path d="M11.9016 24.0187H11.901C11.901 24.0187 11.9038 24.0214 11.9054 24.0225C11.9038 24.0209 11.9016 24.0187 11.9016 24.0187Z" fill="url(#paint2_linear_284_4053)"/>
<path d="M15.1511 27.6323L14.4518 26.7319C14.3318 26.5815 14.1003 26.3237 13.824 26.026C14.2775 26.5469 14.7322 27.1072 15.1791 27.7069C15.1702 27.6818 15.1606 27.6574 15.1517 27.6323H15.1511Z" fill="url(#paint3_linear_284_4053)"/>
<path d="M20.0826 49.2819C20.1483 46.8784 20.0701 39.6704 16.9852 36.5593C16.9076 36.4811 16.7788 36.4859 16.7077 36.5712C16.3784 36.9662 15.4171 38.0092 13.9618 38.6561C13.8174 38.7205 13.8102 38.9228 13.9516 38.9944C15.1313 39.5947 18.6362 41.9599 19.9221 49.2939C19.9388 49.3893 20.079 49.3792 20.082 49.2819H20.0826Z" fill="url(#paint4_linear_284_4053)"/>
<path d="M3.76582 27.9794L4.23721 28.1184C4.34998 28.1518 4.41383 28.2717 4.37743 28.3833C4.16441 29.0361 3.61307 31.1615 4.6346 33.2285C4.66802 33.2959 4.5815 33.3585 4.52899 33.3042C3.96213 32.7153 2.80933 31.0941 3.50268 28.1333C3.53013 28.0158 3.65066 27.9448 3.76642 27.9794H3.76582Z" fill="url(#paint5_linear_284_4053)"/>
<path d="M3.89223 27.4669L4.39345 27.6799C4.50026 27.7253 4.62318 27.6739 4.66554 27.5659L4.88333 27.0158C4.92271 26.9155 4.87856 26.8016 4.78189 26.7544L4.26814 26.5044C4.16193 26.4525 4.03364 26.5008 3.9883 26.61C3.92743 26.7568 3.84509 26.9728 3.77587 27.2199C3.74783 27.3201 3.79795 27.4257 3.89342 27.4663L3.89223 27.4669Z" fill="url(#paint6_linear_284_4053)"/>
<path d="M25.1472 50.26C29.7566 48.8243 38.9295 47.073 48.5046 51.5208C48.8137 51.6646 49.1813 51.5381 49.3334 51.2332L60.4933 28.914C60.621 28.658 60.5607 28.3477 60.3447 28.1598C59.5422 27.4628 57.2467 25.8965 52.2411 25.1817C52.1271 25.1656 52.0173 25.2336 51.9809 25.3428L51.3466 27.245C51.2983 27.3894 51.3956 27.5416 51.5465 27.5583C52.2936 27.6406 54.3552 27.9461 56.5241 28.9528C56.8446 29.1013 56.9818 29.4826 56.8266 29.8001L48.1418 47.5784C48.0034 47.8619 47.6764 47.9991 47.3775 47.8983C45.1178 47.1369 35.739 44.5538 24.9723 49.8166C24.7068 49.9467 24.8649 50.3483 25.1472 50.26Z" fill="url(#paint7_linear_284_4053)"/>
<path d="M33.9381 20.123C36.2067 19.0704 43.2089 16.519 52.5626 19.7316C52.8502 19.8306 53.0059 20.1427 52.9116 20.4321L45.3188 43.854C45.2304 44.1261 44.9506 44.2884 44.6708 44.2281C42.6265 43.7842 34.2704 42.6582 21.9649 50.1079C21.8837 50.1568 21.7972 50.0524 21.8611 49.9826C23.3629 48.3381 29.8251 42.12 43.0991 40.315C43.3139 40.2858 43.4929 40.136 43.5585 39.9296L49.1638 22.1792C49.2462 21.9179 49.128 21.635 48.8828 21.5127C47.5098 20.8247 42.7261 18.9201 34.0157 20.3718C33.8647 20.3969 33.7997 20.1886 33.9381 20.1242V20.123Z" fill="url(#paint8_linear_284_4053)"/>
<path d="M32.471 25.8141C33.659 25.1417 37.3441 23.4274 42.8044 24.3147C42.959 24.3397 43.0634 24.4865 43.0354 24.6405L42.7275 26.3112C42.6947 26.489 42.5043 26.5892 42.3396 26.5147C41.4142 26.0964 38.4188 25.0814 32.533 25.992C32.428 26.0081 32.3785 25.8666 32.471 25.8141Z" fill="url(#paint9_linear_284_4053)"/>
<path d="M31.2081 31.1121C32.3962 30.4396 36.0813 28.7254 41.5416 29.6126C41.6962 29.6377 41.8006 29.7845 41.7725 29.9384L41.4647 31.6092C41.4318 31.787 41.2415 31.8872 41.0768 31.8126C40.1513 31.3944 37.156 30.3794 31.2702 31.2899C31.1652 31.306 31.1157 31.1646 31.2081 31.1121Z" fill="url(#paint10_linear_284_4053)"/>
<path d="M29.7236 36.4096C30.9117 35.7371 34.5968 34.0228 40.0571 34.9101C40.2117 34.9352 40.3161 35.082 40.2881 35.2359L39.9802 36.9066C39.9473 37.0845 39.757 37.1847 39.5923 37.1101C38.6668 36.6918 35.6715 35.6769 29.7857 36.5874C29.6807 36.6035 29.6312 36.4621 29.7236 36.4096Z" fill="url(#paint11_linear_284_4053)"/>
<path d="M24.8787 25.9705C25.6239 23.5677 29.5728 12.5963 39.8938 11.3385C40.0495 11.3194 40.1158 11.5312 39.9755 11.6028C37.4378 12.8988 29.0358 18.1545 26.257 32.0353C26.2009 32.3163 25.8274 32.3796 25.683 32.132C24.8351 30.6766 22.3571 27.4563 15.7069 23.8081C15.6139 23.7574 15.5261 23.8827 15.6067 23.9519C18.1122 26.1048 25.4133 33.934 21.0414 49.2092C21.0145 49.3029 20.8749 49.2773 20.8838 49.18C21.2526 45.0545 21.7252 27.7737 5.08049 19.2536C4.88656 19.1545 4.94146 18.8628 5.15806 18.8401C7.53229 18.5942 15.5661 18.4564 24.378 26.1131C24.5475 26.2605 24.8124 26.1859 24.8793 25.9711L24.8787 25.9705Z" fill="url(#paint12_linear_284_4053)"/>
<path d="M21.1177 18.1641C24.0625 18.1641 26.4498 15.7768 26.4498 12.832C26.4498 9.88723 24.0625 7.5 21.1177 7.5C18.1729 7.5 15.7857 9.88723 15.7857 12.832C15.7857 15.7768 18.1729 18.1641 21.1177 18.1641Z" fill="url(#paint13_linear_284_4053)"/>
<defs>
<linearGradient id="paint0_linear_284_4053" x1="11.9056" y1="25.0246" x2="13.8234" y2="25.0246" gradientUnits="userSpaceOnUse">
<stop stop-color="#A04A9C"/>
<stop offset="0.09" stop-color="#9A4594"/>
<stop offset="0.54" stop-color="#812F70"/>
<stop offset="0.81" stop-color="#722E60"/>
<stop offset="0.95" stop-color="#6F2C5D"/>
<stop offset="1" stop-color="#6B2B5A"/>
</linearGradient>
<linearGradient id="paint1_linear_284_4053" x1="0.000535655" y1="29.7894" x2="18.0528" y2="29.7894" gradientUnits="userSpaceOnUse">
<stop stop-color="#A04A9C"/>
<stop offset="0.09" stop-color="#9A4594"/>
<stop offset="0.54" stop-color="#812F70"/>
<stop offset="0.81" stop-color="#722E60"/>
<stop offset="0.95" stop-color="#6F2C5D"/>
<stop offset="1" stop-color="#6B2B5A"/>
</linearGradient>
<linearGradient id="paint2_linear_284_4053" x1="11.9005" y1="24.0209" x2="11.9054" y2="24.0209" gradientUnits="userSpaceOnUse">
<stop stop-color="#A04A9C"/>
<stop offset="0.09" stop-color="#9A4594"/>
<stop offset="0.54" stop-color="#812F70"/>
<stop offset="0.81" stop-color="#722E60"/>
<stop offset="0.95" stop-color="#6F2C5D"/>
<stop offset="1" stop-color="#6B2B5A"/>
</linearGradient>
<linearGradient id="paint3_linear_284_4053" x1="13.8234" y1="26.8661" x2="15.1785" y2="26.8661" gradientUnits="userSpaceOnUse">
<stop stop-color="#A04A9C"/>
<stop offset="0.09" stop-color="#9A4594"/>
<stop offset="0.54" stop-color="#812F70"/>
<stop offset="0.81" stop-color="#722E60"/>
<stop offset="0.95" stop-color="#6F2C5D"/>
<stop offset="1" stop-color="#6B2B5A"/>
</linearGradient>
<linearGradient id="paint4_linear_284_4053" x1="13.8502" y1="42.9325" x2="20.0952" y2="42.9325" gradientUnits="userSpaceOnUse">
<stop stop-color="#A04A9C"/>
<stop offset="0.09" stop-color="#9A4594"/>
<stop offset="0.54" stop-color="#812F70"/>
<stop offset="0.81" stop-color="#722E60"/>
<stop offset="0.95" stop-color="#6F2C5D"/>
<stop offset="1" stop-color="#6B2B5A"/>
</linearGradient>
<linearGradient id="paint5_linear_284_4053" x1="3.28668" y1="30.6478" x2="4.64176" y2="30.6478" gradientUnits="userSpaceOnUse">
<stop stop-color="#A04A9C"/>
<stop offset="0.09" stop-color="#9A4594"/>
<stop offset="0.54" stop-color="#812F70"/>
<stop offset="0.81" stop-color="#722E60"/>
<stop offset="0.95" stop-color="#6F2C5D"/>
<stop offset="1" stop-color="#6B2B5A"/>
</linearGradient>
<linearGradient id="paint6_linear_284_4053" x1="3.76692" y1="27.091" x2="4.89765" y2="27.091" gradientUnits="userSpaceOnUse">
<stop stop-color="#A04A9C"/>
<stop offset="0.09" stop-color="#9A4594"/>
<stop offset="0.54" stop-color="#812F70"/>
<stop offset="0.81" stop-color="#722E60"/>
<stop offset="0.95" stop-color="#6F2C5D"/>
<stop offset="1" stop-color="#6B2B5A"/>
</linearGradient>
<linearGradient id="paint7_linear_284_4053" x1="24.8363" y1="38.3799" x2="60.5595" y2="38.3799" gradientUnits="userSpaceOnUse">
<stop stop-color="#5BBCEB"/>
<stop offset="0.02" stop-color="#40B4E4"/>
<stop offset="0.05" stop-color="#29ADDD"/>
<stop offset="0.08" stop-color="#16A7D9"/>
<stop offset="0.12" stop-color="#09A3D5"/>
<stop offset="0.17" stop-color="#02A1D3"/>
<stop offset="0.28" stop-color="#00A1D3"/>
<stop offset="0.55" stop-color="#0B9BD0"/>
<stop offset="0.61" stop-color="#178EC8"/>
<stop offset="0.72" stop-color="#297DBE"/>
<stop offset="0.79" stop-color="#3077BB"/>
<stop offset="1" stop-color="#1552A0"/>
</linearGradient>
<linearGradient id="paint8_linear_284_4053" x1="21.839" y1="34.1417" x2="52.9391" y2="34.1417" gradientUnits="userSpaceOnUse">
<stop stop-color="#5BBCEB"/>
<stop offset="0.02" stop-color="#40B4E4"/>
<stop offset="0.05" stop-color="#29ADDD"/>
<stop offset="0.08" stop-color="#16A7D9"/>
<stop offset="0.12" stop-color="#09A3D5"/>
<stop offset="0.17" stop-color="#02A1D3"/>
<stop offset="0.28" stop-color="#00A1D3"/>
<stop offset="0.55" stop-color="#0B9BD0"/>
<stop offset="0.61" stop-color="#178EC8"/>
<stop offset="0.72" stop-color="#297DBE"/>
<stop offset="0.79" stop-color="#3077BB"/>
<stop offset="1" stop-color="#1552A0"/>
</linearGradient>
<linearGradient id="paint9_linear_284_4053" x1="32.422" y1="25.3022" x2="43.0395" y2="25.3022" gradientUnits="userSpaceOnUse">
<stop stop-color="#5BBCEB"/>
<stop offset="0.02" stop-color="#40B4E4"/>
<stop offset="0.05" stop-color="#29ADDD"/>
<stop offset="0.08" stop-color="#16A7D9"/>
<stop offset="0.12" stop-color="#09A3D5"/>
<stop offset="0.17" stop-color="#02A1D3"/>
<stop offset="0.28" stop-color="#00A1D3"/>
<stop offset="0.55" stop-color="#0B9BD0"/>
<stop offset="0.61" stop-color="#178EC8"/>
<stop offset="0.72" stop-color="#297DBE"/>
<stop offset="0.79" stop-color="#3077BB"/>
<stop offset="1" stop-color="#1552A0"/>
</linearGradient>
<linearGradient id="paint10_linear_284_4053" x1="31.1598" y1="30.6002" x2="41.7767" y2="30.6002" gradientUnits="userSpaceOnUse">
<stop stop-color="#5BBCEB"/>
<stop offset="0.02" stop-color="#40B4E4"/>
<stop offset="0.05" stop-color="#29ADDD"/>
<stop offset="0.08" stop-color="#16A7D9"/>
<stop offset="0.12" stop-color="#09A3D5"/>
<stop offset="0.17" stop-color="#02A1D3"/>
<stop offset="0.28" stop-color="#00A1D3"/>
<stop offset="0.55" stop-color="#0B9BD0"/>
<stop offset="0.61" stop-color="#178EC8"/>
<stop offset="0.72" stop-color="#297DBE"/>
<stop offset="0.79" stop-color="#3077BB"/>
<stop offset="1" stop-color="#1552A0"/>
</linearGradient>
<linearGradient id="paint11_linear_284_4053" x1="29.6753" y1="35.8982" x2="40.2922" y2="35.8982" gradientUnits="userSpaceOnUse">
<stop stop-color="#5BBCEB"/>
<stop offset="0.02" stop-color="#40B4E4"/>
<stop offset="0.05" stop-color="#29ADDD"/>
<stop offset="0.08" stop-color="#16A7D9"/>
<stop offset="0.12" stop-color="#09A3D5"/>
<stop offset="0.17" stop-color="#02A1D3"/>
<stop offset="0.28" stop-color="#00A1D3"/>
<stop offset="0.55" stop-color="#0B9BD0"/>
<stop offset="0.61" stop-color="#178EC8"/>
<stop offset="0.72" stop-color="#297DBE"/>
<stop offset="0.79" stop-color="#3077BB"/>
<stop offset="1" stop-color="#1552A0"/>
</linearGradient>
<linearGradient id="paint12_linear_284_4053" x1="4.96115" y1="30.3019" x2="40.0525" y2="30.3019" gradientUnits="userSpaceOnUse">
<stop stop-color="#EEEA5B"/>
<stop offset="0.37" stop-color="#F0C23D"/>
<stop offset="0.53" stop-color="#F09F2E"/>
<stop offset="0.68" stop-color="#F18322"/>
<stop offset="0.85" stop-color="#DE7025"/>
<stop offset="1" stop-color="#D26328"/>
</linearGradient>
<linearGradient id="paint13_linear_284_4053" x1="15.7857" y1="12.832" x2="26.4498" y2="12.832" gradientUnits="userSpaceOnUse">
<stop stop-color="#EEEA5B"/>
<stop offset="0.37" stop-color="#F0C23D"/>
<stop offset="0.53" stop-color="#F09F2E"/>
<stop offset="0.68" stop-color="#F18322"/>
<stop offset="0.85" stop-color="#DE7025"/>
<stop offset="1" stop-color="#D26328"/>
</linearGradient>
</defs>
</svg>
