<svg width="42" height="42" viewBox="0 0 42 42" fill="none" xmlns="http://www.w3.org/2000/svg">
<g id="fi_3427751">
<g id="Group">
<path id="Vector" d="M34.9794 9.04643C31.9498 5.9125 28.0287 3.91972 23.7732 3.31351L24.9861 2.10059C25.4667 1.62005 25.4667 0.841004 24.9861 0.360465C24.5057 -0.119992 23.7266 -0.119992 23.246 0.360465L20.1299 3.4765C19.6494 3.95696 19.6494 4.73609 20.1299 5.21663L23.2459 8.33267C23.4862 8.57294 23.8011 8.69312 24.116 8.69312C24.4308 8.69312 24.7458 8.57294 24.986 8.33267C25.4665 7.85221 25.4665 7.07308 24.986 6.59254L24.2891 5.89569C27.6699 6.55727 30.7706 8.2335 33.2099 10.7568C36.2865 13.9393 37.9809 18.1304 37.9809 22.558C37.981 31.9214 30.3633 39.5391 21 39.5391C11.6367 39.5391 4.01896 31.9214 4.01896 22.5581C4.01896 18.9852 5.11547 15.5675 7.19004 12.6744C9.22154 9.84131 12.0221 7.72728 15.2892 6.56096C15.9292 6.33242 16.2627 5.62843 16.0342 4.98834C15.8058 4.34833 15.1016 4.01479 14.4616 4.24325C10.7207 5.5788 7.51472 7.99839 5.19004 11.2404C2.81392 14.5541 1.55802 18.4677 1.55802 22.5582C1.55802 27.7514 3.58034 32.6336 7.25247 36.3057C10.9246 39.9776 15.8069 42 21 42C26.1932 42 31.0754 39.9777 34.7475 36.3057C38.4197 32.6335 40.442 27.7513 40.442 22.5581C40.442 17.4888 38.5019 12.6902 34.9794 9.04643Z" fill="#FFF5FC"/>
<path id="Vector_2" d="M8.35767 22.5582C8.35767 29.5291 14.029 35.2004 21 35.2004C27.9709 35.2004 33.6423 29.5291 33.6423 22.5582C33.6423 15.5872 27.9709 9.91577 21 9.91577C14.0289 9.91577 8.35767 15.5872 8.35767 22.5582ZM21.7553 23.6534C19.9841 23.0272 18.9579 22.5337 18.2134 21.9498C17.2971 21.2311 16.8777 19.9899 17.1187 18.7106C17.3802 17.3228 18.348 16.218 19.6445 15.8274C19.6625 15.822 19.6801 15.8177 19.698 15.8124V15.317C19.698 14.6374 20.2489 14.0865 20.9285 14.0865C21.608 14.0865 22.1589 14.6374 22.1589 15.317V15.7341C23.0181 15.9353 23.6177 16.328 23.8601 16.5092C24.4044 16.9162 24.5158 17.6872 24.1089 18.2315C23.7019 18.7759 22.9311 18.8871 22.3866 18.4803C22.126 18.2856 21.407 17.8666 20.3543 18.1837C19.7325 18.3711 19.5716 18.9831 19.5371 19.1663C19.4689 19.528 19.5472 19.8685 19.732 20.0134C20.3757 20.5181 21.5306 20.9638 22.5754 21.3331C24.4867 22.0087 25.5495 23.7794 25.2201 25.739C25.0583 26.7012 24.5744 27.5939 23.8571 28.253C23.3638 28.7061 22.789 29.0283 22.1589 29.2101V29.7992C22.1589 30.4788 21.608 31.0297 20.9285 31.0297C20.2489 31.0297 19.698 30.4788 19.698 29.7992V29.3311C18.8794 29.2349 18.1963 28.9828 17.2777 28.3818C16.7089 28.0098 16.5496 27.2472 16.9216 26.6784C17.2936 26.1096 18.0563 25.9503 18.625 26.3224C19.4767 26.8796 19.7987 26.9308 20.9203 26.923C22.0245 26.9156 22.6652 26.0926 22.7932 25.331C22.8559 24.9591 22.8799 24.0509 21.7553 23.6534Z" fill="#FFF5FC"/>
</g>
</g>
</svg>
