<svg width="24" height="25" viewBox="0 0 24 25" fill="none" xmlns="http://www.w3.org/2000/svg">
<g clip-path="url(#clip0_289_7926)">
<path d="M4 18.095H20C20.55 18.095 21 17.645 21 17.095C21 16.545 20.55 16.095 20 16.095H4C3.45 16.095 3 16.545 3 17.095C3 17.645 3.45 18.095 4 18.095ZM4 13.095H20C20.55 13.095 21 12.645 21 12.095C21 11.545 20.55 11.095 20 11.095H4C3.45 11.095 3 11.545 3 12.095C3 12.645 3.45 13.095 4 13.095ZM3 7.09497C3 7.64497 3.45 8.09497 4 8.09497H20C20.55 8.09497 21 7.64497 21 7.09497C21 6.54497 20.55 6.09497 20 6.09497H4C3.45 6.09497 3 6.54497 3 7.09497Z" fill="#212121"/>
</g>
<defs>
<clipPath id="clip0_289_7926">
<rect width="24" height="24" fill="white" transform="translate(0 0.0949707)"/>
</clipPath>
</defs>
</svg>
