<svg width="29" height="29" viewBox="0 0 29 29" fill="none" xmlns="http://www.w3.org/2000/svg">
<g id="fi_1384015" clip-path="url(#clip0_541_629)">
<path id="Vector" d="M17.2754 14.5C17.2754 16.0328 16.0328 17.2754 14.5 17.2754C12.9672 17.2754 11.7246 16.0328 11.7246 14.5C11.7246 12.9672 12.9672 11.7246 14.5 11.7246C16.0328 11.7246 17.2754 12.9672 17.2754 14.5Z" fill="#722E60"/>
<path id="Vector_2" d="M20.9907 9.58945C20.8572 9.22793 20.6444 8.9007 20.3678 8.6321C20.0992 8.35553 19.7722 8.14268 19.4105 8.00927C19.1171 7.89532 18.6764 7.7597 17.8646 7.72275C16.9864 7.6827 16.7231 7.67407 14.5 7.67407C12.2766 7.67407 12.0133 7.68248 11.1354 7.72253C10.3236 7.7597 9.88268 7.89532 9.58952 8.00927C9.22778 8.14268 8.90054 8.35553 8.63216 8.6321C8.3556 8.9007 8.14275 9.22771 8.00912 9.58945C7.89517 9.88284 7.75954 10.3238 7.7226 11.1356C7.68255 12.0135 7.67392 12.2768 7.67392 14.5002C7.67392 16.7233 7.68255 16.9866 7.7226 17.8647C7.75954 18.6765 7.89517 19.1172 8.00912 19.4106C8.14275 19.7724 8.35538 20.0994 8.63194 20.368C8.90054 20.6446 9.22755 20.8574 9.5893 20.9908C9.88268 21.105 10.3236 21.2406 11.1354 21.2776C12.0133 21.3176 12.2764 21.326 14.4998 21.326C16.7234 21.326 16.9867 21.3176 17.8644 21.2776C18.6761 21.2406 19.1171 21.105 19.4105 20.9908C20.1366 20.7107 20.7106 20.1368 20.9907 19.4106C21.1046 19.1172 21.2402 18.6765 21.2774 17.8647C21.3175 16.9866 21.3259 16.7233 21.3259 14.5002C21.3259 12.2768 21.3175 12.0135 21.2774 11.1356C21.2405 10.3238 21.1048 9.88284 20.9907 9.58945ZM14.5 18.7754C12.1386 18.7754 10.2243 16.8614 10.2243 14.4999C10.2243 12.1385 12.1386 10.2244 14.5 10.2244C16.8612 10.2244 18.7755 12.1385 18.7755 14.4999C18.7755 16.8614 16.8612 18.7754 14.5 18.7754ZM18.9445 11.0546C18.3927 11.0546 17.9453 10.6072 17.9453 10.0554C17.9453 9.50361 18.3927 9.05624 18.9445 9.05624C19.4963 9.05624 19.9437 9.50361 19.9437 10.0554C19.9435 10.6072 19.4963 11.0546 18.9445 11.0546Z" fill="#722E60"/>
<path id="Vector_3" d="M14.5 0C6.4931 0 0 6.4931 0 14.5C0 22.5069 6.4931 29 14.5 29C22.5069 29 29 22.5069 29 14.5C29 6.4931 22.5069 0 14.5 0ZM22.7759 17.9327C22.7357 18.8191 22.5947 19.4242 22.389 19.9539C21.9564 21.0723 21.0723 21.9564 19.9539 22.389C19.4244 22.5947 18.8191 22.7355 17.933 22.7759C17.0451 22.8164 16.7614 22.8262 14.5002 22.8262C12.2388 22.8262 11.9554 22.8164 11.0673 22.7759C10.1812 22.7355 9.57581 22.5947 9.04635 22.389C8.49056 22.1799 7.98743 21.8522 7.57148 21.4285C7.148 21.0128 6.82033 20.5094 6.61124 19.9539C6.40548 19.4244 6.26454 18.8191 6.22427 17.933C6.18334 17.0448 6.17383 16.7612 6.17383 14.5C6.17383 12.2388 6.18334 11.9552 6.22405 11.0673C6.26432 10.1809 6.40504 9.57581 6.6108 9.04613C6.81989 8.49056 7.14778 7.98721 7.57148 7.57148C7.98721 7.14778 8.49056 6.82011 9.04613 6.61102C9.57581 6.40526 10.1809 6.26454 11.0673 6.22405C11.9552 6.18356 12.2388 6.17383 14.5 6.17383C16.7612 6.17383 17.0448 6.18356 17.9327 6.22427C18.8191 6.26454 19.4242 6.40526 19.9539 6.6108C20.5094 6.81989 21.0128 7.14778 21.4287 7.57148C21.8522 7.98743 22.1801 8.49056 22.389 9.04613C22.595 9.57581 22.7357 10.1809 22.7762 11.0673C22.8167 11.9552 22.8262 12.2388 22.8262 14.5C22.8262 16.7612 22.8167 17.0448 22.7759 17.9327Z" fill="#722E60"/>
</g>
<defs>
<clipPath id="clip0_541_629">
<rect width="29" height="29" fill="white"/>
</clipPath>
</defs>
</svg>
