<svg width="12" height="12" viewBox="0 0 12 12" fill="none" xmlns="http://www.w3.org/2000/svg">
<path d="M6 1C4.9395 1.00119 3.92278 1.423 3.17289 2.17289C2.423 2.92278 2.00119 3.9395 2 5C2 6.6275 3.1815 7.979 4.433 9.4095C4.829 9.8625 5.239 10.331 5.604 10.805C5.65071 10.8656 5.7107 10.9147 5.77935 10.9484C5.84801 10.9822 5.92349 10.9997 6 10.9997C6.07651 10.9997 6.15199 10.9822 6.22065 10.9484C6.2893 10.9147 6.34929 10.8656 6.396 10.805C6.761 10.331 7.171 9.8625 7.567 9.4095C8.8185 7.979 10 6.6275 10 5C9.99881 3.9395 9.577 2.92278 8.82711 2.17289C8.07722 1.423 7.0605 1.00119 6 1ZM6 6.5C5.70333 6.5 5.41332 6.41203 5.16664 6.2472C4.91997 6.08238 4.72771 5.84811 4.61418 5.57403C4.50065 5.29994 4.47094 4.99834 4.52882 4.70736C4.5867 4.41639 4.72956 4.14912 4.93934 3.93934C5.14912 3.72956 5.41639 3.5867 5.70736 3.52882C5.99834 3.47094 6.29994 3.50065 6.57403 3.61418C6.84811 3.72771 7.08238 3.91997 7.2472 4.16664C7.41203 4.41332 7.5 4.70333 7.5 5C7.5 5.39782 7.34196 5.77936 7.06066 6.06066C6.77936 6.34196 6.39782 6.5 6 6.5Z" fill="#722E60"/>
</svg>
