<svg width="61" height="45" viewBox="0 0 61 45" fill="none" xmlns="http://www.w3.org/2000/svg">
<g id="Group">
<g id="Group_2">
<g id="Group_3">
<path id="Vector" d="M11.9336 16.5645C11.9988 16.6307 13.0969 17.7506 13.8564 18.5669C13.2045 17.8199 12.555 17.1528 11.9336 16.5645Z" fill="black"/>
<path id="Vector_2" d="M17.8827 24.6191C17.086 22.9795 16.1674 21.5242 15.214 20.2479C15.47 20.9352 15.7057 21.548 15.7057 22.3303C15.7057 25.9986 12.7248 28.9731 9.0472 28.9731C7.94733 28.9731 6.90965 28.7069 5.99518 28.2356C3.85285 27.1317 2.38874 24.9013 2.38874 22.3303C2.38874 18.6619 5.36959 15.6875 9.0472 15.6875C10.1243 15.6875 11.028 16.1069 11.9282 16.5598C9.50653 14.2674 7.5185 13.1677 7.5185 13.1677C3.23623 13.9834 0 17.7383 0 22.2479C0 27.3537 4.1489 31.4922 9.2661 31.4922C13.3989 31.4922 16.9 28.7929 18.0944 25.0648L17.8821 24.6185L17.8827 24.6191Z" fill="black"/>
<path id="Vector_3" d="M11.9294 16.5598H11.9287C11.9287 16.5598 11.932 16.5631 11.9339 16.5644C11.932 16.5624 11.9294 16.5598 11.9294 16.5598Z" fill="black"/>
<path id="Vector_4" d="M15.1866 20.1734L14.4856 19.273C14.3654 19.1226 14.1334 18.8649 13.8564 18.5671C14.311 19.088 14.7667 19.6483 15.2147 20.248C15.2057 20.2229 15.1962 20.1985 15.1872 20.1734H15.1866Z" fill="black"/>
</g>
<path id="Vector_5" d="M20.1296 41.8225C20.1954 39.4191 20.117 32.2112 17.0249 29.1002C16.9472 29.022 16.818 29.0268 16.7468 29.1121C16.4167 29.5071 15.4532 30.5501 13.9944 31.1969C13.8497 31.2613 13.8425 31.4636 13.9843 31.5352C15.1667 32.1355 18.6798 34.5007 19.9687 41.8344C19.9854 41.9299 20.126 41.9197 20.129 41.8225H20.1296Z" fill="black"/>
<path id="Vector_6" d="M3.77463 20.5205L4.24711 20.6595C4.36015 20.6929 4.42415 20.8129 4.38766 20.9245C4.17415 21.5772 3.62152 23.7026 4.64544 25.7695C4.67893 25.8369 4.59221 25.8995 4.53958 25.8452C3.9714 25.2563 2.8159 23.6351 3.51087 20.6744C3.53839 20.5569 3.6592 20.4859 3.77523 20.5205H3.77463Z" fill="black"/>
<path id="Vector_7" d="M3.90174 20.008L4.40412 20.221C4.51118 20.2664 4.63439 20.215 4.67685 20.107L4.89515 19.5569C4.93462 19.4567 4.89037 19.3427 4.79348 19.2956L4.27853 19.0456C4.17207 18.9937 4.04348 19.042 3.99803 19.1512C3.93702 19.298 3.85449 19.514 3.78511 19.761C3.757 19.8612 3.80724 19.9668 3.90293 20.0074L3.90174 20.008Z" fill="black"/>
</g>
<path id="Vector_8" d="M25.2042 42.8005C29.8244 41.3649 39.0187 39.6136 48.6161 44.0612C48.9259 44.205 49.2943 44.0786 49.4469 43.7736L60.6328 21.455C60.7608 21.199 60.7004 20.8888 60.4839 20.7008C59.6795 20.0039 57.3786 18.4376 52.3613 17.7228C52.2471 17.7067 52.137 17.7747 52.1005 17.8839L51.4648 19.7861C51.4163 19.9305 51.5138 20.0827 51.6651 20.0994C52.4139 20.1817 54.4803 20.4872 56.6544 21.4938C56.9755 21.6424 57.1131 22.0236 56.9576 22.3411L48.2525 40.119C48.1137 40.4024 47.786 40.5397 47.4863 40.4388C45.2214 39.6775 35.8207 37.0945 25.0289 42.3571C24.7628 42.4872 24.9213 42.8888 25.2042 42.8005Z" fill="black"/>
<g id="Group_4">
<path id="Vector_9" d="M34.0161 12.6641C36.29 11.6116 43.3085 9.06018 52.684 12.2727C52.9723 12.3717 53.1284 12.6838 53.0339 12.9732L45.4233 36.3945C45.3348 36.6666 45.0543 36.8288 44.7738 36.7686C42.7247 36.3247 34.3492 35.1987 22.0149 42.6482C21.9336 42.6971 21.8469 42.5927 21.9109 42.5229C23.4162 40.8785 29.8935 34.6605 43.1984 32.8556C43.4137 32.8263 43.5932 32.6766 43.659 32.4701L49.2773 14.7202C49.3599 14.4589 49.2415 14.1761 48.9956 14.0538C47.6195 13.3658 42.8246 11.4612 34.0938 12.9129C33.9425 12.938 33.8773 12.7297 34.0161 12.6653V12.6641Z" fill="black"/>
<path id="Vector_10" d="M32.5449 18.3552C33.7357 17.6828 37.4295 15.9685 42.9025 16.8558C43.0574 16.8808 43.1621 17.0276 43.134 17.1816L42.8254 18.8523C42.7925 19.0301 42.6017 19.1303 42.4366 19.0557C41.509 18.6375 38.5066 17.6225 32.6071 18.533C32.5019 18.5492 32.4522 18.4077 32.5449 18.3552Z" fill="black"/>
<path id="Vector_11" d="M31.2803 23.6531C32.4711 22.9806 36.1648 21.2664 41.6379 22.1536C41.7928 22.1787 41.8975 22.3255 41.8693 22.4794L41.5607 24.1501C41.5278 24.3279 41.337 24.4282 41.172 24.3536C40.2443 23.9353 37.242 22.9204 31.3425 23.8309C31.2372 23.847 31.1876 23.7056 31.2803 23.6531Z" fill="black"/>
<path id="Vector_12" d="M29.792 28.9504C30.9828 28.278 34.6765 26.5637 40.1496 27.451C40.3045 27.4761 40.4092 27.6228 40.3811 27.7768L40.0724 29.4475C40.0396 29.6253 39.8488 29.7255 39.6837 29.6509C38.7561 29.2327 35.7537 28.2177 29.8542 29.1283C29.7489 29.1444 29.6993 29.003 29.792 28.9504Z" fill="black"/>
</g>
<g id="Group_5">
<path id="Vector_13" d="M24.9355 18.5115C25.6825 16.1087 29.6406 5.13767 39.9856 3.87987C40.1417 3.86078 40.2081 4.0726 40.0676 4.1442C37.5239 5.44018 29.1023 10.6957 26.317 24.5761C26.2608 24.8572 25.8864 24.9204 25.7417 24.6728C24.8918 23.2175 22.408 19.9973 15.7423 16.3492C15.649 16.2985 15.5611 16.4238 15.6419 16.493C18.1532 18.6458 25.4714 26.4748 21.0892 41.7497C21.0623 41.8433 20.9223 41.8177 20.9313 41.7204C21.3009 37.595 21.7746 20.3147 5.09108 11.7948C4.8967 11.6957 4.95173 11.4039 5.16883 11.3813C7.5486 11.1354 15.6012 10.9976 24.4337 18.6541C24.6035 18.8015 24.8691 18.7269 24.9361 18.5121L24.9355 18.5115Z" fill="black"/>
<path id="Vector_14" d="M21.1658 10.7053C24.1174 10.7053 26.5102 8.31811 26.5102 5.37339C26.5102 2.42867 24.1174 0.0415039 21.1658 0.0415039C18.2141 0.0415039 15.8213 2.42867 15.8213 5.37339C15.8213 8.31811 18.2141 10.7053 21.1658 10.7053Z" fill="black"/>
</g>
</g>
</svg>
