<svg width="10" height="10" viewBox="0 0 10 10" fill="none" xmlns="http://www.w3.org/2000/svg">
<path d="M8.66228 5.5C8.56228 5.5 8.46228 5.45 8.31228 5.45C8.11228 5.4 7.86228 5.35 7.66228 5.25C7.16228 5.1 6.66228 5.3 6.41228 5.75L6.31228 6C5.31228 5.45 4.51228 4.65 3.96228 3.65L4.21228 3.5C4.66228 3.3 4.91228 2.75 4.71228 2.25C4.61228 2.05 4.56228 1.8 4.51228 1.6C4.51228 1.5 4.46228 1.4 4.46228 1.25C4.36228 0.55 3.71228 0 2.96228 0H1.46228C1.01228 0 0.612278 0.2 0.362278 0.5C0.0622777 0.85 -0.0377223 1.3 0.0122777 1.75C0.262278 3.85 1.21228 5.75 2.71228 7.25C4.21228 8.75 6.16228 9.7 8.21228 9.95C8.66228 10 9.06228 9.85 9.41228 9.6C9.71228 9.3 9.91228 8.9 9.91228 8.5V7C9.91228 6.2 9.41228 5.6 8.66228 5.5Z" fill="#722E60"/>
</svg>
