<svg width="41" height="41" viewBox="0 0 41 41" fill="none" xmlns="http://www.w3.org/2000/svg">
<g id="fi_5404897">
<g id="Book">
<path id="Vector" d="M37.5833 8.54163V27.3333C37.5833 28.0129 37.3134 28.6647 36.8328 29.1453C36.3522 29.6258 35.7004 29.8958 35.0208 29.8958C32.6065 29.9563 30.2019 30.2252 27.8339 30.6996C25.7835 31.1119 23.8761 32.0516 22.2997 33.4261C21.8187 33.9018 21.169 34.168 20.4924 34.1665C19.8159 34.1651 19.1673 33.8962 18.6883 33.4184C17.1105 32.0526 15.2075 31.1163 13.1627 30.6996C10.7958 30.2254 8.39235 29.9564 5.97916 29.8958C5.29954 29.8958 4.64776 29.6258 4.1672 29.1453C3.68664 28.6647 3.41666 28.0129 3.41666 27.3333V8.54163C2.96358 8.54163 2.52906 8.72161 2.20869 9.04199C1.88831 9.36236 1.70833 9.79688 1.70833 10.25V29.9564C1.7098 30.3851 1.87181 30.7977 2.16241 31.1128C2.45302 31.4279 2.85115 31.6227 3.27829 31.6588C4.76027 31.775 7.61745 32.0312 10.1116 32.4463C12.6066 32.811 14.9693 33.7993 16.9808 35.3198C17.433 35.6805 17.9946 35.8764 18.573 35.875H22.427C23.0052 35.8761 23.5667 35.6806 24.0192 35.3206C26.0311 33.7991 28.3948 32.8104 30.8909 32.4463C33.3825 32.0312 36.2397 31.775 37.7243 31.6588C38.151 31.6221 38.5484 31.427 38.8385 31.112C39.1286 30.7969 39.2903 30.3847 39.2917 29.9564V10.25C39.2917 9.79688 39.1117 9.36236 38.7913 9.04199C38.4709 8.72161 38.0364 8.54163 37.5833 8.54163Z" fill="#FFF5FC"/>
<path id="Vector_2" d="M35.0208 5.125C32.3806 5.17951 29.7506 5.47109 27.1625 5.99625C24.725 6.48938 22.4407 7.55802 20.5 9.1131C18.5593 7.55802 16.275 6.48938 13.8375 5.99625C11.2494 5.47109 8.61942 5.17951 5.97917 5.125C5.75263 5.125 5.53537 5.21499 5.37518 5.37518C5.21499 5.53537 5.125 5.75263 5.125 5.97917V27.3333C5.125 27.5599 5.21499 27.7771 5.37518 27.9373C5.53537 28.0975 5.75263 28.1875 5.97917 28.1875C8.50436 28.2465 11.0195 28.5266 13.4958 29.0246C15.8726 29.5011 18.0804 30.6 19.8935 32.2089C20.0537 32.3688 20.2707 32.4586 20.497 32.4586C20.7233 32.4586 20.9403 32.3688 21.1005 32.2089C22.912 30.5941 25.1233 29.4945 27.5042 29.0246C29.9805 28.5266 32.4956 28.2465 35.0208 28.1875C35.2474 28.1875 35.4646 28.0975 35.6248 27.9373C35.785 27.7771 35.875 27.5599 35.875 27.3333V5.97917C35.875 5.75263 35.785 5.53537 35.6248 5.37518C35.4646 5.21499 35.2474 5.125 35.0208 5.125ZM17.8521 25.432C17.8034 25.533 17.7353 25.6235 17.6516 25.6983C17.568 25.773 17.4704 25.8306 17.3646 25.8676C17.2587 25.9046 17.1465 25.9205 17.0345 25.9142C16.9225 25.9079 16.8128 25.8795 16.7118 25.8309C15.6887 25.3395 14.6084 24.9777 13.4958 24.7537C12.1796 24.4907 10.7693 24.2788 9.31042 24.1259C9.08501 24.1024 8.8782 23.9902 8.73547 23.8142C8.59274 23.6381 8.52579 23.4126 8.54935 23.1872C8.57291 22.9618 8.68505 22.755 8.8611 22.6123C9.03714 22.4695 9.26268 22.4026 9.48808 22.4261C11.0034 22.585 12.4674 22.8045 13.8375 23.0796C15.0899 23.3313 16.306 23.7384 17.4575 24.2916C17.6608 24.3907 17.8166 24.5664 17.8906 24.7802C17.9646 24.994 17.9507 25.2284 17.8521 25.432ZM17.8521 21.1611C17.8034 21.2622 17.7353 21.3527 17.6516 21.4274C17.568 21.5022 17.4704 21.5597 17.3646 21.5968C17.2587 21.6338 17.1465 21.6496 17.0345 21.6433C16.9225 21.637 16.8128 21.6087 16.7118 21.56C15.6887 21.0687 14.6084 20.7068 13.4958 20.4829C12.1796 20.2198 10.7693 20.008 9.31042 19.8551C9.19881 19.8434 9.09059 19.8099 8.99194 19.7564C8.89329 19.7029 8.80614 19.6305 8.73547 19.5434C8.6648 19.4562 8.61199 19.356 8.58005 19.2484C8.54812 19.1408 8.53769 19.028 8.54935 18.9164C8.56102 18.8048 8.59456 18.6965 8.64804 18.5979C8.70153 18.4992 8.77393 18.4121 8.8611 18.3414C8.94827 18.2708 9.0485 18.2179 9.15608 18.186C9.26366 18.1541 9.37647 18.1436 9.48808 18.1553C11.0034 18.3142 12.4674 18.5337 13.8375 18.8088C15.0899 19.0604 16.306 19.4676 17.4575 20.0208C17.6608 20.1199 17.8166 20.2956 17.8906 20.5094C17.9646 20.7231 17.9507 20.9575 17.8521 21.1611ZM17.8521 16.8903C17.8034 16.9914 17.7353 17.0819 17.6516 17.1566C17.568 17.2314 17.4704 17.2889 17.3646 17.3259C17.2587 17.363 17.1465 17.3788 17.0345 17.3725C16.9225 17.3662 16.8128 17.3379 16.7118 17.2892C15.6887 16.7978 14.6084 16.436 13.4958 16.2121C12.1796 15.949 10.7693 15.7372 9.31042 15.5843C9.19881 15.5726 9.09059 15.5391 8.99194 15.4856C8.89329 15.4321 8.80614 15.3597 8.73547 15.2725C8.6648 15.1854 8.61199 15.0851 8.58005 14.9775C8.54812 14.87 8.53769 14.7572 8.54935 14.6455C8.56102 14.5339 8.59456 14.4257 8.64804 14.3271C8.70153 14.2284 8.77393 14.1413 8.8611 14.0706C8.94827 13.9999 9.0485 13.9471 9.15608 13.9152C9.26366 13.8832 9.37647 13.8728 9.48808 13.8845C11.0034 14.0434 12.4674 14.2629 13.8375 14.5379C15.0899 14.7896 16.306 15.1968 17.4575 15.75C17.6608 15.8491 17.8166 16.0248 17.8906 16.2385C17.9646 16.4523 17.9507 16.6867 17.8521 16.8903ZM17.8521 12.6195C17.8034 12.7205 17.7353 12.811 17.6516 12.8858C17.568 12.9605 17.4704 13.0181 17.3646 13.0551C17.2587 13.0921 17.1465 13.108 17.0345 13.1017C16.9225 13.0954 16.8128 13.067 16.7118 13.0184C15.6887 12.527 14.6084 12.1652 13.4958 11.9412C12.1796 11.6782 10.7693 11.4663 9.31042 11.3134C9.08501 11.2899 8.8782 11.1777 8.73547 11.0017C8.59274 10.8256 8.52579 10.6001 8.54935 10.3747C8.57291 10.1493 8.68505 9.94249 8.8611 9.79976C9.03714 9.65703 9.26268 9.59009 9.48808 9.61365C11.0034 9.77252 12.4674 9.99204 13.8375 10.2671C15.0899 10.5188 16.306 10.9259 17.4575 11.4791C17.6608 11.5782 17.8166 11.7539 17.8906 11.9677C17.9646 12.1815 17.9507 12.4159 17.8521 12.6195ZM31.6896 24.1259C30.2264 24.2788 28.8162 24.4907 27.4973 24.7537C26.3857 24.9781 25.3062 25.3399 24.284 25.8309C24.0816 25.9185 23.8532 25.9245 23.6465 25.8476C23.4398 25.7706 23.2709 25.6167 23.1751 25.4181C23.0793 25.2194 23.064 24.9914 23.1325 24.7818C23.201 24.5721 23.3479 24.3971 23.5425 24.2934C24.694 23.7397 25.9101 23.332 27.1625 23.0796C28.5351 22.8045 29.9992 22.585 31.5188 22.4261C31.7442 22.4026 31.9697 22.4695 32.1457 22.6123C32.3218 22.755 32.4339 22.9618 32.4575 23.1872C32.481 23.4126 32.4141 23.6381 32.2714 23.8142C32.1286 23.9902 31.9218 24.1024 31.6964 24.1259H31.6896ZM31.6896 19.8551C30.2264 20.008 28.8162 20.2198 27.4973 20.4829C26.3857 20.7072 25.3062 21.0691 24.284 21.56C24.1824 21.6142 24.071 21.6472 23.9563 21.6572C23.8417 21.6673 23.7262 21.654 23.6168 21.6182C23.5074 21.5825 23.4063 21.525 23.3197 21.4493C23.2331 21.3735 23.1627 21.281 23.1127 21.1773C23.0627 21.0737 23.0342 20.961 23.0288 20.846C23.0235 20.731 23.0414 20.6162 23.0816 20.5083C23.1217 20.4005 23.1832 20.3018 23.2624 20.2184C23.3417 20.1349 23.4369 20.0683 23.5425 20.0225C24.694 19.4689 25.9101 19.0612 27.1625 18.8088C28.5351 18.5337 29.9992 18.3142 31.5188 18.1553C31.7442 18.1318 31.9697 18.1987 32.1457 18.3414C32.3218 18.4842 32.4339 18.691 32.4575 18.9164C32.481 19.1418 32.4141 19.3673 32.2714 19.5434C32.1286 19.7194 31.9218 19.8315 31.6964 19.8551H31.6896ZM31.6896 15.5843C30.2264 15.7372 28.8162 15.949 27.4973 16.2121C26.3857 16.4364 25.3062 16.7982 24.284 17.2892C24.1824 17.3433 24.071 17.3764 23.9563 17.3864C23.8417 17.3964 23.7262 17.3832 23.6168 17.3474C23.5074 17.3117 23.4063 17.2542 23.3197 17.1784C23.2331 17.1027 23.1627 17.0102 23.1127 16.9065C23.0627 16.8028 23.0342 16.6901 23.0288 16.5752C23.0235 16.4602 23.0414 16.3454 23.0816 16.2375C23.1217 16.1296 23.1832 16.031 23.2624 15.9475C23.3417 15.864 23.4369 15.7974 23.5425 15.7517C24.694 15.1981 25.9101 14.7903 27.1625 14.5379C28.5351 14.2629 29.9992 14.0434 31.5188 13.8845C31.7442 13.8609 31.9697 13.9279 32.1457 14.0706C32.3218 14.2133 32.4339 14.4201 32.4575 14.6455C32.481 14.8709 32.4141 15.0965 32.2714 15.2725C32.1286 15.4486 31.9218 15.5607 31.6964 15.5843H31.6896ZM31.6896 11.3134C30.2264 11.4663 28.8162 11.6782 27.4973 11.9412C26.3857 12.1656 25.3062 12.5274 24.284 13.0184C24.0816 13.106 23.8532 13.112 23.6465 13.0351C23.4398 12.9581 23.2709 12.8042 23.1751 12.6056C23.0793 12.4069 23.064 12.1789 23.1325 11.9693C23.201 11.7596 23.3479 11.5846 23.5425 11.4809C24.694 10.9272 25.9101 10.5195 27.1625 10.2671C28.5351 9.99204 29.9992 9.77252 31.5188 9.61365C31.7442 9.59009 31.9697 9.65703 32.1457 9.79976C32.3218 9.94249 32.4339 10.1493 32.4575 10.3747C32.481 10.6001 32.4141 10.8256 32.2714 11.0017C32.1286 11.1777 31.9218 11.2899 31.6964 11.3134H31.6896Z" fill="#FFF5FC"/>
</g>
</g>
</svg>
