<svg width="27" height="28" viewBox="0 0 27 28" fill="none" xmlns="http://www.w3.org/2000/svg">
<g id="search">
<path id="Vector" fill-rule="evenodd" clip-rule="evenodd" d="M19.786 18.442C20.9975 16.8267 21.6705 14.9422 21.6705 12.7885C21.6705 7.53886 17.4977 3.23145 12.248 3.23145C6.99836 3.23145 2.69095 7.53886 2.69095 12.7885C2.69095 18.0382 6.99836 22.3456 12.248 22.3456C14.4017 22.3456 16.4208 21.6726 17.9015 20.4611L21.9397 24.4993C22.2089 24.7685 22.6127 24.9031 22.882 24.9031C23.1512 24.9031 23.555 24.7685 23.8242 24.4993C24.3626 23.9609 24.3626 23.1532 23.8242 22.6148L19.786 18.442ZM12.248 19.5189C8.47904 19.5189 5.38308 16.5575 5.38308 12.7885C5.38308 9.01953 8.47904 5.92358 12.248 5.92358C16.017 5.92358 19.113 9.01953 19.113 12.7885C19.113 16.5575 16.017 19.5189 12.248 19.5189Z" fill="#86A1AE"/>
</g>
</svg>
