<svg width="12" height="13" viewBox="0 0 12 13" fill="none" xmlns="http://www.w3.org/2000/svg">
<path id="Vector" fill-rule="evenodd" clip-rule="evenodd" d="M11.034 5.07521C10.9905 4.98662 10.923 4.912 10.8392 4.85982C10.7554 4.80765 10.6587 4.78 10.56 4.78001H6.3972L6.8604 0.613613C6.87359 0.498752 6.84871 0.382738 6.78959 0.283383C6.73046 0.184028 6.64036 0.106825 6.53312 0.0636286C6.42588 0.0204318 6.30742 0.0136288 6.19594 0.0442643C6.08446 0.0748999 5.98611 0.14128 5.916 0.233213L0.636001 7.09721C0.575611 7.17538 0.53836 7.26892 0.528481 7.36721C0.518602 7.46549 0.536491 7.56457 0.580115 7.6532C0.62374 7.74182 0.69135 7.81643 0.775262 7.86855C0.859174 7.92066 0.956023 7.94819 1.0548 7.94801H5.2176L4.7544 12.1144C4.74198 12.2289 4.7673 12.3442 4.8265 12.443C4.88571 12.5417 4.97556 12.6183 5.08236 12.6613C5.18917 12.7042 5.30709 12.7111 5.41815 12.6808C5.52922 12.6505 5.62735 12.5848 5.6976 12.4936L10.9776 5.62961C11.0376 5.55154 11.0745 5.45825 11.0843 5.36029C11.094 5.26232 11.0774 5.16358 11.034 5.07521Z" fill="#EE8646"/>
</svg>
