<svg width="43" height="43" viewBox="0 0 43 43" fill="none" xmlns="http://www.w3.org/2000/svg">
<g id="fi_3068327">
<g id="Group">
<path id="Vector" d="M21.5 14.2773C25.4426 14.2773 28.6387 11.0813 28.6387 7.13867C28.6387 3.19609 25.4426 0 21.5 0C17.5574 0 14.3613 3.19609 14.3613 7.13867C14.3613 11.0813 17.5574 14.2773 21.5 14.2773Z" fill="white"/>
<path id="Vector_2" d="M26.7456 15.2444C25.2341 16.2259 23.4326 16.7968 21.5 16.7968C19.5674 16.7968 17.7659 16.2259 16.2544 15.2444C14.5835 15.8829 13.0344 16.825 11.6873 18.034L21.5 21.7138L31.3126 18.034C29.9656 16.825 28.4164 15.8828 26.7456 15.2444Z" fill="white"/>
<path id="Vector_3" d="M36.6172 26.0352H35.7773C35.0816 26.0352 34.5176 26.5992 34.5176 27.2949V30.6543C34.5176 31.35 35.0816 31.9141 35.7773 31.9141H36.6172C38.2406 31.9141 39.5566 30.598 39.5566 28.9746C39.5566 27.3512 38.2406 26.0352 36.6172 26.0352Z" fill="white"/>
<path id="Vector_4" d="M7.34494 19.6755C7.0053 19.9109 6.80273 20.2977 6.80273 20.7109V23.5156H7.22266C9.30656 23.5156 11.002 25.211 11.002 27.2949V30.6543C11.002 32.7382 9.30656 34.4336 7.22266 34.4336H6.80273V37.0879C6.80273 37.613 7.12851 38.0831 7.62015 38.2674L20.2402 43V23.9321L8.50485 19.5314C8.11793 19.3862 7.68449 19.44 7.34494 19.6755Z" fill="white"/>
<path id="Vector_5" d="M31.998 30.6543V27.2949C31.998 25.211 33.6934 23.5156 35.7773 23.5156H36.1973V20.7109C36.1973 20.2977 35.9947 19.9109 35.6551 19.6755C35.3154 19.44 34.8819 19.3862 34.4952 19.5314L22.7598 23.9321V43L35.3798 38.2674C35.8715 38.0831 36.1973 37.613 36.1973 37.0879V34.4336H35.7773C33.6934 34.4336 31.998 32.7382 31.998 30.6543Z" fill="white"/>
<path id="Vector_6" d="M8.48242 30.6543V27.2949C8.48242 26.5992 7.91838 26.0352 7.22266 26.0352H6.38281C4.75939 26.0352 3.44336 27.3512 3.44336 28.9746C3.44336 30.598 4.75939 31.9141 6.38281 31.9141H7.22266C7.91838 31.9141 8.48242 31.35 8.48242 30.6543Z" fill="white"/>
</g>
</g>
</svg>
