<svg width="31" height="31" viewBox="0 0 31 31" fill="none" xmlns="http://www.w3.org/2000/svg">
<g id="fi_2168336" clip-path="url(#clip0_541_625)">
<g id="Group">
<g id="Group_2">
<path id="Vector" d="M15.5 0C6.95333 0 0 6.95333 0 15.5C0 24.046 6.95333 31 15.5 31C24.046 31 31 24.046 31 15.5C31 6.95333 24.0473 0 15.5 0ZM22.4146 11.9525C22.4215 12.1061 22.4252 12.2609 22.4252 12.4157C22.4252 17.1302 18.8377 22.5645 12.274 22.5645C10.2592 22.5645 8.38371 21.9757 6.80536 20.963C7.08445 20.9961 7.36852 21.013 7.65635 21.013C9.32834 21.013 10.8661 20.4423 12.0873 19.4858C10.5265 19.4571 9.20847 18.4257 8.75457 17.0078C8.97184 17.049 9.19598 17.0721 9.42512 17.0721C9.7504 17.0721 10.0663 17.0296 10.3654 16.9479C8.73334 16.6207 7.50401 15.1791 7.50401 13.4496C7.50401 13.4347 7.50401 13.4191 7.50463 13.4047C7.98538 13.6713 8.53543 13.8324 9.11981 13.8505C8.16332 13.2118 7.53335 12.1192 7.53335 10.8817C7.53335 10.2274 7.70879 9.61429 8.01597 9.08735C9.77475 11.2463 12.4045 12.6661 15.3689 12.8159C15.3077 12.5543 15.2771 12.2827 15.2771 12.0024C15.2771 10.0326 16.8742 8.43491 18.844 8.43491C19.8704 8.43491 20.7963 8.8682 21.4481 9.56122C22.2617 9.40139 23.0234 9.10545 23.7145 8.69526C23.446 9.52876 22.8823 10.2274 22.1437 10.6694C22.866 10.5833 23.5553 10.3922 24.1928 10.1082C23.717 10.8224 23.112 11.4511 22.4146 11.9525Z" fill="#722E60"/>
</g>
</g>
</g>
<defs>
<clipPath id="clip0_541_625">
<rect width="31" height="31" fill="white"/>
</clipPath>
</defs>
</svg>
