<svg width="564" height="564" viewBox="0 0 564 564" fill="none" xmlns="http://www.w3.org/2000/svg">
<path d="M317.173 481.309C422.769 465.318 508.583 365.48 492.994 254.511C479.693 159.873 396.72 86.2235 297.22 79.2685C290.017 78.7618 282.734 78.6128 275.372 78.8216C219.866 80.4193 170.547 102.627 134.071 136.223C97.7665 169.656 74.1865 214.381 69.8858 261.299C58.4492 386.135 185.836 501.2 317.173 481.309Z" fill="#F4F7FA"/>
<path d="M416.273 475.572C440.967 472.399 472.276 464.064 484.851 440.557C487.843 434.966 490.844 424.102 483.293 420.011C476.391 416.272 467.466 420.223 462.337 425.087C458.565 428.666 455.622 436.652 451.384 439.177C445.181 442.872 441.843 432.792 441.974 428.626C442.266 419.321 453.711 415.511 461.317 413.491C473.944 410.137 488.646 407.258 487.854 393.033C487.062 378.809 473.19 370.27 462.516 376.494C453.724 381.624 454.961 392.571 448.953 399.145C443.616 404.981 441.758 395.508 442.112 390.866C442.887 380.779 451.755 373.484 458.281 366.723C465.659 359.081 473.81 343.707 465.946 333.602C461.42 327.787 449.925 326.425 443.129 327.406C409.868 332.208 431.924 375.252 425.876 380.054C419.829 384.856 414.107 376.449 414.122 363.667C414.137 350.886 412.181 341.457 398.841 345.548C385.501 349.639 382.962 383.027 398.195 395.867C413.427 408.707 397.238 422.697 393.149 413.502C390.197 406.861 387.602 389.473 379.069 387.567C364.853 384.394 365.063 413.424 369.155 420.18C374.89 429.651 387.854 431.708 395.101 439.879C397.205 442.252 401.956 448.132 400.118 451.601C397.544 456.44 390.364 451.264 387.726 449.017C381.798 443.974 373.588 426.839 365.227 438.223C354.911 452.264 372.162 473.091 416.273 475.572Z" fill="url(#paint0_linear_163_1326)"/>
<g style="mix-blend-mode:soft-light" opacity="0.8">
<path d="M419.83 473.48C419.25 473.48 418.775 472.816 418.766 472.234C418.757 471.73 418.07 421.011 440.175 360.802C440.269 360.532 440.465 360.309 440.72 360.182C440.976 360.054 441.271 360.031 441.544 360.118C441.674 360.163 441.795 360.234 441.898 360.327C442.001 360.419 442.085 360.532 442.144 360.657C442.203 360.782 442.236 360.918 442.242 361.057C442.248 361.195 442.226 361.333 442.177 361.463C420.209 421.293 420.894 471.698 420.894 472.199C420.905 472.788 420.438 473.473 419.847 473.473L419.83 473.48Z" fill="white"/>
</g>
<path d="M435.922 471.402C435.093 466.212 425.169 464.731 421.176 463.976C418.856 463.538 415.551 463.088 414.364 460.691C413.111 458.175 415.014 456.229 417.454 455.783C421.823 454.985 426.522 457.76 430.583 459.023C434.944 460.379 439.468 461.018 443.793 459.145C447.241 457.652 450.773 454.104 451.522 450.37C453.599 440.032 443.245 440.628 436.498 442.08C433.223 442.786 426.787 443.316 426.209 438.69C425.601 433.768 431.858 431.285 435.727 431.138C440.783 430.946 445.761 432.05 450.777 432.421C455.3 432.749 460.659 432.257 461.91 427.053C462.878 423.032 460.615 418.41 457.349 416.025C449.792 410.51 439.833 419.914 431.766 419.894C428.914 419.894 424.206 417.795 423.417 414.725C422.615 411.604 426.668 409.504 428.889 408.365C435.475 404.993 465.726 400.674 454.885 387.612C452.158 384.326 446.889 381.562 442.635 381.445C434.611 381.226 425.595 386.671 419.414 391.37C409.684 398.76 401.183 408.929 395.659 419.826C383.452 443.909 389.365 460.057 389.365 460.057C392.904 465.893 398.382 471.963 404.415 475.25C411.506 479.116 422.488 480.812 430.2 477.808C432.681 476.843 436.434 474.611 435.922 471.402Z" fill="url(#paint1_linear_163_1326)"/>
<g style="mix-blend-mode:multiply" opacity="0.7">
<path d="M100.286 332.599L98.966 350.071C98.9152 350.734 98.9963 351.401 99.2045 352.033C99.4127 352.665 99.7439 353.249 100.179 353.753C100.614 354.256 101.144 354.668 101.74 354.966C102.335 355.263 102.983 355.44 103.647 355.486L113.811 356.2C114.248 360.858 115.098 365.468 116.351 369.975L107.215 374.383C106 374.968 105.067 376.01 104.621 377.282C104.175 378.553 104.251 379.95 104.834 381.165L112.444 396.963C113.032 398.179 114.078 399.112 115.353 399.557C116.628 400.003 118.027 399.924 119.244 399.339L128.365 394.963C131.117 398.792 134.199 402.373 137.575 405.665L131.87 413.982C131.491 414.535 131.226 415.157 131.089 415.812C130.951 416.468 130.945 417.144 131.069 417.802C131.194 418.46 131.447 419.087 131.815 419.647C132.182 420.207 132.656 420.688 133.21 421.065L147.824 431.028C148.946 431.796 150.327 432.089 151.664 431.842C153.001 431.595 154.186 430.828 154.96 429.71L160.649 421.443C165.002 423.405 169.521 424.979 174.151 426.145L173.391 436.179C173.295 437.539 173.742 438.883 174.634 439.915C175.526 440.947 176.791 441.584 178.151 441.686L195.971 443.093C196.646 443.15 197.325 443.073 197.97 442.867C198.615 442.66 199.213 442.329 199.73 441.891C200.246 441.453 200.671 440.918 200.98 440.315C201.289 439.713 201.476 439.055 201.53 438.38L202.29 428.313C207.084 427.869 211.828 427.005 216.47 425.729L220.904 434.835C221.514 436.072 222.585 437.019 223.886 437.474C225.188 437.929 226.616 437.855 227.864 437.267L244.13 429.608C244.747 429.323 245.3 428.917 245.758 428.415C246.216 427.913 246.569 427.325 246.797 426.685C247.024 426.045 247.122 425.365 247.084 424.687C247.046 424.008 246.872 423.344 246.574 422.734L242.081 413.541C246.002 410.763 249.674 407.648 253.052 404.23L261.65 410.007C262.803 410.776 264.21 411.066 265.573 410.814C266.935 410.563 268.146 409.789 268.947 408.658L279.186 393.912C279.575 393.352 279.848 392.72 279.989 392.053C280.13 391.386 280.136 390.697 280.007 390.028C279.877 389.358 279.615 388.722 279.236 388.155C278.857 387.589 278.368 387.104 277.798 386.729L269.133 380.952C271.108 376.609 272.69 372.098 273.861 367.472L284.394 368.213C287.301 368.418 289.835 366.273 290.051 363.423L291.404 345.598C291.62 342.748 289.437 340.277 286.529 340.081L275.908 339.365C275.427 334.655 274.523 329.999 273.207 325.451L282.8 320.846C285.423 319.587 286.524 316.489 285.258 313.929L277.353 297.932C276.089 295.376 272.944 294.33 270.328 295.595L260.664 300.262C257.853 296.476 254.717 292.943 251.292 289.703L257.331 280.925C257.721 280.369 257.994 279.74 258.135 279.076C258.276 278.412 258.283 277.726 258.154 277.06C258.025 276.393 257.763 275.76 257.385 275.196C257.006 274.633 256.518 274.151 255.95 273.78L241.013 263.97C239.853 263.22 238.446 262.952 237.092 263.224C235.737 263.495 234.541 264.283 233.759 265.422L227.728 274.201C223.392 272.344 218.901 270.869 214.308 269.793L215.106 259.265C215.155 258.593 215.07 257.917 214.854 257.279C214.639 256.64 214.298 256.051 213.851 255.546C213.405 255.041 212.862 254.63 212.255 254.338C211.647 254.046 210.987 253.878 210.314 253.844L192.468 252.79C191.101 252.708 189.756 253.164 188.721 254.061C187.685 254.957 187.041 256.223 186.927 257.588L186.131 268.078C181.446 268.591 176.814 269.506 172.286 270.814L167.712 261.456C166.479 258.935 163.406 257.914 160.848 259.175L144.886 267.032C142.338 268.286 141.264 271.342 142.49 273.856L147.034 283.186C143.235 285.938 139.679 289.01 136.404 292.368L127.788 286.617C126.658 285.873 125.28 285.604 123.953 285.87C122.626 286.135 121.457 286.913 120.7 288.035L110.783 302.629C110.405 303.178 110.14 303.796 110.003 304.448C109.866 305.099 109.859 305.772 109.983 306.426C110.107 307.081 110.359 307.704 110.725 308.26C111.091 308.817 111.564 309.295 112.116 309.668L120.617 315.373C118.688 319.63 117.136 324.048 115.979 328.576L105.731 327.885C104.386 327.796 103.06 328.241 102.04 329.124C101.021 330.006 100.391 331.255 100.286 332.599ZM246.625 351.699C244.451 380.352 219.154 401.828 190.282 399.681C161.584 397.545 140.19 372.849 142.339 344.508C144.489 316.167 169.399 294.662 198.113 296.486C227.009 298.322 248.8 323.046 246.625 351.699Z" fill="#D8DEE8"/>
</g>
<g style="mix-blend-mode:multiply" opacity="0.7">
<path d="M135.126 175.468L134.396 185.072C134.368 185.437 134.412 185.804 134.527 186.152C134.641 186.5 134.824 186.821 135.063 187.098C135.302 187.375 135.594 187.602 135.922 187.765C136.249 187.929 136.606 188.026 136.971 188.051L142.56 188.444C142.8 191.005 143.267 193.539 143.955 196.016L138.939 198.449C138.271 198.77 137.758 199.343 137.513 200.043C137.267 200.742 137.309 201.51 137.63 202.178L141.806 210.854C142.129 211.522 142.704 212.035 143.405 212.28C144.107 212.525 144.876 212.482 145.545 212.16L150.562 209.753C152.075 211.859 153.769 213.828 155.626 215.638L152.478 220.212C152.27 220.516 152.124 220.858 152.049 221.218C151.974 221.579 151.97 221.95 152.039 222.312C152.107 222.673 152.246 223.018 152.448 223.326C152.65 223.634 152.911 223.899 153.215 224.106L161.249 229.578C161.866 230 162.625 230.16 163.361 230.025C164.096 229.889 164.747 229.468 165.173 228.853L168.3 224.308C170.694 225.386 173.178 226.251 175.723 226.892L175.305 232.409C175.252 233.157 175.497 233.896 175.988 234.463C176.478 235.031 177.173 235.381 177.921 235.437L187.718 236.211C188.088 236.242 188.461 236.2 188.816 236.088C189.17 235.975 189.498 235.793 189.782 235.553C190.066 235.313 190.3 235.019 190.47 234.689C190.641 234.358 190.744 233.997 190.775 233.627L191.194 228.092C193.83 227.848 196.438 227.372 198.99 226.67L201.422 231.678C201.757 232.358 202.346 232.88 203.062 233.13C203.778 233.38 204.563 233.338 205.249 233.014L214.189 228.803C214.528 228.646 214.832 228.423 215.084 228.147C215.336 227.871 215.53 227.548 215.655 227.196C215.78 226.844 215.834 226.47 215.813 226.097C215.792 225.724 215.697 225.359 215.533 225.024L213.075 219.975C215.231 218.448 217.249 216.734 219.106 214.855L223.833 218.028C224.467 218.453 225.242 218.614 225.992 218.476C226.743 218.337 227.409 217.91 227.848 217.286L233.473 209.178C233.688 208.871 233.839 208.523 233.917 208.156C233.995 207.789 233.999 207.41 233.928 207.042C233.857 206.673 233.713 206.323 233.505 206.011C233.296 205.699 233.027 205.432 232.713 205.226L227.949 202.046C229.035 199.658 229.905 197.177 230.547 194.633L236.339 195.042C237.1 195.103 237.855 194.861 238.438 194.367C239.021 193.873 239.384 193.169 239.449 192.407L240.193 182.608C240.219 182.232 240.17 181.854 240.049 181.497C239.929 181.14 239.738 180.81 239.488 180.527C239.239 180.244 238.936 180.014 238.597 179.849C238.258 179.684 237.889 179.589 237.512 179.568L231.673 179.174C231.408 176.585 230.911 174.025 230.188 171.524L235.462 168.993C235.802 168.834 236.107 168.61 236.359 168.332C236.612 168.054 236.807 167.729 236.932 167.376C237.058 167.022 237.112 166.647 237.092 166.272C237.071 165.897 236.977 165.53 236.813 165.193L232.467 156.398C232.121 155.719 231.523 155.204 230.8 154.963C230.077 154.723 229.289 154.777 228.605 155.114L223.285 157.68C221.74 155.598 220.016 153.655 218.133 151.874L221.453 147.049C221.666 146.743 221.816 146.398 221.893 146.033C221.971 145.668 221.974 145.291 221.903 144.925C221.832 144.559 221.689 144.211 221.481 143.902C221.273 143.592 221.005 143.328 220.693 143.124L212.484 137.731C211.846 137.319 211.072 137.172 210.327 137.321C209.582 137.47 208.925 137.904 208.494 138.53L205.193 143.356C202.809 142.332 200.34 141.518 197.815 140.924L198.254 135.136C198.281 134.767 198.234 134.395 198.116 134.044C197.997 133.693 197.81 133.369 197.564 133.091C197.319 132.814 197.02 132.588 196.687 132.427C196.353 132.266 195.99 132.174 195.62 132.155L185.808 131.578C185.058 131.535 184.321 131.787 183.753 132.28C183.185 132.772 182.832 133.466 182.768 134.215L182.33 139.984C179.755 140.268 177.209 140.772 174.72 141.492L172.198 136.363C172.033 136.033 171.804 135.738 171.525 135.496C171.246 135.254 170.922 135.069 170.572 134.953C170.221 134.836 169.851 134.79 169.483 134.817C169.114 134.844 168.755 134.943 168.425 135.109L159.647 139.428C158.976 139.753 158.462 140.329 158.215 141.032C157.968 141.735 158.01 142.507 158.33 143.18L160.828 148.308C158.74 149.821 156.785 151.51 154.984 153.356L150.247 150.194C149.626 149.786 148.868 149.638 148.139 149.784C147.41 149.93 146.767 150.358 146.351 150.974L140.9 158.996C140.692 159.298 140.546 159.637 140.471 159.996C140.395 160.354 140.391 160.723 140.459 161.083C140.527 161.443 140.666 161.785 140.867 162.091C141.068 162.397 141.328 162.66 141.631 162.865L146.306 166.001C145.245 168.342 144.391 170.771 143.755 173.26L138.121 172.88C137.381 172.831 136.653 173.075 136.092 173.559C135.531 174.043 135.184 174.729 135.126 175.468ZM215.579 185.968C214.384 201.72 200.477 213.528 184.603 212.347C168.826 211.173 157.064 197.601 158.247 182.015C159.43 166.43 173.118 154.61 188.908 155.614C204.794 156.623 216.783 170.215 215.579 185.968Z" fill="#D8DEE8"/>
</g>
<path d="M251.444 98.1556L215.474 459.95C214.937 465.338 218.647 470.049 223.73 470.42L399.011 485.101C409.695 485.475 415.461 479.719 416.037 474.018L455.011 91.0608C455.596 85.3083 450.259 80.2171 439.465 80.436L261.802 87.9231C256.641 88.1177 251.986 92.7224 251.444 98.1556Z" fill="url(#paint2_linear_163_1326)"/>
<path d="M243.478 97.6952L207.357 461.354C206.819 466.769 210.55 471.504 215.647 471.878L397.363 485.2C403.037 485.615 408.167 481.267 408.751 475.536L447.897 90.5441C448.485 84.7673 444.236 80.2066 438.471 80.4255L253.876 87.4124C248.694 87.604 244.02 92.2331 243.478 97.6952Z" fill="#26264F"/>
<path d="M247.303 117.76L213.799 454.82C213.295 459.879 216.781 464.295 221.552 464.634L392.466 476.784C397.743 477.158 402.514 473.1 403.056 467.763L439.192 112.163C439.739 106.781 435.794 102.517 430.44 102.688L257.024 108.207C252.179 108.361 247.81 112.66 247.303 117.76Z" fill="#D8DEE8"/>
<path d="M339.23 95.4696C339.034 97.4155 340.407 98.9402 342.299 98.8764C344.192 98.8125 345.887 97.1813 346.083 95.2279C346.279 93.2744 344.902 91.7527 343.008 91.8211C341.114 91.8895 339.425 93.5222 339.23 95.4696Z" fill="white"/>
<g style="mix-blend-mode:soft-light" opacity="0.3">
<path d="M356.053 272.979C374.113 219.619 342.675 192.736 360.481 143.305C370.172 116.42 389.554 96.3816 410.882 81.4698L438.471 80.4193C444.236 80.2019 448.485 84.755 447.896 90.5379L408.746 475.536C408.163 481.267 403.032 485.615 397.358 485.2L240.472 473.699C240.965 433.5 251.178 404.891 262.535 384.552C293.748 328.671 337.353 328.233 356.053 272.979Z" fill="#F4F7FA"/>
</g>
<path d="M193.566 123.735C203.387 123.735 211.349 115.773 211.349 105.951C211.349 96.1299 203.387 88.168 193.566 88.168C183.744 88.168 175.782 96.1299 175.782 105.951C175.782 115.773 183.744 123.735 193.566 123.735Z" fill="#003BFF"/>
<path d="M207.439 137.668C210.611 137.668 213.181 135.097 213.181 131.926C213.181 128.755 210.611 126.184 207.439 126.184C204.268 126.184 201.698 128.755 201.698 131.926C201.698 135.097 204.268 137.668 207.439 137.668Z" fill="#003BFF"/>
<path d="M237.111 348.278L240.659 305.016C241.222 300.959 243.829 298.327 247.547 298.403L402.445 299.508C406.951 299.61 410.547 302.682 409.934 307.609L404.06 354.758C403.546 358.888 400.32 361.912 396.536 361.803L240.698 355.46C238.383 355.393 237.139 354.958 236.993 352.428L237.111 348.278Z" fill="#A9B1B5"/>
<path d="M280.292 329.094C281.124 318.693 276.292 309.821 269.499 309.277C262.705 308.734 256.524 316.725 255.692 327.126C254.86 337.527 259.692 346.399 266.485 346.942C273.279 347.486 279.46 339.495 280.292 329.094Z" fill="white"/>
<path d="M384.849 328.749L295.061 325.794C293.622 325.746 292.476 324.386 292.502 322.768L292.552 320.184C292.583 318.568 293.785 317.285 295.223 317.332L385.012 320.287C386.45 320.334 387.596 321.695 387.57 323.313L387.522 325.897C387.49 327.513 386.287 328.798 384.849 328.749Z" fill="white"/>
<path d="M329.471 344.915L285.66 343.467C284.643 343.434 283.835 342.472 283.851 341.328L283.933 337.026C283.955 335.883 284.805 334.976 285.822 335.009L329.633 336.45C330.65 336.484 331.458 337.446 331.442 338.589L331.36 342.893C331.338 344.041 330.488 344.948 329.471 344.915Z" fill="white"/>
<path d="M241.976 265.579L245.523 222.317C246.086 218.259 248.693 215.627 252.411 215.703L407.31 216.809C411.816 216.91 415.412 219.983 414.799 224.909L408.924 272.058C408.411 276.189 405.185 279.212 401.401 279.104L245.563 272.76C243.248 272.693 242.004 272.258 241.857 269.729L241.976 265.579Z" fill="#A9B1B5"/>
<path d="M285.157 246.394C285.989 235.993 281.156 227.121 274.363 226.578C267.57 226.034 261.389 234.025 260.557 244.426C259.725 254.827 264.557 263.699 271.35 264.243C278.143 264.786 284.325 256.795 285.157 246.394Z" fill="white"/>
<path d="M389.714 246.049L299.925 243.094C298.487 243.047 297.341 241.686 297.367 240.069L297.417 237.484C297.447 235.868 298.65 234.585 300.088 234.632L389.877 237.588C391.315 237.635 392.461 238.995 392.435 240.613L392.386 243.197C392.354 244.813 391.152 246.098 389.714 246.049Z" fill="white"/>
<path d="M334.335 262.215L290.524 260.768C289.507 260.734 288.7 259.772 288.715 258.629L288.797 254.327C288.82 253.183 289.67 252.276 290.687 252.309L334.498 253.75C335.515 253.784 336.322 254.746 336.307 255.889L336.225 260.193C336.202 261.341 335.352 262.248 334.335 262.215Z" fill="white"/>
<path d="M230.118 427.786L233.666 384.524C234.229 380.466 236.836 377.834 240.554 377.91L395.452 379.016C399.958 379.118 403.554 382.19 402.941 387.116L397.067 434.265C396.553 438.396 393.327 441.419 389.543 441.311L233.705 434.967C231.39 434.9 230.146 434.466 230 431.936L230.118 427.786Z" fill="#A9B1B5"/>
<path d="M273.299 408.601C274.131 398.2 269.299 389.328 262.506 388.784C255.712 388.241 249.531 396.232 248.699 406.633C247.867 417.034 252.699 425.906 259.492 426.449C266.285 426.993 272.467 419.002 273.299 408.601Z" fill="white"/>
<path d="M377.856 408.256L288.068 405.301C286.629 405.254 285.483 403.893 285.509 402.276L285.559 399.691C285.59 398.075 286.792 396.792 288.23 396.839L378.019 399.795C379.457 399.842 380.603 401.202 380.577 402.82L380.529 405.404C380.497 407.02 379.294 408.305 377.856 408.256Z" fill="white"/>
<path d="M322.478 424.422L278.667 422.975C277.65 422.941 276.842 421.979 276.858 420.836L276.94 416.534C276.962 415.39 277.812 414.483 278.829 414.516L322.64 415.957C323.657 415.991 324.465 416.953 324.449 418.096L324.367 422.4C324.345 423.548 323.495 424.455 322.478 424.422Z" fill="white"/>
<path d="M203.295 203.782C201.522 203.783 199.77 203.397 198.161 202.652C196.551 201.907 195.124 200.821 193.977 199.469C192.83 198.116 191.991 196.53 191.519 194.821C191.047 193.112 190.953 191.32 191.243 189.571L197.152 154.113C197.628 151.262 199.099 148.671 201.305 146.803C203.51 144.934 206.307 143.908 209.198 143.908H419.418C421.238 143.908 423.035 144.315 424.677 145.099C426.319 145.882 427.766 147.023 428.91 148.438C430.055 149.852 430.869 151.504 431.294 153.274C431.718 155.043 431.742 156.885 431.363 158.665L423.81 194.122C423.228 196.858 421.724 199.311 419.549 201.07C417.375 202.83 414.663 203.79 411.866 203.789L203.295 203.782Z" fill="#003BFF"/>
<path d="M398.365 164.127H266.447C264.79 164.127 263.447 165.47 263.447 167.126V168.969C263.447 170.625 264.79 171.968 266.447 171.968H398.365C400.021 171.968 401.364 170.625 401.364 168.969V167.126C401.364 165.47 400.021 164.127 398.365 164.127Z" fill="white"/>
<path d="M326.336 182.576H256.05C254.831 182.576 253.843 183.565 253.843 184.784V188.21C253.843 189.429 254.831 190.418 256.05 190.418H326.336C327.555 190.418 328.543 189.429 328.543 188.21V184.784C328.543 183.565 327.555 182.576 326.336 182.576Z" fill="white"/>
<path d="M233.839 176.423C234.386 165.436 228.115 156.196 219.832 155.783C211.548 155.371 204.39 163.943 203.843 174.93C203.296 185.916 209.568 195.157 217.851 195.57C226.134 195.982 233.292 187.41 233.839 176.423Z" fill="white"/>
<path d="M213.478 180.023L211.632 180.004L217.122 165.515L218.94 165.533L224.131 180.133L222.285 180.114L218.064 167.826L217.951 167.824L213.478 180.023ZM214.219 174.349L221.661 174.425L221.645 175.988L214.203 175.911L214.219 174.349Z" fill="#003BFF"/>
<path d="M182.485 541.34C253.631 541.34 311.307 530.928 311.307 518.085C311.307 505.242 253.631 494.83 182.485 494.83C111.339 494.83 53.6636 505.242 53.6636 518.085C53.6636 530.928 111.339 541.34 182.485 541.34Z" fill="#E8EBEE"/>
<path d="M184.27 321.147C184.27 321.147 190.71 347.143 186.935 372.318C183.16 397.492 180.273 479.558 184.27 509.683C184.27 509.683 175.149 516.492 162.271 512.983C162.271 512.983 157.496 453.509 159.828 425.036C162.16 396.562 154.334 359.937 153.542 355.192C152.75 350.448 148.303 334.765 149.191 326.1L184.27 321.147Z" fill="url(#paint3_linear_163_1326)"/>
<path d="M155.181 352.923C155.181 352.923 135.965 415.027 135.179 419.086C134.507 422.562 122.982 500.14 122.761 511.282C122.761 511.282 109.437 517.471 103.886 511.282C103.886 511.282 102.669 457.498 110.325 431.053C117.981 404.607 114.766 373.973 117.209 358.184C119.652 342.395 123.648 324.131 123.648 324.131L155.181 330.322V352.923Z" fill="url(#paint4_linear_163_1326)"/>
<path d="M152.759 365.509L145.521 408.835C145.521 408.835 127.979 412.549 107.105 405.121C107.105 405.121 115.771 348.38 120.65 325.477L155.181 330.326L152.759 365.509Z" fill="url(#paint5_linear_163_1326)"/>
<path d="M188.406 324.139C188.406 324.139 192.897 378.715 190.871 406.363C190.871 406.363 171.198 413.584 152.759 410.489L150.605 329.431L188.406 324.139Z" fill="url(#paint6_linear_163_1326)"/>
<path d="M120.915 282.769L105.774 280.913L107.75 302.705C108.046 305.971 109.819 308.967 112.628 310.948L127.09 321.147L120.915 282.769Z" fill="url(#paint7_linear_163_1326)"/>
<path d="M114.928 225.074C114.928 225.074 105.713 235.338 103.375 256.108C101.037 276.877 99.0452 279.473 99.0452 279.473C99.0452 279.473 110.371 286.395 124.193 283.511L114.928 225.074Z" fill="url(#paint8_linear_163_1326)"/>
<path d="M161.911 217.952C158.543 209.571 160.121 201.99 160.121 201.99L154.404 199.76L146.874 205.745L140.742 202.949L139.395 219.144L153.145 218.261C158.682 220.666 163.498 221.9 161.911 217.952Z" fill="url(#paint9_linear_163_1326)"/>
<path d="M168.475 181.644C168.475 181.644 174.112 211.918 154.302 202.456C151.968 201.34 139.004 192.243 139.004 192.243L144.839 174.274C144.839 174.274 162.379 170.395 164.837 172.754C167.295 175.114 168.475 181.644 168.475 181.644Z" fill="url(#paint10_linear_163_1326)"/>
<path d="M143.923 206.414C157.757 211.068 160.661 192.808 160.661 192.808C160.661 192.808 153.898 190.737 156.523 184.083C159.148 177.429 163.048 181.718 163.048 181.718C163.048 181.718 178.929 159.264 158.884 159.561C158.884 159.561 152.517 149.012 147.634 151.772C143.479 154.121 140.32 156.87 135.507 158.157C131.789 159.15 130.608 158.578 127.523 160.894C124.404 163.238 121.673 167.955 121.064 171.707C120.549 174.869 121.453 178.375 122.128 181.474C124.384 191.944 132.826 202.681 143.923 206.414Z" fill="#1D446B"/>
<path d="M133.308 217.569L135.196 210.76C135.196 210.76 149.27 209.419 162.218 211.999L165.617 218.607C165.617 218.607 180.828 221.702 185.658 224.332C185.658 224.332 186.6 305.886 190.827 328.581C190.827 328.581 151.523 339.104 118.659 328.581C118.659 328.581 118.159 287.909 116.049 264.697C113.939 241.485 114.939 225.08 114.939 225.08L133.308 217.569Z" fill="url(#paint11_linear_163_1326)"/>
<path d="M103.99 488.71C103.67 501.735 103.886 511.282 103.886 511.282C109.437 517.471 122.761 511.282 122.761 511.282C122.823 508.172 123.765 499.881 125.106 489.481C115.422 487.027 108.29 487.704 103.99 488.71Z" fill="white"/>
<path d="M182.779 489.865C172.675 487.062 165.188 487.623 160.647 488.628C161.445 502.693 162.271 512.983 162.271 512.983C175.15 516.492 184.27 509.683 184.27 509.683C183.575 504.453 183.09 497.656 182.779 489.865Z" fill="white"/>
<path d="M205.726 521.366C191.654 519.665 191.403 511.927 187.573 508.596C183.744 505.265 183.326 507.745 176.497 510.917C171.377 513.296 164.943 512.108 162.055 511.364C161.614 511.248 161.147 511.291 160.734 511.484C160.322 511.677 159.99 512.008 159.796 512.421C155.289 522.629 160.517 529.178 160.517 529.178H208.726C209.139 523.378 205.726 521.366 205.726 521.366Z" fill="#295A89"/>
<path d="M160.509 529.187H208.726C208.808 528.171 208.757 527.149 208.574 526.147H158.931C159.653 528.094 160.509 529.187 160.509 529.187Z" fill="white"/>
<path d="M146.035 521.366C131.962 519.665 131.713 511.927 127.882 508.596C124.051 505.265 123.635 507.745 116.807 510.917C111.791 513.249 106.087 511.346 103.419 510.172C102.986 509.981 102.498 509.955 102.047 510.101C101.597 510.247 101.216 510.554 100.977 510.963C95.0014 521.877 100.825 529.178 100.825 529.178H149.033C149.449 523.378 146.035 521.366 146.035 521.366Z" fill="#295A89"/>
<path d="M100.819 529.187H149.033C149.115 528.171 149.064 527.149 148.881 526.147H99.2351C99.9557 528.093 100.819 529.187 100.819 529.187Z" fill="white"/>
<path d="M236.175 254.683C236.175 254.683 240.839 259.738 240.006 263.762C239.173 267.786 233.788 272.275 233.788 272.275L231.734 261.082L236.175 254.683Z" fill="url(#paint12_linear_163_1326)"/>
<path d="M233.677 261.781L241.106 246.086C241.544 245.174 241.181 244.122 240.258 243.624C237.747 242.269 232.68 239.705 227.917 238.315C226.904 238.019 225.816 238.487 225.39 239.391L211.222 269.534C210.79 270.446 211.181 271.521 212.134 272.002C214.317 273.108 218.204 274.946 220.997 275.519L225.083 276.392C225.083 276.392 233.764 268.909 233.677 261.781Z" fill="#1D446B"/>
<path d="M185.658 224.326C185.658 224.326 198.148 228.814 201.812 249.551C205.475 270.288 210.971 283.595 210.971 283.595C210.971 283.595 216.698 307.488 208.14 309.59C196.816 312.376 189.487 304.638 184.325 283.747C179.162 262.856 179.329 260.845 175.831 252.643C172.333 244.442 168.337 226.958 185.658 224.326Z" fill="url(#paint13_linear_163_1326)"/>
<path d="M235.12 260.486C234.271 258.479 234.227 254.533 234.279 252.309C234.299 251.444 233.233 250.91 232.482 251.422C230.921 252.482 230.009 254.686 230.009 259.045C230.009 264.925 228.232 267.917 223.791 270.805C219.35 273.694 219.23 276.996 219.23 276.996L202.576 289.685L210.745 307.844C210.745 307.844 230.124 277.722 233.899 275.556C237.674 273.39 236.342 263.374 235.12 260.486Z" fill="url(#paint14_linear_163_1326)"/>
<path d="M185.658 224.326C185.658 224.326 194.373 223.759 200.924 239.854C200.924 239.854 206.92 254.194 209.133 266.573C209.133 266.573 200.468 281.273 180.822 284.207C180.822 284.207 168.937 253.485 171.296 235.939C171.868 231.682 174.489 227.921 178.549 225.866C180.807 224.73 183.425 223.858 185.658 224.326Z" fill="url(#paint15_linear_163_1326)"/>
<defs>
<linearGradient id="paint0_linear_163_1326" x1="446.603" y1="268.291" x2="383.021" y2="760.533" gradientUnits="userSpaceOnUse">
<stop stop-color="#F9C75E"/>
<stop offset="0.697917" stop-color="#FE8724"/>
</linearGradient>
<linearGradient id="paint1_linear_163_1326" x1="492.752" y1="373.706" x2="255.015" y2="588.523" gradientUnits="userSpaceOnUse">
<stop stop-color="#6F2C5D"/>
<stop offset="1" stop-color="#3939DC"/>
</linearGradient>
<linearGradient id="paint2_linear_163_1326" x1="458.815" y1="282.097" x2="211.847" y2="287.037" gradientUnits="userSpaceOnUse">
<stop stop-color="#444B8C"/>
<stop offset="1" stop-color="#26264F"/>
</linearGradient>
<linearGradient id="paint3_linear_163_1326" x1="162.166" y1="520.686" x2="167.119" y2="408.62" gradientUnits="userSpaceOnUse">
<stop stop-color="#F9B29A"/>
<stop offset="0.3" stop-color="#F8B097"/>
<stop offset="0.52" stop-color="#F6A88D"/>
<stop offset="0.73" stop-color="#F19B7D"/>
<stop offset="0.92" stop-color="#EB8966"/>
<stop offset="1" stop-color="#E8805A"/>
</linearGradient>
<linearGradient id="paint4_linear_163_1326" x1="125.185" y1="519.233" x2="130.138" y2="407.17" gradientUnits="userSpaceOnUse">
<stop stop-color="#F9B29A"/>
<stop offset="0.3" stop-color="#F8B097"/>
<stop offset="0.52" stop-color="#F6A88D"/>
<stop offset="0.73" stop-color="#F19B7D"/>
<stop offset="0.92" stop-color="#EB8966"/>
<stop offset="1" stop-color="#E8805A"/>
</linearGradient>
<linearGradient id="paint5_linear_163_1326" x1="130.959" y1="405.658" x2="131.373" y2="320.24" gradientUnits="userSpaceOnUse">
<stop stop-color="#1D446B"/>
<stop offset="0.36" stop-color="#194067"/>
<stop offset="0.74" stop-color="#0C355A"/>
<stop offset="1" stop-color="#002A4D"/>
</linearGradient>
<linearGradient id="paint6_linear_163_1326" x1="170.776" y1="405.838" x2="171.19" y2="320.408" gradientUnits="userSpaceOnUse">
<stop stop-color="#1D446B"/>
<stop offset="0.36" stop-color="#194067"/>
<stop offset="0.74" stop-color="#0C355A"/>
<stop offset="1" stop-color="#002A4D"/>
</linearGradient>
<linearGradient id="paint7_linear_163_1326" x1="115.956" y1="318.464" x2="116.78" y2="288.266" gradientUnits="userSpaceOnUse">
<stop stop-color="#F9B29A"/>
<stop offset="0.3" stop-color="#F8B097"/>
<stop offset="0.52" stop-color="#F6A88D"/>
<stop offset="0.73" stop-color="#F19B7D"/>
<stop offset="0.92" stop-color="#EB8966"/>
<stop offset="1" stop-color="#E8805A"/>
</linearGradient>
<linearGradient id="paint8_linear_163_1326" x1="104.065" y1="228.931" x2="109.854" y2="269.156" gradientUnits="userSpaceOnUse">
<stop stop-color="#F8CF66"/>
<stop offset="1" stop-color="#FF7C1A"/>
</linearGradient>
<linearGradient id="paint9_linear_163_1326" x1="143.647" y1="180.691" x2="147.377" y2="198.929" gradientUnits="userSpaceOnUse">
<stop stop-color="#F9B29A"/>
<stop offset="0.3" stop-color="#F8B097"/>
<stop offset="0.52" stop-color="#F6A88D"/>
<stop offset="0.73" stop-color="#F19B7D"/>
<stop offset="0.92" stop-color="#EB8966"/>
<stop offset="1" stop-color="#E8805A"/>
</linearGradient>
<linearGradient id="paint10_linear_163_1326" x1="138.998" y1="188.14" x2="169.215" y2="188.14" gradientUnits="userSpaceOnUse">
<stop stop-color="#F9B29A"/>
<stop offset="0.3" stop-color="#F8B097"/>
<stop offset="0.52" stop-color="#F6A88D"/>
<stop offset="0.73" stop-color="#F19B7D"/>
<stop offset="0.92" stop-color="#EB8966"/>
<stop offset="1" stop-color="#E8805A"/>
</linearGradient>
<linearGradient id="paint11_linear_163_1326" x1="147.733" y1="205.456" x2="155.57" y2="331.272" gradientUnits="userSpaceOnUse">
<stop stop-color="#F8CF66"/>
<stop offset="1" stop-color="#FF7C1A"/>
</linearGradient>
<linearGradient id="paint12_linear_163_1326" x1="242.523" y1="244.94" x2="237.864" y2="257.26" gradientUnits="userSpaceOnUse">
<stop stop-color="#F9B29A"/>
<stop offset="0.3" stop-color="#F8B097"/>
<stop offset="0.52" stop-color="#F6A88D"/>
<stop offset="0.73" stop-color="#F19B7D"/>
<stop offset="0.92" stop-color="#EB8966"/>
<stop offset="1" stop-color="#E8805A"/>
</linearGradient>
<linearGradient id="paint13_linear_163_1326" x1="245.716" y1="253.086" x2="182.63" y2="270.895" gradientUnits="userSpaceOnUse">
<stop stop-color="#F9B29A"/>
<stop offset="0.3" stop-color="#F8B097"/>
<stop offset="0.52" stop-color="#F6A88D"/>
<stop offset="0.73" stop-color="#F19B7D"/>
<stop offset="0.92" stop-color="#EB8966"/>
<stop offset="1" stop-color="#E8805A"/>
</linearGradient>
<linearGradient id="paint14_linear_163_1326" x1="252.181" y1="270.968" x2="188.125" y2="289.052" gradientUnits="userSpaceOnUse">
<stop stop-color="#F9B29A"/>
<stop offset="0.3" stop-color="#F8B097"/>
<stop offset="0.52" stop-color="#F6A88D"/>
<stop offset="0.73" stop-color="#F19B7D"/>
<stop offset="0.92" stop-color="#EB8966"/>
<stop offset="1" stop-color="#E8805A"/>
</linearGradient>
<linearGradient id="paint15_linear_163_1326" x1="196.699" y1="221.912" x2="184.609" y2="276.48" gradientUnits="userSpaceOnUse">
<stop stop-color="#F8CF66"/>
<stop offset="1" stop-color="#FF7C1A"/>
</linearGradient>
</defs>
</svg>
