<svg width="20" height="20" viewBox="0 0 20 20" fill="none" xmlns="http://www.w3.org/2000/svg">
<path d="M15.3125 13.75V12.9688C15.3125 12.5373 14.9627 12.1875 14.5312 12.1875C14.0998 12.1875 13.75 12.5373 13.75 12.9688V14.5312C13.75 14.9627 14.0998 15.3125 14.5312 15.3125H16.0938C16.5252 15.3125 16.875 14.9627 16.875 14.5312C16.875 14.0998 16.5252 13.75 16.0938 13.75H15.3125Z" fill="#7A7A7A"/>
<path d="M3.125 16.875H6.87574C7.30723 16.875 7.65699 16.5252 7.65699 16.0938C7.65699 15.6623 7.30723 15.3125 6.87574 15.3125H3.125C2.26344 15.3125 1.5625 14.6116 1.5625 13.75V4.6875C1.5625 3.82594 2.26344 3.125 3.125 3.125V3.90625C3.125 4.33773 3.47477 4.6875 3.90625 4.6875C4.33773 4.6875 4.6875 4.33773 4.6875 3.90625V3.125H7.65625V3.90625C7.65625 4.33773 8.00602 4.6875 8.4375 4.6875C8.86898 4.6875 9.21875 4.33773 9.21875 3.90625V3.125H12.1875V3.90625C12.1875 4.33773 12.5373 4.6875 12.9688 4.6875C13.4002 4.6875 13.75 4.33773 13.75 3.90625V3.125C14.6116 3.125 15.3125 3.82594 15.3125 4.6875V6.71875C15.3125 7.15023 15.6623 7.5 16.0938 7.5C16.5252 7.5 16.875 7.15023 16.875 6.71875V4.6875C16.875 2.96438 15.4731 1.5625 13.75 1.5625V0.78125C13.75 0.349766 13.4002 0 12.9688 0C12.5373 0 12.1875 0.349766 12.1875 0.78125V1.5625H9.21875V0.78125C9.21875 0.349766 8.86898 0 8.4375 0C8.00602 0 7.65625 0.349766 7.65625 0.78125V1.5625H4.6875V0.78125C4.6875 0.349766 4.33773 0 3.90625 0C3.47477 0 3.125 0.349766 3.125 0.78125V1.5625C1.40188 1.5625 0 2.96438 0 4.6875V13.75C0 15.4731 1.40188 16.875 3.125 16.875Z" fill="#7A7A7A"/>
<path d="M14.5312 9.0625C11.5158 9.0625 9.0625 11.5158 9.0625 14.5312C9.0625 17.5467 11.5158 20 14.5312 20C17.5467 20 20 17.5467 20 14.5312C20 11.5158 17.5467 9.0625 14.5312 9.0625ZM14.5312 18.4375C12.3773 18.4375 10.625 16.6852 10.625 14.5312C10.625 12.3773 12.3773 10.625 14.5312 10.625C16.6852 10.625 18.4375 12.3773 18.4375 14.5312C18.4375 16.6852 16.6852 18.4375 14.5312 18.4375Z" fill="#7A7A7A"/>
<path d="M3.90625 7.5C4.33772 7.5 4.6875 7.15022 4.6875 6.71875C4.6875 6.28728 4.33772 5.9375 3.90625 5.9375C3.47478 5.9375 3.125 6.28728 3.125 6.71875C3.125 7.15022 3.47478 7.5 3.90625 7.5Z" fill="#7A7A7A"/>
<path d="M6.875 7.5C7.30647 7.5 7.65625 7.15022 7.65625 6.71875C7.65625 6.28728 7.30647 5.9375 6.875 5.9375C6.44353 5.9375 6.09375 6.28728 6.09375 6.71875C6.09375 7.15022 6.44353 7.5 6.875 7.5Z" fill="#7A7A7A"/>
<path d="M10 7.5C10.4315 7.5 10.7812 7.15022 10.7812 6.71875C10.7812 6.28728 10.4315 5.9375 10 5.9375C9.56853 5.9375 9.21875 6.28728 9.21875 6.71875C9.21875 7.15022 9.56853 7.5 10 7.5Z" fill="#7A7A7A"/>
<path d="M3.90625 10.625C4.33772 10.625 4.6875 10.2752 4.6875 9.84375C4.6875 9.41228 4.33772 9.0625 3.90625 9.0625C3.47478 9.0625 3.125 9.41228 3.125 9.84375C3.125 10.2752 3.47478 10.625 3.90625 10.625Z" fill="#7A7A7A"/>
<path d="M6.875 10.625C7.30647 10.625 7.65625 10.2752 7.65625 9.84375C7.65625 9.41228 7.30647 9.0625 6.875 9.0625C6.44353 9.0625 6.09375 9.41228 6.09375 9.84375C6.09375 10.2752 6.44353 10.625 6.875 10.625Z" fill="#7A7A7A"/>
<path d="M3.90625 13.75C4.33772 13.75 4.6875 13.4002 4.6875 12.9688C4.6875 12.5373 4.33772 12.1875 3.90625 12.1875C3.47478 12.1875 3.125 12.5373 3.125 12.9688C3.125 13.4002 3.47478 13.75 3.90625 13.75Z" fill="#7A7A7A"/>
<path d="M6.875 13.75C7.30647 13.75 7.65625 13.4002 7.65625 12.9688C7.65625 12.5373 7.30647 12.1875 6.875 12.1875C6.44353 12.1875 6.09375 12.5373 6.09375 12.9688C6.09375 13.4002 6.44353 13.75 6.875 13.75Z" fill="#7A7A7A"/>
<path d="M12.9688 7.5C13.4002 7.5 13.75 7.15022 13.75 6.71875C13.75 6.28728 13.4002 5.9375 12.9688 5.9375C12.5373 5.9375 12.1875 6.28728 12.1875 6.71875C12.1875 7.15022 12.5373 7.5 12.9688 7.5Z" fill="#7A7A7A"/>
</svg>
