<svg width="24" height="24" viewBox="0 0 24 24" fill="none" xmlns="http://www.w3.org/2000/svg">
<path d="M18.8906 5.39062H5.10937C3.94626 5.39062 3 6.33689 3 7.5V16.5C3 17.6631 3.94626 18.6094 5.10937 18.6094H18.8906C20.0537 18.6094 21 17.6631 21 16.5V7.5C21 6.33689 20.0537 5.39062 18.8906 5.39062ZM19.5937 16.5C19.5937 16.8877 19.2783 17.2031 18.8906 17.2031H5.10937C4.72167 17.2031 4.40625 16.8877 4.40625 16.5V7.5C4.40625 7.1123 4.72167 6.79688 5.10937 6.79688H18.8906C19.2783 6.79688 19.5937 7.1123 19.5937 7.5V16.5Z" fill="#646F79"/>
<path d="M19.4736 6.26733L11.9992 11.8268L4.52487 6.26733L3.68555 7.39567L11.9992 13.5794L20.3129 7.39567L19.4736 6.26733Z" fill="#646F79"/>
</svg>
