<svg width="21" height="17" viewBox="0 0 21 17" fill="none" xmlns="http://www.w3.org/2000/svg">
<path d="M13.4913 16.0216H5.2413C4.67559 16.0012 4.141 15.7575 3.75448 15.3439C3.36797 14.9303 3.16098 14.3805 3.1788 13.8147V8.16347C3.1788 7.98113 3.25123 7.80626 3.38016 7.67733C3.50909 7.5484 3.68396 7.47597 3.8663 7.47597C4.04863 7.47597 4.2235 7.5484 4.35243 7.67733C4.48136 7.80626 4.5538 7.98113 4.5538 8.16347V13.8147C4.53915 14.0152 4.60246 14.2137 4.73055 14.3687C4.85863 14.5237 5.0416 14.6232 5.2413 14.6466H13.4913C13.691 14.6232 13.874 14.5237 14.002 14.3687C14.1301 14.2137 14.1934 14.0152 14.1788 13.8147V8.16347C14.1788 7.98113 14.2512 7.80626 14.3802 7.67733C14.5091 7.5484 14.684 7.47597 14.8663 7.47597C15.0486 7.47597 15.2235 7.5484 15.3524 7.67733C15.4814 7.80626 15.5538 7.98113 15.5538 8.16347V13.8147C15.5716 14.3805 15.3646 14.9303 14.9781 15.3439C14.5916 15.7575 14.057 16.0012 13.4913 16.0216Z" fill="#747474"/>
<path d="M9.36666 11.1486C9.18041 11.1485 8.99612 11.1106 8.82491 11.0372L0.833406 7.61211C0.592401 7.50883 0.38595 7.3388 0.238394 7.12206C0.0908377 6.90532 0.00832997 6.6509 0.000598122 6.38881C-0.00713373 6.12673 0.0602326 5.86789 0.194755 5.64283C0.329277 5.41776 0.525347 5.23586 0.759845 5.11855L8.75134 1.1228C8.94256 1.02783 9.15316 0.978409 9.36666 0.978409C9.58016 0.978409 9.79076 1.02783 9.98197 1.1228L18.6362 5.45061C18.8121 5.5386 18.9591 5.67501 19.0599 5.84378C19.1608 6.01255 19.2113 6.20664 19.2056 6.40317C19.1998 6.5997 19.1379 6.79048 19.0273 6.95303C18.9167 7.11558 18.7619 7.24311 18.5812 7.32061L9.90772 11.0372C9.73676 11.1106 9.55269 11.1485 9.36666 11.1486ZM9.36666 2.35274L1.37516 6.34849L9.36666 9.77361L17.3582 6.34849L9.36666 2.35274Z" fill="#747474"/>
<path d="M18.3037 11.8966C18.1214 11.8966 17.9465 11.8242 17.8176 11.6953C17.6886 11.5663 17.6162 11.3915 17.6162 11.2091V6.39662C17.6162 6.21429 17.6886 6.03942 17.8176 5.91049C17.9465 5.78155 18.1214 5.70912 18.3037 5.70912C18.486 5.70912 18.6609 5.78155 18.7898 5.91049C18.9188 6.03942 18.9912 6.21429 18.9912 6.39662V11.2091C18.9912 11.3915 18.9188 11.5663 18.7898 11.6953C18.6609 11.8242 18.486 11.8966 18.3037 11.8966Z" fill="#747474"/>
<path d="M18.3037 15.334C17.7567 15.334 17.2321 15.1167 16.8453 14.7299C16.4585 14.3431 16.2412 13.8185 16.2412 13.2715C16.2412 12.2925 17.4581 11.0632 17.8314 10.7099C17.9591 10.589 18.1282 10.5216 18.3041 10.5216C18.4799 10.5216 18.649 10.589 18.7767 10.7099C19.1493 11.0632 20.3662 12.2925 20.3662 13.2715C20.3662 13.8185 20.1489 14.3431 19.7621 14.7299C19.3753 15.1167 18.8507 15.334 18.3037 15.334ZM18.3037 12.2052C18.0001 12.5067 17.7655 12.8705 17.6162 13.2715C17.6162 13.4538 17.6886 13.6287 17.8176 13.7576C17.9465 13.8866 18.1214 13.959 18.3037 13.959C18.486 13.959 18.6609 13.8866 18.7898 13.7576C18.9188 13.6287 18.9912 13.4538 18.9912 13.2715C18.8421 12.8704 18.6075 12.5065 18.3037 12.2052Z" fill="#747474"/>
</svg>
