<svg width="40" height="40" viewBox="0 0 40 40" fill="none" xmlns="http://www.w3.org/2000/svg">
<path d="M23.3795 12.1939L23.3796 12.1939C25.0608 13.8751 25.0608 16.6102 23.3796 18.2912L23.3795 12.1939ZM23.3795 12.1939C22.5654 11.38 21.4824 10.9311 20.3309 10.9311C19.1796 10.9311 18.0963 11.3798 17.2823 12.1939L23.3795 12.1939ZM17.2823 18.2912C17.2823 18.2912 17.2823 18.2912 17.2823 18.2912C18.1228 19.1319 19.2273 19.5521 20.3309 19.5521C21.4346 19.5521 22.5389 19.1319 23.3796 18.2912L17.2823 18.2912ZM17.2823 18.2912C15.6011 16.6102 15.6011 13.8752 17.2823 12.194L17.2823 18.2912ZM20.2164 33.6819L20.3427 33.8302L20.4667 33.68L21.0897 32.9253L21.0898 32.9253C21.2772 32.6982 23.5543 29.9207 25.7855 26.3963C26.901 24.6342 28.0071 22.6821 28.8348 20.7665C29.6613 18.8536 30.2162 16.9635 30.2162 15.3292C30.2162 9.8784 25.782 5.44416 20.3312 5.44416C14.8804 5.44416 10.4461 9.8784 10.4461 15.3292C10.4461 17.0455 11.0009 18.9778 11.8285 20.9092C12.6571 22.8428 13.7644 24.7873 14.8811 26.5311C17.1147 30.0187 19.3943 32.7161 19.582 32.9368L19.5821 32.9368L20.2164 33.6819ZM23.9629 25.5883L24.1004 25.6764L23.9629 25.5883C22.5651 27.7689 21.1533 29.6568 20.3206 30.73C19.4901 29.6861 18.093 27.8586 16.7055 25.7211C13.8826 21.3722 12.4134 17.7827 12.4134 15.3292C12.4134 10.9635 15.9654 7.4114 20.3312 7.4114C24.6969 7.4114 28.249 10.9635 28.249 15.3292C28.249 16.4828 27.885 17.9467 27.1634 19.6782C26.4428 21.4076 25.37 23.3935 23.9629 25.5883ZM18.6734 13.585C19.1303 13.1281 19.7302 12.8996 20.3309 12.8996C20.9316 12.8996 21.5316 13.1281 21.9885 13.585C22.9025 14.499 22.9025 15.9864 21.9885 16.9003C21.5456 17.3432 20.9575 17.5868 20.3309 17.5868C19.7044 17.5868 19.1162 17.3432 18.6734 16.9003C17.7594 15.9864 17.7594 14.499 18.6734 13.585Z" fill="#646F79" stroke="#646F79" stroke-width="0.326531"/>
</svg>
