<svg width="64" height="64" viewBox="0 0 64 64" fill="none" xmlns="http://www.w3.org/2000/svg">
<g id="fi_8371426">
<g id="Layer 2">
<path id="Vector" d="M32 60.2854C31.2054 60.2855 30.424 60.0817 29.7307 59.6934L22.1174 55.4667C17.2332 52.7512 13.1636 48.7797 10.3299 43.9632C7.49616 39.1467 6.00129 33.6603 6.00004 28.072V15.6427C5.99572 14.5537 6.37415 13.4978 7.0692 12.6594C7.76426 11.8211 8.73176 11.2536 9.8027 11.056C11.6381 10.6895 13.4487 10.2085 15.224 9.61604C16.0694 9.34937 17.0134 9.06937 18.1014 8.74937C22.1742 7.54784 26.137 6.00089 29.9467 4.12537C30.5851 3.80964 31.2878 3.64539 32 3.64539C32.7123 3.64539 33.4149 3.80964 34.0534 4.12537C37.8631 6.00089 41.8259 7.54784 45.8987 8.74937C46.9867 9.06937 47.9307 9.35737 48.776 9.61604C50.5514 10.2085 52.362 10.6895 54.1974 11.056C55.2683 11.2536 56.2358 11.8211 56.9309 12.6594C57.6259 13.4978 58.0043 14.5537 58 15.6427V28.072C57.9988 33.6603 56.5039 39.1467 53.6702 43.9632C50.8365 48.7797 46.7669 52.7512 41.8827 55.4667L34.2667 59.696C33.5737 60.0825 32.7935 60.2854 32 60.2854ZM31.7147 7.7147C27.6999 9.68985 23.5238 11.3189 19.232 12.584C18.1654 12.9014 17.2294 13.1867 16.3947 13.4427C14.4671 14.0819 12.5015 14.6003 10.5094 14.9947C10.3627 15.0273 10.2319 15.1097 10.139 15.2278C10.0462 15.3459 9.99707 15.4925 10 15.6427V28.072C10.0014 32.9462 11.3055 37.7313 13.7773 41.9322C16.2491 46.1331 19.7987 49.597 24.0587 51.9654L31.6774 56.1974C31.7755 56.2525 31.8862 56.2815 31.9987 56.2815C32.1113 56.2815 32.2219 56.2525 32.32 56.1974L39.9414 51.9627C44.2014 49.5943 47.751 46.1304 50.2228 41.9295C52.6945 37.7287 53.9986 32.9435 54 28.0694V15.6427C54.003 15.4925 53.9539 15.3459 53.8611 15.2278C53.7682 15.1097 53.6374 15.0273 53.4907 14.9947C51.4986 14.6003 49.533 14.0819 47.6054 13.4427C46.7707 13.176 45.84 12.9094 44.768 12.584C40.4762 11.3189 36.3002 9.68985 32.2854 7.7147C32.1971 7.66932 32.0993 7.64564 32 7.64564C31.9008 7.64564 31.803 7.66932 31.7147 7.7147Z" fill="#5A5A5A"/>
<path id="Vector_2" d="M29.3334 36.6667C29.0707 36.6674 28.8105 36.6158 28.5679 36.5151C28.3253 36.4144 28.1051 36.2665 27.92 36.08L22.5867 30.7467C22.2334 30.3676 22.0411 29.8661 22.0502 29.348C22.0594 28.8298 22.2693 28.3355 22.6357 27.969C23.0022 27.6026 23.4965 27.3927 24.0146 27.3836C24.5328 27.3744 25.0342 27.5668 25.4134 27.92L29.3334 31.8374L38.5867 22.5867C38.9658 22.2334 39.4673 22.0411 39.9854 22.0502C40.5036 22.0594 40.9979 22.2693 41.3644 22.6357C41.7308 23.0022 41.9407 23.4965 41.9498 24.0146C41.959 24.5328 41.7667 25.0342 41.4134 25.4134L30.7467 36.08C30.5617 36.2665 30.3415 36.4144 30.0989 36.5151C29.8563 36.6158 29.5961 36.6674 29.3334 36.6667Z" fill="#5A5A5A"/>
</g>
</g>
</svg>
