<svg width="30" height="38" viewBox="0 0 30 38" fill="none" xmlns="http://www.w3.org/2000/svg">
<path d="M19.5431 2.72888H18.2597C17.8069 1.45298 16.5878 0.536743 15.1588 0.536743C13.7298 0.536743 12.5107 1.45298 12.0579 2.72888H10.7745C8.96134 2.72888 7.48633 4.2039 7.48633 6.01709C7.48633 6.62292 7.97656 7.11315 8.5824 7.11315H21.7352C22.3411 7.11315 22.8313 6.62292 22.8313 6.01709C22.8313 4.2039 21.3563 2.72888 19.5431 2.72888Z" fill="#D96A27"/>
<path d="M26.1217 4.92102H24.9147C24.987 5.27534 25.0256 5.6418 25.0256 6.01709C25.0256 7.83028 23.5506 9.30529 21.7374 9.30529H8.58459C6.7714 9.30529 5.29638 7.83028 5.29638 6.01709C5.29638 5.6418 5.33504 5.27534 5.40731 4.92102H4.20032C2.38713 4.92102 0.912109 6.39604 0.912109 8.20923V34.661C0.912109 36.4742 2.38713 37.9492 4.20032 37.9492H26.1217C27.9349 37.9492 29.4099 36.4742 29.4099 34.661V8.20923C29.4099 6.39604 27.9349 4.92102 26.1217 4.92102ZM11.8728 31.2267H7.48852C6.88269 31.2267 6.39245 30.7364 6.39245 30.1306C6.39245 29.5248 6.88269 29.0345 7.48852 29.0345H11.8728C12.4786 29.0345 12.9689 29.5248 12.9689 30.1306C12.9689 30.7364 12.4786 31.2267 11.8728 31.2267ZM11.8728 23.5542H7.48852C6.88269 23.5542 6.39245 23.064 6.39245 22.4581C6.39245 21.8523 6.88269 21.362 7.48852 21.362H11.8728C12.4786 21.362 12.9689 21.8523 12.9689 22.4581C12.9689 23.064 12.4786 23.5542 11.8728 23.5542ZM11.8728 15.8817H7.48852C6.88269 15.8817 6.39245 15.3915 6.39245 14.7856C6.39245 14.1798 6.88269 13.6896 7.48852 13.6896H11.8728C12.4786 13.6896 12.9689 14.1798 12.9689 14.7856C12.9689 15.3915 12.4786 15.8817 11.8728 15.8817ZM22.5123 31.5478C22.9405 31.9759 22.9405 32.6696 22.5123 33.0977C22.2982 33.3118 22.0178 33.4189 21.7374 33.4189C21.457 33.4189 21.1765 33.3118 20.9625 33.0977L19.5453 31.6805L18.1281 33.0977C17.914 33.3118 17.6335 33.4189 17.3531 33.4189C17.0728 33.4189 16.7922 33.3118 16.5782 33.0977C16.1501 32.6696 16.1501 31.9759 16.5782 31.5478L17.9954 30.1306L16.5781 28.7134C16.15 28.2853 16.15 27.5916 16.5781 27.1635C17.0063 26.7353 17.6999 26.7353 18.1281 27.1635L19.5453 28.5807L20.9625 27.1635C21.3906 26.7353 22.0843 26.7353 22.5124 27.1635C22.9405 27.5916 22.9405 28.2853 22.5124 28.7134L21.0952 30.1306L22.5123 31.5478ZM23.6084 21.0409L20.3202 24.3291C20.1061 24.5432 19.8257 24.6503 19.5453 24.6503C19.2649 24.6503 18.9844 24.5432 18.7704 24.3291L16.5782 22.137C16.1501 21.7088 16.1501 21.0152 16.5782 20.5871C17.0063 20.1589 17.7 20.1589 18.1281 20.5871L19.5453 22.0043L22.0586 19.491C22.4867 19.0629 23.1803 19.0629 23.6085 19.491C24.0366 19.9191 24.0366 20.6128 23.6084 21.0409ZM23.6084 14.4645L20.3202 17.7527C20.1061 17.9668 19.8257 18.0738 19.5453 18.0738C19.2649 18.0738 18.9844 17.9668 18.7704 17.7527L16.5782 15.5606C16.1501 15.1324 16.1501 14.4388 16.5782 14.0106C17.0063 13.5825 17.7 13.5825 18.1281 14.0106L19.5453 15.4279L22.0586 12.9146C22.4867 12.4865 23.1803 12.4865 23.6085 12.9146C24.0366 13.3427 24.0366 14.0364 23.6084 14.4645Z" fill="#D96A27"/>
</svg>
