<svg width="40" height="43" viewBox="0 0 40 43" fill="none" xmlns="http://www.w3.org/2000/svg">
<path d="M29.9353 23.2087C24.5097 23.2087 20.0957 27.6228 20.0957 33.0484C20.0957 38.474 24.5097 42.888 29.9353 42.888C35.4065 42.888 39.8576 38.474 39.8576 33.0484C39.8576 27.6228 35.4065 23.2087 29.9353 23.2087ZM32.9553 31.8579L29.6478 35.8269C29.4107 36.1114 29.0607 36.2731 28.6951 36.2731C28.6476 36.2731 28.5999 36.2704 28.552 36.2648C28.1362 36.2166 27.7728 35.9619 27.5856 35.5875L26.2627 32.9415C25.9563 32.3289 26.2047 31.5838 26.8173 31.2776C27.4299 30.971 28.175 31.2195 28.4814 31.8322L28.9562 32.7819L31.0496 30.2699C31.4882 29.7437 32.2703 29.6727 32.7964 30.111C33.3227 30.5496 33.3938 31.3316 32.9553 31.8579Z" fill="#D96A27"/>
<path d="M29.4016 7.61849L24.3692 2.41432C24.3668 2.41184 24.3643 2.40928 24.3619 2.4068C23.2032 1.22853 21.5909 0.552734 19.9386 0.552734H3.97282C1.92113 0.552734 0.251953 2.22191 0.251953 4.2736V36.4384C0.251953 38.4901 1.92113 40.1593 3.97282 40.1593H19.8808C18.455 38.149 17.616 35.6949 17.616 33.0483C17.616 26.2549 23.1428 20.7281 29.9362 20.7281C30.3547 20.7281 30.7684 20.7491 31.1765 20.7895V11.9617C31.1765 10.3271 30.5462 8.78494 29.4016 7.61849ZM13.399 28.2525H6.78414C6.09917 28.2525 5.54385 27.6972 5.54385 27.0122C5.54385 26.3272 6.09917 25.7719 6.78414 25.7719H13.399C14.084 25.7719 14.6393 26.3272 14.6393 27.0122C14.6393 27.6972 14.084 28.2525 13.399 28.2525ZM13.399 21.6376H6.78414C6.09917 21.6376 5.54385 21.0823 5.54385 20.3973C5.54385 19.7124 6.09917 19.1571 6.78414 19.1571H13.399C14.084 19.1571 14.6393 19.7124 14.6393 20.3973C14.6393 21.0823 14.084 21.6376 13.399 21.6376ZM13.399 15.0228H6.78414C6.09917 15.0228 5.54385 14.4674 5.54385 13.7825C5.54385 13.0975 6.09917 12.5422 6.78414 12.5422H13.399C14.084 12.5422 14.6393 13.0975 14.6393 13.7825C14.6393 14.4674 14.084 15.0228 13.399 15.0228ZM21.3369 21.6376H20.0139C19.3289 21.6376 18.7736 21.0823 18.7736 20.3973C18.7736 19.7124 19.3289 19.1571 20.0139 19.1571H21.3369C22.0218 19.1571 22.5771 19.7124 22.5771 20.3973C22.5771 21.0823 22.0218 21.6376 21.3369 21.6376ZM21.3369 15.0228H20.0139C19.3289 15.0228 18.7736 14.4674 18.7736 13.7825C18.7736 13.0975 19.3289 12.5422 20.0139 12.5422H21.3369C22.0218 12.5422 22.5771 13.0975 22.5771 13.7825C22.5771 14.4674 22.0218 15.0228 21.3369 15.0228Z" fill="#D96A27"/>
</svg>
