<svg width="64" height="64" viewBox="0 0 64 64" fill="none" xmlns="http://www.w3.org/2000/svg">
<g id="Pdf">
<path id="Vector" d="M32.0003 27.6187L33.172 25.5894C33.5245 24.9789 33.2893 24.4399 33.172 24.2366C33.0546 24.0332 32.7053 23.5601 32.0003 23.5601C31.2953 23.5601 30.9461 24.0331 30.8287 24.2366C30.7113 24.4399 30.4762 24.9788 30.8287 25.5894L32.0003 27.6187Z" fill="#D78585"/>
<path id="Vector_2" d="M19.1803 44.4105C19.0629 44.6139 18.8278 45.1528 19.1803 45.7634C19.5327 46.3739 20.1169 46.4398 20.3518 46.4398C20.5867 46.4398 21.1709 46.3739 21.5234 45.7633L22.695 43.7341H20.3518C19.6469 43.7341 19.2978 44.2071 19.1803 44.4105Z" fill="#D78585"/>
<path id="Vector_3" d="M29.1914 39.9841H34.8097L32.0005 35.1187L29.1914 39.9841Z" fill="#D78585"/>
<path id="Vector_4" d="M42 16.25C40.9645 16.25 40.125 15.4105 40.125 14.375V0H13.25C10.1484 0 7.625 2.52338 7.625 5.625V58.375C7.625 61.4766 10.1484 64 13.25 64H50.75C53.8516 64 56.375 61.4766 56.375 58.375V16.25H42ZM48.0665 47.6385C47.1443 49.236 45.4922 50.1899 43.6475 50.1899C41.8026 50.1899 40.1506 49.2361 39.2282 47.6385L36.9741 43.7342H27.0259L24.7717 47.6385C23.8494 49.236 22.1973 50.1899 20.3525 50.1899H20.3524C18.5076 50.1899 16.8556 49.236 15.9334 47.6384C15.011 46.0409 15.0109 44.1331 15.9334 42.5356C16.8558 40.938 18.5078 39.9842 20.3525 39.9842H24.8608L29.8349 31.3687L27.5807 27.4645C26.6584 25.8669 26.6582 23.9593 27.5807 22.3616C28.5031 20.764 30.1551 19.8101 32 19.8101C33.8449 19.8101 35.4969 20.7639 36.4193 22.3616C37.3418 23.9593 37.3416 25.8669 36.4193 27.4645L34.165 31.3687L39.1391 39.9842H43.6474C45.4921 39.9842 47.1441 40.938 48.0665 42.5356C48.989 44.1333 48.9889 46.0409 48.0665 47.6385Z" fill="#D78585"/>
<path id="Vector_5" d="M43.6479 43.7341H41.3047L42.4763 45.7634C42.8288 46.3739 43.4131 46.4398 43.6479 46.4398C43.8828 46.4398 44.4671 46.3739 44.8194 45.7634C45.1719 45.1528 44.9368 44.6139 44.8194 44.4105C44.7021 44.2071 44.3528 43.7341 43.6479 43.7341Z" fill="#D78585"/>
<path id="Vector_6" d="M43.875 1.0979V12.5H55.2764L43.875 1.0979Z" fill="#D78585"/>
</g>
</svg>
