<svg width="43" height="39" viewBox="0 0 43 39" fill="none" xmlns="http://www.w3.org/2000/svg">
<path d="M25.5856 34.0143H17.3715C15.8762 34.0143 15.8762 31.7548 17.3715 31.7548H25.5856C27.0809 31.7548 27.0809 34.0143 25.5856 34.0143Z" fill="#D96A27"/>
<path d="M31.5267 38.538H11.432C9.93672 38.538 9.93672 36.2784 11.432 36.2784H31.5267C33.022 36.2784 33.022 38.538 31.5267 38.538Z" fill="#D96A27"/>
<path d="M20.3499 0.51062C15.37 0.780256 10.8856 2.79323 7.43555 5.90233L11.7412 10.208C14.0353 8.21356 16.9742 6.86187 20.3499 6.61182V0.51062Z" fill="#D96A27"/>
<path d="M6.55396 20.4145C6.79397 17.1231 8.09093 14.2068 10.1471 11.8077L5.83142 7.49207C2.70123 10.9687 0.710848 15.3552 0.448242 20.4145H6.55396Z" fill="#D96A27"/>
<path d="M6.54392 22.6741H0.448242C0.684236 27.1168 2.27092 31.201 4.83773 34.4969C5.22988 35 5.97602 35.0547 6.46257 34.642L9.37885 32.1716C9.85285 31.7699 9.89955 31.078 9.52447 30.5824C7.83586 28.3515 6.76434 25.6315 6.54392 22.6741Z" fill="#D96A27"/>
<path d="M39.523 10.6423C38.5037 11.8941 36.9908 13.7504 35.2997 15.8216C36.0373 17.5871 36.4697 19.5107 36.4697 21.5442C36.4697 24.9611 35.3263 28.1109 33.4012 30.632C33.0377 31.108 33.1406 31.7934 33.5986 32.179L36.5018 34.6228C36.9944 35.0376 37.7485 34.9808 38.1437 34.4722C40.9184 30.9017 42.5703 26.4158 42.5703 21.5437C42.5708 17.4907 41.4361 13.7876 39.523 10.6423Z" fill="#D96A27"/>
<path d="M38.1772 8.71275C34.4841 3.94717 28.8364 0.848122 22.6106 0.512207V6.61742C26.4824 6.91266 30.4597 8.71726 33.2836 12.3285C33.2836 12.3285 19.8319 22.3135 19.3534 22.7925C18.2533 23.8927 18.2533 25.6767 19.3534 26.7768C20.4536 27.877 22.2376 27.877 23.3377 26.7768C24.0507 26.0633 38.1772 8.71275 38.1772 8.71275ZM38.121 8.78204C38.1215 8.78204 38.1215 8.78154 38.1215 8.78154L38.121 8.78204Z" fill="#D96A27"/>
</svg>
