<svg width="16" height="17" viewBox="0 0 16 17" fill="none" xmlns="http://www.w3.org/2000/svg">
<path fill-rule="evenodd" clip-rule="evenodd" d="M0.31325 6.38852C0.31325 2.87812 3.15899 0.0323868 6.66938 0.0323868C10.1798 0.0323868 13.0255 2.87812 13.0255 6.38852C13.0255 8.25499 12.221 9.93356 10.9399 11.0964L15.6868 15.8433L14.5626 16.9676L9.61654 12.0216C8.73562 12.4834 7.73301 12.7447 6.66938 12.7447C3.15899 12.7447 0.31325 9.89892 0.31325 6.38852ZM6.66938 11.1556C4.03659 11.1556 1.90228 9.02132 1.90228 6.38852C1.90228 3.75572 4.03659 1.62142 6.66938 1.62142C9.30218 1.62142 11.4365 3.75572 11.4365 6.38852C11.4365 9.02132 9.30218 11.1556 6.66938 11.1556Z" fill="#FFF5FC"/>
</svg>
