<svg width="16" height="16" viewBox="0 0 16 16" fill="none" xmlns="http://www.w3.org/2000/svg">
<path fill-rule="evenodd" clip-rule="evenodd" d="M1.99817 6.35175C1.99817 3.61125 4.21977 1.38965 6.96027 1.38965C9.70076 1.38965 11.9223 3.61125 11.9223 6.35175C11.9223 7.80886 11.2943 9.11931 10.2941 10.0271L14 13.7329L13.1223 14.6106L9.26105 10.7494C8.57333 11.1099 7.79062 11.3139 6.96027 11.3139C4.21977 11.3139 1.99817 9.09222 1.99817 6.35175ZM6.96027 10.0733C4.9049 10.0733 3.2387 8.40712 3.2387 6.35175C3.2387 4.29637 4.9049 2.63017 6.96027 2.63017C9.01563 2.63017 10.6818 4.29637 10.6818 6.35175C10.6818 8.40712 9.01563 10.0733 6.96027 10.0733Z" fill="white"/>
</svg>
