<svg width="23" height="23" viewBox="0 0 23 23" fill="none" xmlns="http://www.w3.org/2000/svg">
<g clip-path="url(#clip0_982_653)">
<path d="M15.2734 21.6763H7.09162C5.96202 21.6344 5.96287 20.0132 7.09162 19.9717H15.2734C16.403 20.0136 16.4022 21.6348 15.2734 21.6763ZM16.978 18.2672H5.38618C2.56699 18.2672 0.273438 15.9736 0.273438 13.1544V6.16491C0.273438 3.34525 2.56741 1.05127 5.38707 1.05127H16.978C19.7976 1.05127 22.0916 3.34525 22.0916 6.16491V13.1535C22.0916 15.9732 19.7976 18.2672 16.978 18.2672ZM5.38707 2.75582C3.5073 2.75582 1.97798 4.28513 1.97798 6.16491V13.1544C1.97798 15.0337 3.50692 16.5626 5.38618 16.5626H16.978C18.8578 16.5626 20.3871 15.0333 20.3871 13.1535V6.16491C20.3871 4.28513 18.8578 2.75582 16.978 2.75582H5.38707ZM10.2484 13.4964C9.91401 13.4964 9.5794 13.4094 9.27288 13.2349C8.65418 12.8829 8.2848 12.2494 8.2848 11.5403V8.20431C8.2848 7.49522 8.65418 6.86172 9.27293 6.50965C9.89688 6.15459 10.6378 6.16162 11.2548 6.52823L14.0616 8.19626C15.3295 8.92295 15.3292 10.822 14.0616 11.5484L11.2548 13.2164C11.2548 13.2164 11.2548 13.2164 11.2548 13.2164C10.9408 13.403 10.5948 13.4964 10.2484 13.4964ZM10.2489 7.95464C10.1921 7.95464 10.1452 7.97445 10.1159 7.99111C10.0582 8.02397 9.98935 8.08763 9.98935 8.20427V11.5403C9.98935 11.6569 10.0582 11.7205 10.1159 11.7534C10.1663 11.7821 10.2681 11.8199 10.384 11.751L13.1908 10.083C13.3566 9.98147 13.3568 9.76316 13.1908 9.66148L10.3839 7.99346C10.3356 7.96478 10.2897 7.95464 10.2489 7.95464Z" fill="white"/>
</g>
<defs>
<clipPath id="clip0_982_653">
<rect width="21.8182" height="21.8182" fill="white" transform="translate(0.273438 0.45459)"/>
</clipPath>
</defs>
</svg>
