<svg width="23" height="21" viewBox="0 0 23 21" fill="none" xmlns="http://www.w3.org/2000/svg">
<path d="M15.2734 20.6763H7.09162C5.96202 20.6344 5.96287 19.0132 7.09162 18.9717H15.2734C16.403 19.0136 16.4022 20.6348 15.2734 20.6763ZM16.978 17.2672H5.38618C2.56699 17.2672 0.273438 14.9736 0.273438 12.1544V5.16491C0.273438 2.34525 2.56741 0.0512695 5.38707 0.0512695H16.978C19.7976 0.0512695 22.0916 2.34525 22.0916 5.16491V12.1535C22.0916 14.9732 19.7976 17.2672 16.978 17.2672ZM5.38707 1.75582C3.5073 1.75582 1.97798 3.28513 1.97798 5.16491V12.1544C1.97798 14.0337 3.50692 15.5626 5.38618 15.5626H16.978C18.8578 15.5626 20.3871 14.0333 20.3871 12.1535V5.16491C20.3871 3.28513 18.8578 1.75582 16.978 1.75582H5.38707ZM10.2484 12.4964C9.91401 12.4964 9.5794 12.4094 9.27288 12.2349C8.65418 11.8829 8.2848 11.2494 8.2848 10.5403V7.20431C8.2848 6.49522 8.65418 5.86172 9.27293 5.50965C9.89688 5.15459 10.6378 5.16162 11.2548 5.52823L14.0616 7.19626C15.3295 7.92295 15.3292 9.82198 14.0616 10.5484L11.2548 12.2164C11.2548 12.2164 11.2548 12.2164 11.2548 12.2164C10.9408 12.403 10.5948 12.4964 10.2484 12.4964ZM10.2489 6.95464C10.1921 6.95464 10.1452 6.97445 10.1159 6.99111C10.0582 7.02397 9.98935 7.08763 9.98935 7.20427V10.5403C9.98935 10.6569 10.0582 10.7205 10.1159 10.7534C10.1663 10.7821 10.2681 10.8199 10.384 10.751L13.1908 9.08297C13.3566 8.98147 13.3568 8.76316 13.1908 8.66148L10.3839 6.99346C10.3356 6.96478 10.2897 6.95464 10.2489 6.95464Z" fill="black"/>
</svg>
