<svg width="22" height="23" viewBox="0 0 22 23" fill="none" xmlns="http://www.w3.org/2000/svg">
<g id="Writing" clip-path="url(#clip0_982_658)">
<g id="Group">
<g id="Group_2">
<g id="Group_3">
<path id="Vector" d="M15.19 9.82981C15.19 9.3591 14.8084 8.97754 14.3377 8.97754H5.5593C5.08859 8.97754 4.70703 9.3591 4.70703 9.82981C4.70703 10.3005 5.08859 10.6821 5.5593 10.6821H14.3377C14.8084 10.6821 15.19 10.3005 15.19 9.82981Z" fill="black"/>
<path id="Vector_2" d="M5.5593 12.3867C5.08859 12.3867 4.70703 12.7683 4.70703 13.239C4.70703 13.7097 5.08859 14.0913 5.5593 14.0913H10.8907C11.3614 14.0913 11.743 13.7097 11.743 13.239C11.743 12.7683 11.3614 12.3867 10.8907 12.3867H5.5593Z" fill="black"/>
<path id="Vector_3" d="M7.56221 20.5685H4.71182C3.77194 20.5685 3.00728 19.8038 3.00728 18.8639V3.86392C3.00728 2.92404 3.77194 2.15938 4.71182 2.15938H15.19C16.1299 2.15938 16.8946 2.92404 16.8946 3.86392V9.1054C16.8946 9.57611 17.2762 9.95767 17.7469 9.95767C18.2176 9.95767 18.5991 9.57611 18.5991 9.1054V3.86392C18.5991 1.98415 17.0698 0.454834 15.19 0.454834H4.71182C2.83205 0.454834 1.30273 1.98415 1.30273 3.86392V18.8639C1.30273 20.7437 2.83205 22.273 4.71182 22.273H7.56221C8.03292 22.273 8.41448 21.8915 8.41448 21.4207C8.41448 20.95 8.03292 20.5685 7.56221 20.5685Z" fill="black"/>
<path id="Vector_4" d="M20.1086 12.7944C19.1117 11.7975 17.4896 11.7975 16.4934 12.7937L11.8143 17.4625C11.7149 17.5616 11.6416 17.6838 11.6008 17.8181L10.5817 21.1728C10.4914 21.4703 10.5701 21.7933 10.7872 22.0157C10.9498 22.1824 11.1707 22.2729 11.3973 22.2729C11.4731 22.2729 11.5496 22.2627 11.6248 22.2419L15.0647 21.289C15.2063 21.2498 15.3353 21.1747 15.4393 21.0709L20.1086 16.4103C21.1055 15.4134 21.1055 13.7914 20.1086 12.7944ZM14.3937 19.7062L12.6631 20.1856L13.1696 18.5181L16.3268 15.3679L17.5323 16.5735L14.3937 19.7062ZM18.9039 15.2046L18.7388 15.3693L17.5335 14.164L17.698 13.9998C18.0303 13.6675 18.571 13.6675 18.9033 13.9998C19.2356 14.3321 19.2356 14.8728 18.9039 15.2046Z" fill="black"/>
<path id="Vector_5" d="M14.3377 5.56836H5.5593C5.08859 5.56836 4.70703 5.94992 4.70703 6.42063C4.70703 6.89134 5.08859 7.2729 5.5593 7.2729H14.3377C14.8084 7.2729 15.19 6.89134 15.19 6.42063C15.19 5.94992 14.8084 5.56836 14.3377 5.56836Z" fill="black"/>
</g>
</g>
</g>
</g>
<defs>
<clipPath id="clip0_982_658">
<rect width="21.8182" height="21.8182" fill="white" transform="translate(0.169922 0.45459)"/>
</clipPath>
</defs>
</svg>
