<svg width="23" height="23" viewBox="0 0 23 23" fill="none" xmlns="http://www.w3.org/2000/svg">
<g clip-path="url(#clip0_1124_834)">
<path d="M15.44 9.82981C15.44 9.3591 15.0584 8.97754 14.5877 8.97754H5.8093C5.33859 8.97754 4.95703 9.3591 4.95703 9.82981C4.95703 10.3005 5.33859 10.6821 5.8093 10.6821H14.5877C15.0584 10.6821 15.44 10.3005 15.44 9.82981Z" fill="white"/>
<path d="M5.8093 12.3867C5.33859 12.3867 4.95703 12.7683 4.95703 13.239C4.95703 13.7097 5.33859 14.0913 5.8093 14.0913H11.1407C11.6114 14.0913 11.993 13.7097 11.993 13.239C11.993 12.7683 11.6114 12.3867 11.1407 12.3867H5.8093Z" fill="white"/>
<path d="M7.81221 20.5685H4.96182C4.02194 20.5685 3.25728 19.8038 3.25728 18.8639V3.86392C3.25728 2.92404 4.02194 2.15938 4.96182 2.15938H15.44C16.3799 2.15938 17.1446 2.92404 17.1446 3.86392V9.1054C17.1446 9.57611 17.5262 9.95767 17.9969 9.95767C18.4676 9.95767 18.8491 9.57611 18.8491 9.1054V3.86392C18.8491 1.98415 17.3198 0.454834 15.44 0.454834H4.96182C3.08205 0.454834 1.55273 1.98415 1.55273 3.86392V18.8639C1.55273 20.7437 3.08205 22.273 4.96182 22.273H7.81221C8.28292 22.273 8.66448 21.8915 8.66448 21.4207C8.66448 20.95 8.28292 20.5685 7.81221 20.5685Z" fill="white"/>
<path d="M20.3586 12.7944C19.3617 11.7975 17.7396 11.7975 16.7434 12.7937L12.0643 17.4625C11.9649 17.5616 11.8916 17.6838 11.8508 17.8181L10.8317 21.1728C10.7414 21.4703 10.8201 21.7933 11.0372 22.0157C11.1998 22.1824 11.4207 22.2729 11.6473 22.2729C11.7231 22.2729 11.7996 22.2627 11.8748 22.2419L15.3147 21.289C15.4563 21.2498 15.5853 21.1747 15.6893 21.0709L20.3586 16.4103C21.3555 15.4134 21.3555 13.7914 20.3586 12.7944ZM14.6437 19.7062L12.9131 20.1856L13.4196 18.5181L16.5768 15.3679L17.7823 16.5735L14.6437 19.7062ZM19.1539 15.2046L18.9888 15.3693L17.7835 14.164L17.948 13.9998C18.2803 13.6675 18.821 13.6675 19.1533 13.9998C19.4856 14.3321 19.4856 14.8728 19.1539 15.2046Z" fill="white"/>
<path d="M14.5877 5.56836H5.8093C5.33859 5.56836 4.95703 5.94992 4.95703 6.42063C4.95703 6.89134 5.33859 7.2729 5.8093 7.2729H14.5877C15.0584 7.2729 15.44 6.89134 15.44 6.42063C15.44 5.94992 15.0584 5.56836 14.5877 5.56836Z" fill="white"/>
</g>
<defs>
<clipPath id="clip0_1124_834">
<rect width="21.8182" height="21.8182" fill="white" transform="translate(0.419922 0.45459)"/>
</clipPath>
</defs>
</svg>
