<svg width="36" height="37" viewBox="0 0 36 37" fill="none" xmlns="http://www.w3.org/2000/svg">
<path d="M21.9338 6.80614H10.8898C9.84067 6.80614 8.98926 5.95472 8.98926 4.90555V2.00972C8.98926 0.960543 9.84067 0.109131 10.8898 0.109131H21.9338C22.983 0.109131 23.8344 0.960543 23.8344 2.00972V4.90555C23.8344 5.95601 22.983 6.80614 21.9338 6.80614Z" fill="#D96A27"/>
<path d="M34.7042 20.6432C33.5227 19.4617 31.5965 19.4617 30.415 20.6432L29.0127 22.0532L33.3044 26.3436L34.7042 24.9439C35.8985 23.7509 35.8985 21.8375 34.7042 20.6432Z" fill="#D96A27"/>
<path d="M27.6547 23.4171L20.1679 30.891C20.0138 31.058 19.9111 31.2635 19.8725 31.4818L19.3075 34.8078C19.1791 35.5398 19.8212 36.169 20.5531 36.0535L23.8792 35.4884C24.0975 35.4499 24.3029 35.3472 24.4571 35.1931L31.9438 27.7063L27.6547 23.4171Z" fill="#D96A27"/>
<path d="M27.359 3.46069H25.7602V4.9054C25.7602 7.01531 24.0433 8.73226 21.9334 8.73226H10.8894C8.7782 8.73226 7.06253 7.01531 7.06253 4.9054V3.46069H5.43804C2.90821 3.46069 0.853516 5.51538 0.853516 8.04522V31.4815C0.853516 34.0114 2.90821 36.0661 5.43804 36.0661H17.5825C17.3873 35.5639 17.3142 35.0194 17.4092 34.4762L17.9729 31.1592C18.0731 30.571 18.3428 30.0278 18.7486 29.5848L26.9224 21.4225L29.0477 19.2857C29.8375 18.4946 30.8507 18.0259 31.941 17.891V8.05806C31.9435 5.50254 29.9017 3.46069 27.359 3.46069ZM14.4119 22.509H8.83984C8.2016 22.509 7.68408 21.9914 7.68408 21.3532C7.68408 20.7149 8.2016 20.1974 8.83984 20.1974H14.4119C15.0501 20.1974 15.5677 20.7149 15.5677 21.3532C15.5677 21.9914 15.0501 22.509 14.4119 22.509ZM21.2335 15.9494H8.84112C8.20288 15.9494 7.68536 15.4318 7.68536 14.7936C7.68536 14.1554 8.20288 13.6378 8.84112 13.6378H21.2335C21.8717 13.6378 22.3892 14.1554 22.3892 14.7936C22.3892 15.4318 21.8717 15.9494 21.2335 15.9494Z" fill="#D96A27"/>
</svg>
