<svg width="100" height="100" viewBox="0 0 100 100" fill="none" xmlns="http://www.w3.org/2000/svg">
<g id="Fav-Icon">
<g id="Group 1116601644">
<g id="Group">
<g id="Group_2">
<g id="Group_3">
<path id="Vector" d="M22.8774 41.8115C22.975 41.911 24.6201 43.5927 25.758 44.8184C24.7813 43.6967 23.8083 42.695 22.8774 41.8115Z" fill="url(#paint0_linear_983_1015)"/>
<path id="Vector_2" d="M31.7898 53.9066C30.5964 51.4445 29.2201 49.2592 27.792 47.3427C28.1754 48.3748 28.5284 49.295 28.5284 50.4697C28.5284 55.9782 24.0629 60.4446 18.5535 60.4446C16.9058 60.4446 15.3512 60.045 13.9813 59.3372C10.7719 57.6796 8.57849 54.3304 8.57849 50.4697C8.57849 44.9611 13.0441 40.4947 18.5535 40.4947C20.1671 40.4947 21.521 41.1246 22.8694 41.8046C19.2416 38.3622 16.2633 36.7109 16.2633 36.7109C9.8481 37.9357 4.99994 43.5742 4.99994 50.346C4.99994 58.0129 11.2154 64.2275 18.8814 64.2275C25.0726 64.2275 30.3177 60.174 32.107 54.5759L31.7889 53.9058L31.7898 53.9066Z" fill="url(#paint1_linear_983_1015)"/>
<path id="Vector_3" d="M22.8713 41.8044H22.8704C22.8704 41.8044 22.8748 41.8088 22.8774 41.8105C22.8748 41.8079 22.8713 41.8044 22.8713 41.8044Z" fill="url(#paint2_linear_983_1015)"/>
<path id="Vector_4" d="M27.7507 47.2306L26.7006 45.8786C26.5205 45.6528 26.1729 45.2657 25.7581 44.8186C26.439 45.6008 27.1217 46.4421 27.7928 47.3426C27.7794 47.305 27.7651 47.2682 27.7516 47.2306H27.7507Z" fill="url(#paint3_linear_983_1015)"/>
</g>
<path id="Vector_5" d="M35.1558 79.7392C35.2544 76.1302 35.137 65.3068 30.5048 60.6351C30.3883 60.5177 30.1948 60.5249 30.0882 60.653C29.5936 61.2462 28.1501 62.8123 25.9648 63.7836C25.748 63.8804 25.7373 64.1841 25.9496 64.2916C27.721 65.193 32.984 68.7446 34.9148 79.7572C34.9399 79.9005 35.1505 79.8853 35.1549 79.7392H35.1558Z" fill="url(#paint4_linear_983_1015)"/>
<path id="Vector_6" d="M10.6548 47.7517L11.3626 47.9605C11.532 48.0107 11.6278 48.1907 11.5732 48.3583C11.2533 49.3385 10.4254 52.53 11.9594 55.6337C12.0095 55.7349 11.8796 55.829 11.8008 55.7475C10.9496 54.8631 9.21854 52.4287 10.2597 47.9829C10.3009 47.8064 10.4819 47.6997 10.6557 47.7517H10.6548Z" fill="url(#paint5_linear_983_1015)"/>
<path id="Vector_7" d="M10.8446 46.9822L11.5972 47.3021C11.7576 47.3702 11.9422 47.2931 12.0058 47.131L12.3328 46.3049C12.392 46.1543 12.3257 45.9832 12.1805 45.9124L11.4091 45.537C11.2496 45.4591 11.057 45.5316 10.9889 45.6956C10.8975 45.916 10.7738 46.2404 10.6699 46.6113C10.6278 46.7618 10.703 46.9204 10.8464 46.9813L10.8446 46.9822Z" fill="url(#paint6_linear_983_1015)"/>
</g>
<path id="Vector_8" d="M42.7607 81.2077C49.6822 79.0519 63.4561 76.4222 77.834 83.1009C78.2981 83.3168 78.85 83.1269 79.0785 82.669L95.8361 49.1548C96.0278 48.7704 95.9373 48.3045 95.613 48.0223C94.4079 46.9757 90.961 44.6238 83.4446 43.5504C83.2735 43.5262 83.1086 43.6284 83.054 43.7923L82.1016 46.6487C82.029 46.8655 82.175 47.094 82.4017 47.1191C83.5235 47.2427 86.6191 47.7015 89.876 49.213C90.3571 49.4361 90.5632 50.0087 90.3303 50.4853L77.2892 77.1811C77.0814 77.6067 76.5904 77.8128 76.1415 77.6614C72.7484 76.5181 58.6653 72.6394 42.4982 80.542C42.0995 80.7373 42.3369 81.3403 42.7607 81.2077Z" fill="url(#paint7_linear_983_1015)"/>
<g id="Group_4">
<path id="Vector_9" d="M55.961 35.9548C59.3676 34.3743 69.8819 30.543 83.9274 35.367C84.3592 35.5157 84.5931 35.9843 84.4515 36.4189L73.0501 71.5889C72.9175 71.9975 72.4973 72.2412 72.0771 72.1507C69.0074 71.4841 56.4601 69.7934 37.9822 80.9797C37.8604 81.0532 37.7305 80.8964 37.8263 80.7916C40.0815 78.3222 49.785 68.9852 69.7171 66.2748C70.0396 66.2309 70.3084 66.006 70.407 65.696L78.8238 39.0423C78.9475 38.6499 78.7701 38.2252 78.4018 38.0415C76.3402 37.0085 69.1571 34.1485 56.0775 36.3284C55.8508 36.366 55.7532 36.0533 55.961 35.9566V35.9548Z" fill="url(#paint8_linear_983_1015)"/>
<path id="Vector_10" d="M53.758 44.5003C55.5419 43.4905 61.0755 40.9164 69.2747 42.2487C69.5067 42.2863 69.6635 42.5067 69.6214 42.7379L69.1591 45.2466C69.1098 45.5137 68.824 45.6642 68.5767 45.5522C67.187 44.9241 62.6892 43.4 53.8512 44.7673C53.6935 44.7915 53.6192 44.5791 53.758 44.5003Z" fill="url(#paint9_linear_983_1015)"/>
<path id="Vector_11" d="M51.8619 52.4556C53.6458 51.4458 59.1793 48.8717 67.3785 50.204C67.6105 50.2416 67.7673 50.4621 67.7252 50.6932L67.2629 53.202C67.2136 53.469 66.9278 53.6195 66.6805 53.5075C65.2908 52.8794 60.793 51.3554 51.955 52.7226C51.7973 52.7468 51.723 52.5345 51.8619 52.4556Z" fill="url(#paint10_linear_983_1015)"/>
<path id="Vector_12" d="M49.6327 60.4104C51.4166 59.4007 56.9502 56.8265 65.1494 58.1588C65.3814 58.1965 65.5382 58.4169 65.4961 58.6481L65.0338 61.1568C64.9845 61.4238 64.6987 61.5743 64.4514 61.4623C63.0617 60.8342 58.5639 59.3102 49.7259 60.6775C49.5682 60.7016 49.4939 60.4893 49.6327 60.4104Z" fill="url(#paint11_linear_983_1015)"/>
</g>
<g id="Group_5">
<path id="Vector_13" d="M42.3576 44.7348C43.4767 41.1267 49.4063 24.6523 64.9041 22.7635C65.138 22.7349 65.2374 23.0529 65.0269 23.1605C61.2163 25.1065 48.5999 32.9984 44.4273 53.8416C44.3431 54.2636 43.7822 54.3586 43.5654 53.9868C42.2922 51.8015 38.5712 46.9658 28.5854 41.4878C28.4457 41.4116 28.314 41.5998 28.4349 41.7037C32.1972 44.9364 43.1604 56.6926 36.5955 79.6298C36.5552 79.7705 36.3456 79.7319 36.359 79.5859C36.9127 73.3911 37.6223 47.4425 12.6289 34.6488C12.3377 34.5 12.4201 34.0619 12.7454 34.0278C16.3105 33.6587 28.374 33.4517 41.6059 44.949C41.8603 45.1703 42.2581 45.0583 42.3585 44.7357L42.3576 44.7348Z" fill="url(#paint12_linear_983_1015)"/>
<path id="Vector_14" d="M36.7102 33.013C41.132 33.013 44.7167 29.4284 44.7167 25.0065C44.7167 20.5846 41.132 17 36.7102 17C32.2883 17 28.7037 20.5846 28.7037 25.0065C28.7037 29.4284 32.2883 33.013 36.7102 33.013Z" fill="url(#paint13_linear_983_1015)"/>
</g>
</g>
</g>
</g>
<defs>
<linearGradient id="paint0_linear_983_1015" x1="22.8774" y1="43.315" x2="25.7571" y2="43.315" gradientUnits="userSpaceOnUse">
<stop stop-color="#A04A9C"/>
<stop offset="0.09" stop-color="#9A4594"/>
<stop offset="0.54" stop-color="#812F70"/>
<stop offset="0.81" stop-color="#722E60"/>
<stop offset="0.95" stop-color="#6F2C5D"/>
<stop offset="1" stop-color="#6B2B5A"/>
</linearGradient>
<linearGradient id="paint1_linear_983_1015" x1="5.00083" y1="50.4697" x2="32.1079" y2="50.4697" gradientUnits="userSpaceOnUse">
<stop stop-color="#A04A9C"/>
<stop offset="0.09" stop-color="#9A4594"/>
<stop offset="0.54" stop-color="#812F70"/>
<stop offset="0.81" stop-color="#722E60"/>
<stop offset="0.95" stop-color="#6F2C5D"/>
<stop offset="1" stop-color="#6B2B5A"/>
</linearGradient>
<linearGradient id="paint2_linear_983_1015" x1="22.8696" y1="41.8079" x2="22.8774" y2="41.8079" gradientUnits="userSpaceOnUse">
<stop stop-color="#A04A9C"/>
<stop offset="0.09" stop-color="#9A4594"/>
<stop offset="0.54" stop-color="#812F70"/>
<stop offset="0.81" stop-color="#722E60"/>
<stop offset="0.95" stop-color="#6F2C5D"/>
<stop offset="1" stop-color="#6B2B5A"/>
</linearGradient>
<linearGradient id="paint3_linear_983_1015" x1="25.7572" y1="46.0801" x2="27.7919" y2="46.0801" gradientUnits="userSpaceOnUse">
<stop stop-color="#A04A9C"/>
<stop offset="0.09" stop-color="#9A4594"/>
<stop offset="0.54" stop-color="#812F70"/>
<stop offset="0.81" stop-color="#722E60"/>
<stop offset="0.95" stop-color="#6F2C5D"/>
<stop offset="1" stop-color="#6B2B5A"/>
</linearGradient>
<linearGradient id="paint4_linear_983_1015" x1="25.7973" y1="70.2051" x2="35.1747" y2="70.2051" gradientUnits="userSpaceOnUse">
<stop stop-color="#A04A9C"/>
<stop offset="0.09" stop-color="#9A4594"/>
<stop offset="0.54" stop-color="#812F70"/>
<stop offset="0.81" stop-color="#722E60"/>
<stop offset="0.95" stop-color="#6F2C5D"/>
<stop offset="1" stop-color="#6B2B5A"/>
</linearGradient>
<linearGradient id="paint5_linear_983_1015" x1="9.93533" y1="51.7586" x2="11.9701" y2="51.7586" gradientUnits="userSpaceOnUse">
<stop stop-color="#A04A9C"/>
<stop offset="0.09" stop-color="#9A4594"/>
<stop offset="0.54" stop-color="#812F70"/>
<stop offset="0.81" stop-color="#722E60"/>
<stop offset="0.95" stop-color="#6F2C5D"/>
<stop offset="1" stop-color="#6B2B5A"/>
</linearGradient>
<linearGradient id="paint6_linear_983_1015" x1="10.6565" y1="46.4178" x2="12.3543" y2="46.4178" gradientUnits="userSpaceOnUse">
<stop stop-color="#A04A9C"/>
<stop offset="0.09" stop-color="#9A4594"/>
<stop offset="0.54" stop-color="#812F70"/>
<stop offset="0.81" stop-color="#722E60"/>
<stop offset="0.95" stop-color="#6F2C5D"/>
<stop offset="1" stop-color="#6B2B5A"/>
</linearGradient>
<linearGradient id="paint7_linear_983_1015" x1="42.2939" y1="63.3687" x2="95.9355" y2="63.3687" gradientUnits="userSpaceOnUse">
<stop stop-color="#5BBCEB"/>
<stop offset="0.02" stop-color="#40B4E4"/>
<stop offset="0.05" stop-color="#29ADDD"/>
<stop offset="0.08" stop-color="#16A7D9"/>
<stop offset="0.12" stop-color="#09A3D5"/>
<stop offset="0.17" stop-color="#02A1D3"/>
<stop offset="0.28" stop-color="#00A1D3"/>
<stop offset="0.55" stop-color="#0B9BD0"/>
<stop offset="0.61" stop-color="#178EC8"/>
<stop offset="0.72" stop-color="#297DBE"/>
<stop offset="0.79" stop-color="#3077BB"/>
<stop offset="1" stop-color="#1552A0"/>
</linearGradient>
<linearGradient id="paint8_linear_983_1015" x1="37.7932" y1="57.005" x2="84.4927" y2="57.005" gradientUnits="userSpaceOnUse">
<stop stop-color="#5BBCEB"/>
<stop offset="0.02" stop-color="#40B4E4"/>
<stop offset="0.05" stop-color="#29ADDD"/>
<stop offset="0.08" stop-color="#16A7D9"/>
<stop offset="0.12" stop-color="#09A3D5"/>
<stop offset="0.17" stop-color="#02A1D3"/>
<stop offset="0.28" stop-color="#00A1D3"/>
<stop offset="0.55" stop-color="#0B9BD0"/>
<stop offset="0.61" stop-color="#178EC8"/>
<stop offset="0.72" stop-color="#297DBE"/>
<stop offset="0.79" stop-color="#3077BB"/>
<stop offset="1" stop-color="#1552A0"/>
</linearGradient>
<linearGradient id="paint9_linear_983_1015" x1="53.6846" y1="43.7315" x2="69.6277" y2="43.7315" gradientUnits="userSpaceOnUse">
<stop stop-color="#5BBCEB"/>
<stop offset="0.02" stop-color="#40B4E4"/>
<stop offset="0.05" stop-color="#29ADDD"/>
<stop offset="0.08" stop-color="#16A7D9"/>
<stop offset="0.12" stop-color="#09A3D5"/>
<stop offset="0.17" stop-color="#02A1D3"/>
<stop offset="0.28" stop-color="#00A1D3"/>
<stop offset="0.55" stop-color="#0B9BD0"/>
<stop offset="0.61" stop-color="#178EC8"/>
<stop offset="0.72" stop-color="#297DBE"/>
<stop offset="0.79" stop-color="#3077BB"/>
<stop offset="1" stop-color="#1552A0"/>
</linearGradient>
<linearGradient id="paint10_linear_983_1015" x1="51.7893" y1="51.6869" x2="67.7315" y2="51.6869" gradientUnits="userSpaceOnUse">
<stop stop-color="#5BBCEB"/>
<stop offset="0.02" stop-color="#40B4E4"/>
<stop offset="0.05" stop-color="#29ADDD"/>
<stop offset="0.08" stop-color="#16A7D9"/>
<stop offset="0.12" stop-color="#09A3D5"/>
<stop offset="0.17" stop-color="#02A1D3"/>
<stop offset="0.28" stop-color="#00A1D3"/>
<stop offset="0.55" stop-color="#0B9BD0"/>
<stop offset="0.61" stop-color="#178EC8"/>
<stop offset="0.72" stop-color="#297DBE"/>
<stop offset="0.79" stop-color="#3077BB"/>
<stop offset="1" stop-color="#1552A0"/>
</linearGradient>
<linearGradient id="paint11_linear_983_1015" x1="49.5602" y1="59.6426" x2="65.5024" y2="59.6426" gradientUnits="userSpaceOnUse">
<stop stop-color="#5BBCEB"/>
<stop offset="0.02" stop-color="#40B4E4"/>
<stop offset="0.05" stop-color="#29ADDD"/>
<stop offset="0.08" stop-color="#16A7D9"/>
<stop offset="0.12" stop-color="#09A3D5"/>
<stop offset="0.17" stop-color="#02A1D3"/>
<stop offset="0.28" stop-color="#00A1D3"/>
<stop offset="0.55" stop-color="#0B9BD0"/>
<stop offset="0.61" stop-color="#178EC8"/>
<stop offset="0.72" stop-color="#297DBE"/>
<stop offset="0.79" stop-color="#3077BB"/>
<stop offset="1" stop-color="#1552A0"/>
</linearGradient>
<linearGradient id="paint12_linear_983_1015" x1="12.4497" y1="51.2388" x2="65.1424" y2="51.2388" gradientUnits="userSpaceOnUse">
<stop stop-color="#EEEA5B"/>
<stop offset="0.37" stop-color="#F0C23D"/>
<stop offset="0.53" stop-color="#F09F2E"/>
<stop offset="0.68" stop-color="#F18322"/>
<stop offset="0.85" stop-color="#DE7025"/>
<stop offset="1" stop-color="#D26328"/>
</linearGradient>
<linearGradient id="paint13_linear_983_1015" x1="28.7037" y1="25.0065" x2="44.7167" y2="25.0065" gradientUnits="userSpaceOnUse">
<stop stop-color="#EEEA5B"/>
<stop offset="0.37" stop-color="#F0C23D"/>
<stop offset="0.53" stop-color="#F09F2E"/>
<stop offset="0.68" stop-color="#F18322"/>
<stop offset="0.85" stop-color="#DE7025"/>
<stop offset="1" stop-color="#D26328"/>
</linearGradient>
</defs>
</svg>
