<svg width="25" height="25" viewBox="0 0 25 25" fill="none" xmlns="http://www.w3.org/2000/svg">
<g id="fi_2068846" clip-path="url(#clip0_475_4434)">
<path id="Vector" d="M16.1835 11.0992L16.1651 2.19268C16.1626 0.983643 15.177 0 13.9679 0H2.19727C0.985693 0 0 0.985693 0 2.19722V11.0837C0 12.2952 0.985693 13.2809 2.19727 13.2809H3.71094V14.7457C3.71094 15.3479 4.40054 15.6933 4.88281 15.3316L7.61621 13.2816L13.9796 13.3009C15.2151 13.3009 16.186 12.3055 16.1835 11.0992ZM8.05664 10.3025C7.65215 10.3025 7.32422 9.97456 7.32422 9.57007C7.32422 9.16558 7.65215 8.83765 8.05664 8.83765C8.46113 8.83765 8.78906 9.16558 8.78906 9.57007C8.78906 9.97456 8.46113 10.3025 8.05664 10.3025ZM8.83789 7.24722V7.32402C8.83789 7.72852 8.50996 8.05645 8.10547 8.05645C7.70098 8.05645 7.37305 7.72852 7.37305 7.32402V6.86704C7.37305 6.3833 7.73257 5.96792 8.20933 5.90078C8.56768 5.85034 8.83789 5.53862 8.83789 5.17559C8.83789 4.64185 8.24971 4.18418 7.57676 4.6148C7.23594 4.83276 6.78306 4.7332 6.56509 4.39253C6.34712 4.05181 6.44663 3.59888 6.78735 3.38086C7.54273 2.89766 8.42944 2.8478 9.15952 3.24736C9.86465 3.63345 10.3027 4.37227 10.3027 5.17563C10.3027 6.11602 9.69692 6.94189 8.83789 7.24722Z" fill="#D96A27"/>
<path id="Vector_2" d="M22.8027 10.3025H17.6467L17.6483 11.0961C17.6521 12.9045 16.3569 14.372 14.6975 14.6969H21.2891C21.6936 14.6969 22.0215 15.0249 22.0215 15.4293C22.0215 15.8338 21.6936 16.1618 21.2891 16.1618H12.5C12.0955 16.1618 11.7676 15.8338 11.7676 15.4293C11.7676 15.1308 11.9465 14.8744 12.2028 14.7604L8.83789 14.7501V21.3374C8.83789 22.5489 9.82358 23.5346 11.0352 23.5346H15.9892L18.7643 24.9221C19.2498 25.1648 19.8242 24.8112 19.8242 24.267V23.5346H22.8027C24.0143 23.5346 25 22.5489 25 21.3374V12.4997C25 11.2881 24.0143 10.3025 22.8027 10.3025ZM21.2891 19.0913H12.5C12.0955 19.0913 11.7676 18.7634 11.7676 18.3589C11.7676 17.9544 12.0955 17.6265 12.5 17.6265H21.2891C21.6936 17.6265 22.0215 17.9544 22.0215 18.3589C22.0215 18.7634 21.6936 19.0913 21.2891 19.0913Z" fill="#D96A27"/>
</g>
<defs>
<clipPath id="clip0_475_4434">
<rect width="25" height="25" fill="white"/>
</clipPath>
</defs>
</svg>
