<svg width="22" height="22" viewBox="0 0 22 22" fill="none" xmlns="http://www.w3.org/2000/svg">
<g id="fi_3888875" clip-path="url(#clip0_475_4426)">
<g id="Question_2_">
<path id="Vector" d="M16.8438 11.6875C13.996 11.6875 11.6875 13.996 11.6875 16.8438C11.6875 19.6914 13.996 22 16.8438 22C19.6915 22 22 19.6914 22 16.8438C22 13.996 19.6915 11.6875 16.8438 11.6875ZM16.1992 19.0442L13.9987 16.8438L14.9102 15.9323L16.1992 17.2214L18.7773 14.6433L19.6888 15.5547L16.1992 19.0442Z" fill="#D96A27"/>
<path id="Vector_2" d="M9.75391 0C5.13391 0 1.375 3.84484 1.375 8.46484C1.375 10.4947 2.08686 12.4063 3.3917 13.915L0 16.8438H9.75391C9.97515 16.8438 10.1866 16.803 10.4042 16.7866C10.4358 13.2598 13.3096 10.3984 16.8438 10.3984C17.196 10.3984 17.5353 10.4478 17.8724 10.5025C18.0387 9.84006 18.1328 9.15707 18.1328 8.46484C18.1328 3.84484 14.3739 0 9.75391 0ZM10.3984 12.332H9.10938V11.043H10.3984V12.332ZM10.7213 8.20553C10.5224 8.32073 10.3984 8.53536 10.3984 8.76447V9.75391H9.10938V8.76447C9.10938 8.07649 9.47946 7.4351 10.0755 7.09019C10.2751 6.97499 10.3984 6.761 10.3984 6.53125C10.3984 6.17564 10.1095 5.88672 9.75391 5.88672C9.3983 5.88672 9.10938 6.17564 9.10938 6.53125H7.82031C7.82031 5.46502 8.68768 4.59766 9.75391 4.59766C10.8201 4.59766 11.6875 5.46502 11.6875 6.53125C11.6875 7.21922 11.3174 7.86122 10.7213 8.20553Z" fill="#D96A27"/>
</g>
</g>
<defs>
<clipPath id="clip0_475_4426">
<rect width="22" height="22" fill="white"/>
</clipPath>
</defs>
</svg>
