<svg width="23" height="23" viewBox="0 0 23 23" fill="none" xmlns="http://www.w3.org/2000/svg">
<g id="fi_39632">
<g id="Group">
<path id="Vector" d="M10.038 12.1999C13.4055 12.1999 16.137 9.46749 16.137 6.10336C16.137 2.73296 13.406 0 10.038 0C6.66811 0 3.94043 2.73346 3.94043 6.10336C3.94043 9.46749 6.6676 12.1999 10.038 12.1999Z" fill="#D96A27"/>
<path id="Vector_2" d="M17.7461 13.8738C17.424 13.184 17.0182 12.4902 16.5 11.8283C16.2212 11.4735 15.7126 11.0841 15.2208 10.8174C13.9459 12.2461 12.098 13.1508 10.0376 13.1508C7.9786 13.1508 6.13114 12.2461 4.85769 10.8207C4.37699 11.0938 3.8818 11.4832 3.61214 11.837C2.7372 12.9787 1.38684 15.1915 1.17147 18.1735C1.12628 18.8028 1.4258 19.7637 1.9517 20.1305C2.9497 20.8291 5.10237 21.7227 9.5847 21.7227C11.1365 21.7227 12.4441 21.627 13.5493 21.478C13.1032 20.7257 12.8421 19.8508 12.8421 18.9143C12.8416 16.1794 15.0294 13.9507 17.7461 13.8738Z" fill="#D96A27"/>
<path id="Vector_3" d="M17.7463 14.8276C15.4898 14.8276 13.6602 16.6573 13.6602 18.9138C13.6602 21.1703 15.4898 23 17.7463 23C20.0029 23 21.8325 21.1703 21.8325 18.9138C21.8325 16.6573 20.0033 14.8276 17.7463 14.8276ZM19.7635 19.6657H18.1872V21.2425C18.1872 21.5035 17.9752 21.715 17.7142 21.715C17.4532 21.715 17.2411 21.5035 17.2411 21.2425V19.6662L15.6649 19.6657C15.4033 19.6662 15.1918 19.4547 15.1923 19.1936C15.1923 18.9321 15.4038 18.7206 15.6649 18.7206H17.2416V17.1443C17.2416 16.8833 17.4532 16.6718 17.7142 16.6722C17.9747 16.6722 18.1867 16.8832 18.1872 17.1447V18.7206H19.763C20.024 18.7206 20.2356 18.9321 20.2361 19.1936C20.236 19.4542 20.0245 19.6657 19.7635 19.6657Z" fill="#D96A27"/>
</g>
</g>
</svg>
