<svg width="18" height="18" viewBox="0 0 18 18" fill="none" xmlns="http://www.w3.org/2000/svg">
<g id="fi_6933179" clip-path="url(#clip0_475_4440)">
<path id="XMLID_1341_" d="M14.5587 0.529297H3.44106C1.83165 0.529297 0.529297 1.83694 0.529297 3.44106V14.5587C0.529297 16.1628 1.83165 17.4705 3.44106 17.4705H14.5587C16.1628 17.4705 17.4705 16.1628 17.4705 14.5587V3.44106C17.4705 1.83694 16.1628 0.529297 14.5587 0.529297ZM6.88224 2.11753H7.67636C8.11047 2.11753 8.47047 2.47224 8.47047 2.91165C8.47047 3.35106 8.11047 3.70577 7.67636 3.70577H6.88224C6.44283 3.70577 6.08812 3.35106 6.08812 2.91165C6.08812 2.47224 6.44283 2.11753 6.88224 2.11753ZM11.4246 8.57106C11.5622 8.67165 11.6469 8.83047 11.6469 8.99989C11.6469 9.17459 11.5622 9.33342 11.4246 9.434L7.71871 12.0811C7.62341 12.1446 7.51753 12.1764 7.41165 12.1764C7.32694 12.1764 7.24224 12.1605 7.16812 12.1181C6.99341 12.0281 6.88224 11.8481 6.88224 11.6469V6.35283C6.88224 6.15694 6.99341 5.97694 7.16812 5.88694C7.34283 5.79694 7.55459 5.80753 7.71871 5.924L11.4246 8.57106ZM4.23518 15.8822H3.44106C3.00165 15.8822 2.64694 15.5275 2.64694 15.0881C2.64694 14.6487 3.00165 14.294 3.44106 14.294H4.23518C4.6693 14.294 5.0293 14.6487 5.0293 15.0881C5.0293 15.5275 4.6693 15.8822 4.23518 15.8822ZM4.23518 3.70577H3.44106C3.00165 3.70577 2.64694 3.35106 2.64694 2.91165C2.64694 2.47224 3.00165 2.11753 3.44106 2.11753H4.23518C4.6693 2.11753 5.0293 2.47224 5.0293 2.91165C5.0293 3.35106 4.6693 3.70577 4.23518 3.70577ZM7.67636 15.8822H6.88224C6.44283 15.8822 6.08812 15.5275 6.08812 15.0881C6.08812 14.6487 6.44283 14.294 6.88224 14.294H7.67636C8.11047 14.294 8.47047 14.6487 8.47047 15.0881C8.47047 15.5275 8.11047 15.8822 7.67636 15.8822ZM11.1175 15.8822H10.3234C9.884 15.8822 9.5293 15.5275 9.5293 15.0881C9.5293 14.6487 9.884 14.294 10.3234 14.294H11.1175C11.5517 14.294 11.9117 14.6487 11.9117 15.0881C11.9117 15.5275 11.5517 15.8822 11.1175 15.8822ZM11.1175 3.70577H10.3234C9.884 3.70577 9.5293 3.35106 9.5293 2.91165C9.5293 2.47224 9.884 2.11753 10.3234 2.11753H11.1175C11.5517 2.11753 11.9117 2.47224 11.9117 2.91165C11.9117 3.35106 11.5517 3.70577 11.1175 3.70577ZM14.5587 15.8822H13.7646C13.3252 15.8822 12.9705 15.5275 12.9705 15.0881C12.9705 14.6487 13.3252 14.294 13.7646 14.294H14.5587C14.9928 14.294 15.3528 14.6487 15.3528 15.0881C15.3528 15.5275 14.9928 15.8822 14.5587 15.8822ZM14.5587 3.70577H13.7646C13.3252 3.70577 12.9705 3.35106 12.9705 2.91165C12.9705 2.47224 13.3252 2.11753 13.7646 2.11753H14.5587C14.9928 2.11753 15.3528 2.47224 15.3528 2.91165C15.3528 3.35106 14.9928 3.70577 14.5587 3.70577Z" fill="#D96A27"/>
</g>
<defs>
<clipPath id="clip0_475_4440">
<rect width="18" height="18" fill="white"/>
</clipPath>
</defs>
</svg>
