<svg width="21" height="21" viewBox="0 0 21 21" fill="none" xmlns="http://www.w3.org/2000/svg">
<g id="fi_2891516" clip-path="url(#clip0_475_4392)">
<path id="Vector" d="M5.90625 4.8125C5.42325 4.8125 5.03125 4.4205 5.03125 3.9375V0.875C5.03125 0.392 5.42325 0 5.90625 0C6.38925 0 6.78125 0.392 6.78125 0.875V3.9375C6.78125 4.4205 6.38925 4.8125 5.90625 4.8125Z" fill="#D96A27"/>
<path id="Vector_2" d="M10.0625 4.8125C9.5795 4.8125 9.1875 4.4205 9.1875 3.9375V0.875C9.1875 0.392 9.5795 0 10.0625 0C10.5455 0 10.9375 0.392 10.9375 0.875V3.9375C10.9375 4.4205 10.5455 4.8125 10.0625 4.8125Z" fill="#D96A27"/>
<path id="Vector_3" d="M14.2187 4.8125C13.7357 4.8125 13.3438 4.4205 13.3438 3.9375V0.875C13.3438 0.392 13.7357 0 14.2187 0C14.7017 0 15.0937 0.392 15.0937 0.875V3.9375C15.0937 4.4205 14.7017 4.8125 14.2187 4.8125Z" fill="#D96A27"/>
<path id="Vector_4" d="M15.9688 1.96875H4.15625C2.82888 1.96875 1.75 3.04763 1.75 4.375V18.5938C1.75 19.9211 2.82888 21 4.15625 21H15.9688C17.2961 21 18.375 19.9211 18.375 18.5938V4.375C18.375 3.04763 17.2961 1.96875 15.9688 1.96875ZM6.125 7H10.5C10.983 7 11.375 7.392 11.375 7.875C11.375 8.358 10.983 8.75 10.5 8.75H6.125C5.642 8.75 5.25 8.358 5.25 7.875C5.25 7.392 5.642 7 6.125 7ZM14.875 15.75H6.125C5.642 15.75 5.25 15.358 5.25 14.875C5.25 14.392 5.642 14 6.125 14H14.875C15.358 14 15.75 14.392 15.75 14.875C15.75 15.358 15.358 15.75 14.875 15.75ZM14.875 12.25H6.125C5.642 12.25 5.25 11.858 5.25 11.375C5.25 10.892 5.642 10.5 6.125 10.5H14.875C15.358 10.5 15.75 10.892 15.75 11.375C15.75 11.858 15.358 12.25 14.875 12.25Z" fill="#D96A27"/>
</g>
<defs>
<clipPath id="clip0_475_4392">
<rect width="21" height="21" fill="white"/>
</clipPath>
</defs>
</svg>
