<svg width="26" height="26" viewBox="0 0 26 26" fill="none" xmlns="http://www.w3.org/2000/svg">
<g id="fi_8007004">
<g id="Group">
<g id="Group_2">
<g id="Group_3">
<g id="Group_4">
<path id="Vector" d="M23.4358 2.41943H2.56356C1.73301 2.41943 1.08301 3.06943 1.08301 3.86388V17.4055C1.08301 18.2 1.73301 18.8861 2.56356 18.8861H23.4719C24.2663 18.8861 24.9524 18.2361 24.9524 17.4055V3.86388C24.9163 3.06943 24.2663 2.41943 23.4358 2.41943ZM12.9997 16.6111C9.71356 16.6111 7.00523 13.9389 7.00523 10.6167C7.00523 7.33054 9.67745 4.62221 12.9997 4.62221C16.2858 4.62221 18.9941 7.29443 18.9941 10.6167C18.9941 13.9389 16.2858 16.6111 12.9997 16.6111Z" fill="#D96A27"/>
</g>
<g id="Group_5">
<g id="Group_6">
<path id="Vector_2" d="M15.7079 10.6528C15.7079 11.0139 15.5273 11.3389 15.2023 11.5556L12.2051 13.3612C12.0245 13.4695 11.844 13.5056 11.6634 13.5056C11.4829 13.5056 11.3023 13.4695 11.1579 13.3612C10.8329 13.1806 10.6162 12.8195 10.6162 12.4584V8.84728C10.6162 8.48617 10.7968 8.12505 11.1579 7.9445C11.4829 7.76394 11.8801 7.76394 12.2051 7.9445L15.2023 9.75005C15.5273 9.93061 15.7079 10.2556 15.7079 10.6528Z" fill="#D96A27"/>
</g>
</g>
</g>
</g>
<g id="Group_7">
<path id="Vector_3" d="M24.9165 22.2084C24.9165 22.3889 24.7721 22.5695 24.5554 22.5695H7.2582C7.04154 23.1834 6.39154 23.6167 5.56098 23.6167C4.76654 23.6167 4.08043 23.1834 3.86376 22.5695H1.76931C1.55265 22.5695 1.4082 22.3889 1.4082 22.2084C1.4082 21.9917 1.55265 21.8473 1.76931 21.8473H3.86376C4.04431 21.2334 4.73043 20.8 5.56098 20.8C6.39154 20.8 7.04154 21.2334 7.2582 21.8473H24.5554C24.7721 21.8473 24.9165 21.9917 24.9165 22.2084Z" fill="#D96A27"/>
</g>
</g>
</g>
</svg>
