<svg width="21" height="18" viewBox="0 0 21 18" fill="none" xmlns="http://www.w3.org/2000/svg">
<g id="fi_25457" clip-path="url(#clip0_475_4420)">
<g id="Group">
<path id="Vector" d="M20.543 2.94305C20.4414 2.90963 20.3438 2.89285 20.2499 2.89285C20.039 2.89285 19.8634 2.9566 19.7226 3.08375L14.9999 7.12178V5.46443C14.9999 4.66746 14.6698 3.9862 14.0096 3.4203C13.3494 2.85447 12.5547 2.57153 11.6248 2.57153H3.37493C2.44533 2.57153 1.65036 2.85447 0.990102 3.4203C0.330089 3.9862 0 4.66746 0 5.46443V12.5359C0 13.3328 0.330089 14.014 0.990143 14.5798C1.6504 15.1457 2.44537 15.4286 3.37497 15.4286H11.6249C12.5547 15.4286 13.3495 15.1457 14.0097 14.5798C14.6699 14.014 15 13.3328 15 12.5359V10.8683L19.7227 14.9164C19.8634 15.0435 20.039 15.1072 20.25 15.1072C20.3438 15.1072 20.4415 15.0905 20.543 15.0571C20.8479 14.9432 21.0001 14.7458 21.0001 14.4645V3.53583C21 3.25445 20.8478 3.05694 20.543 2.94305Z" fill="#D96A27"/>
</g>
</g>
<defs>
<clipPath id="clip0_475_4420">
<rect width="21" height="18" fill="white"/>
</clipPath>
</defs>
</svg>
