<svg width="22" height="22" viewBox="0 0 22 22" fill="none" xmlns="http://www.w3.org/2000/svg">
<g id="fi_57073">
<g id="Group">
<g id="Layer_2_9_">
<g id="Group_2">
<path id="Vector" d="M4.30294 3.80576C4.51531 3.92527 5.94476 4.61585 6.63534 4.94839C6.63805 5.21643 6.64397 5.67995 6.65308 5.68782C6.72919 6.35156 6.85985 7.08896 6.89769 7.29719C6.8349 7.332 6.51218 7.54304 6.51218 8.19943C6.51247 8.20313 6.5128 8.20655 6.51308 8.21029C6.51261 8.22751 6.51218 8.24487 6.51218 8.2627C6.65109 10.0871 7.37667 9.30085 7.52629 10.1C7.77517 11.4287 8.95166 12.39 9.68398 12.7219C10.1072 12.9136 10.5428 13.0114 11.0006 13.0208C11.4584 13.0115 11.894 12.9136 12.3172 12.7219C13.0496 12.39 14.226 11.4287 14.4749 10.1C14.6245 9.3008 15.3501 10.0871 15.4891 8.2627C15.4891 8.24482 15.4886 8.22751 15.4881 8.21029C15.4884 8.20659 15.4888 8.20318 15.4891 8.19943C15.4891 7.54299 15.1663 7.332 15.1035 7.29719C15.1414 7.08896 15.2721 6.35161 15.3481 5.68782C15.3572 5.67995 15.3632 5.21648 15.3659 4.94839C15.7452 4.76571 16.3472 4.47515 16.8482 4.23044V5.99408C16.709 6.07622 16.6112 6.2212 16.6112 6.39406C16.6112 6.54709 16.6889 6.67675 16.8021 6.76244C16.8021 6.76244 16.6008 7.89374 16.5357 8.22646C16.4707 8.5591 17.6834 8.49237 17.6288 8.22646C17.5743 7.96046 17.3627 6.76244 17.3627 6.76244C17.4759 6.67675 17.5535 6.54709 17.5535 6.39406C17.5535 6.22115 17.4561 6.07627 17.3171 5.99408V4.00001C17.5038 3.90739 17.6427 3.83697 17.6982 3.80576C17.8485 3.7212 17.9294 3.61303 17.9123 3.50064C17.9329 3.38345 17.8481 3.25749 17.6207 3.14614C15.9978 2.3517 11.8601 0.326845 11.451 0.131696C11.2725 0.0465702 11.1256 0.0089631 11.0006 0C10.8756 0.0089631 10.7287 0.0465702 10.5502 0.131696C10.1411 0.326845 6.00347 2.35175 4.38053 3.14614C4.15304 3.25749 4.06834 3.38345 4.08892 3.50064C4.07175 3.61303 4.15271 3.7212 4.30294 3.80576Z" fill="#D96A27"/>
<path id="Vector_2" d="M16.5087 15.2177C15.7451 14.9424 14.4161 14.1487 14.1884 14.0262C14.1294 13.9919 14.061 13.9719 13.9878 13.9719C13.828 13.9719 13.6905 14.0657 13.6265 14.2014C12.9969 15.2553 11.8298 18.3199 11.0154 18.3768C11.0104 18.3764 11.0053 18.3754 11.0003 18.3748C10.9953 18.3754 10.9901 18.3764 10.9852 18.3768C10.1708 18.3199 9.00366 15.2553 8.37411 14.2014C8.31004 14.0657 8.17256 13.9719 8.01279 13.9719C7.93957 13.9719 7.87123 13.9919 7.81219 14.0262C7.5845 14.1487 6.25545 14.9424 5.49193 15.2177C2.92905 16.1418 1.77637 17.0842 1.77637 17.7268C1.77637 17.7455 1.77637 17.7668 1.77637 17.7901C1.77637 18.5728 1.77637 21.9368 1.77637 21.9368C1.77637 21.9778 1.77637 22.0001 1.77637 22.0001H10.9852H11.0003H11.0154H20.2242C20.2242 22.0001 20.2242 21.9778 20.2242 21.9368C20.2242 21.9368 20.2242 18.5727 20.2242 17.7901C20.2242 17.7668 20.2242 17.7455 20.2242 17.7268C20.2242 17.0842 19.0715 16.1418 16.5087 15.2177Z" fill="#D96A27"/>
</g>
</g>
</g>
</g>
</svg>
